<svg xmlns="http://www.w3.org/2000/svg" width="119" height="121" viewBox="0 0 119 121" fill="none"><g opacity="0.12" clip-path="url(#clip0_208_3482)"><path fill-rule="evenodd" clip-rule="evenodd" d="M96.3012 77.7156C98.0108 74.6158 99.856 71.6073 101.355 68.4262C102.229 66.4168 102.86 64.3101 103.234 62.1511C104.149 57.6574 103.269 52.9839 100.782 49.1309C99.2819 46.7781 97.0447 44.9882 94.42 44.0407C92.6174 43.3415 90.8031 43.6272 89.0152 44.1885C88.0585 44.4836 86.6103 43.326 86.6536 42.3168C86.7153 41.1004 86.7911 39.863 86.9434 38.6696C87.3727 34.8798 86.8505 31.0427 85.4241 27.5054C84.3292 24.92 82.7018 22.5942 80.648 20.6797C77.9973 18.0312 74.8748 15.9016 71.4414 14.4007C68.5632 13.1669 65.3815 12.8234 62.3064 13.4144C56.6376 14.4151 51.7595 17.0095 47.129 20.2937C42.1241 23.8411 37.8719 28.1835 33.5866 32.5189C32.6002 33.5216 31.5341 34.4403 30.5251 35.4203C30.2995 35.7548 30.1358 36.1272 30.0421 36.5196C30.3657 36.6429 30.7041 36.7231 31.0485 36.7582C31.6193 36.7221 32.1857 36.6344 32.7408 36.4963C35.4877 35.8847 38.3047 35.6463 41.1153 35.7878C47.5758 35.9571 53.9772 37.0661 60.118 39.08C62.1438 39.7629 64.1961 40.3726 66.229 41.0224C66.461 41.0981 66.6867 41.1919 66.904 41.3029C67.5005 41.5987 68.0813 41.9066 68.0005 42.7238C67.9457 43.0893 67.7681 43.4253 67.4969 43.6765C67.2257 43.9277 66.8772 44.0791 66.5085 44.1058C65.3618 44.2856 64.1964 44.3132 63.0425 44.1882C60.4892 43.7259 57.9857 43.0546 55.4557 42.4565C49.2501 40.9582 43.0802 39.2944 36.8317 38.0173C34.2717 37.4975 31.5474 37.7613 28.8977 37.757C27.4491 37.7942 26.0413 38.2445 24.84 39.0549C24.488 39.2409 24.2229 39.5576 24.1017 39.9369C23.8856 42.7773 22.5659 45.2759 21.7474 47.9303C20.8037 50.8944 19.8078 53.8461 18.8832 56.8155C18.8237 57.2632 18.8403 57.7177 18.9324 58.1598C19.3678 58.024 19.7789 57.8201 20.1504 57.5557C25.6145 52.0895 32.326 49.9574 39.8834 50.2368C42.7156 50.3414 45.5359 50.7562 48.3615 51.1518C49.4532 51.3603 50.5211 51.6785 51.5488 52.1019C52.1579 52.3703 52.6574 52.8381 52.965 53.4284C53.2726 54.0187 53.37 54.6961 53.2412 55.3491C53.1268 55.6802 52.9122 55.9673 52.627 56.1707C51.7588 56.8793 50.6653 57.2531 49.545 57.2241C47.4903 57.1129 45.4285 57.0122 43.3749 57.023C41.455 56.9933 39.5353 57.0951 37.6294 57.3277C32.8892 57.9187 28.231 59.0438 23.7436 60.6815C20.5561 61.914 20.8163 61.4603 20.299 64.5678C19.9881 66.3257 19.9652 68.1225 20.231 69.8878C20.9724 74.4117 21.9579 78.9106 22.8893 83.4111C23.407 85.9047 24.0207 88.3797 23.9349 90.9366C23.9089 91.6163 24.2099 92.092 24.9267 92.0292C27.3509 91.8058 29.5998 92.495 31.8416 93.2173C37.7587 95.1068 43.8999 96.2044 50.1053 96.4814C52.9757 96.6193 55.841 96.7537 58.7078 96.9194C61.0399 97.0253 63.3737 96.7494 65.6168 96.1026C68.0048 95.438 70.3661 94.5431 72.9426 94.9148C73.1199 94.8704 73.2835 94.7825 73.4183 94.6589C73.5531 94.5354 73.655 94.3802 73.7148 94.2074C73.9781 92.8825 74.0946 91.5326 74.0623 90.1822C73.7903 86.649 73.2759 83.1269 72.9725 79.5953C72.6823 76.2015 72.4568 72.7906 72.3672 69.3804C72.4217 67.8395 72.5918 66.3048 72.8761 64.7894C72.8821 64.4617 72.9706 64.1407 73.1335 63.8563C73.4881 63.3057 73.9736 62.8517 74.5468 62.5349C74.8175 62.4368 75.5937 63.0508 75.7745 63.491C76.5187 65.3111 77.3918 67.1423 77.7328 69.0546C79.1439 76.6709 78.3051 84.5334 75.3188 91.6806C74.9854 92.4791 74.5546 93.2423 74.2351 94.0426C74.1438 94.3816 74.0993 94.7316 74.1027 95.0827C74.4566 95.0861 74.8761 95.2172 75.1522 95.0774C77.7194 93.7756 80.3336 92.5054 82.8233 91.0149C85.8847 89.1821 88.898 87.2183 91.2094 84.4178C92.9198 82.228 94.5766 79.949 96.3012 77.7156ZM32.3452 38.9506L25.1818 40.0886C25.2824 40.0041 25.3882 39.926 25.4985 39.8548C27.5668 38.6185 29.8501 38.6943 32.13 38.7525C32.2032 38.7564 32.2705 38.8927 32.3434 38.9645C32.546 38.8888 32.7647 38.733 32.9633 38.7531C35.1475 38.8963 37.321 39.1713 39.472 39.5766C45.4913 41.0251 51.4661 42.6635 57.4676 44.1834C60.0513 44.8481 62.6035 45.5597 65.2994 45.3829C65.9493 45.3831 66.5885 45.2169 67.1561 44.9002C67.7237 44.5835 68.2008 44.1269 68.542 43.5737C69.3115 42.3641 69.256 41.5916 68.0869 40.7509C67.7582 40.5126 67.3992 40.3191 67.0194 40.1756C61.1971 38.0185 55.2809 36.1694 49.109 35.2623C44.9802 34.6071 40.7917 34.4106 36.6197 34.6762C35.1967 34.786 33.7867 35.0789 32.4049 35.3075L32.3416 35.0753C35.5181 33.6455 38.9319 32.8159 42.4104 32.6284C39.4698 32.5132 36.5369 33.0031 33.7934 34.0679C35.3544 32.4822 36.7456 31.0474 38.1681 29.6336C38.3985 29.4142 38.6768 29.2514 38.981 29.1582C42.3794 28.0135 45.9546 27.4839 49.5389 27.5941C49.7502 27.5854 49.961 27.5655 50.1702 27.5344L50.1454 27.2676C46.4585 27.0875 42.7691 27.5658 39.2501 28.6801C40.2889 26.9472 42.2284 27.4431 43.6282 26.7492L43.5324 26.3739L41.0825 27.2091L41.0143 26.9055C41.5335 26.2707 42.2368 25.8125 43.0272 25.594C45.8209 24.9077 48.6924 24.5901 51.5685 24.6492C51.8432 24.6223 52.1155 24.5753 52.3833 24.5085L52.3155 24.1142L43.0563 24.9997C43.3237 24.8116 43.6161 24.6617 43.9248 24.5542C44.8926 24.2931 45.8736 24.0838 46.8636 23.9271C50.7206 23.3655 54.5345 23.7904 58.3241 24.5552C58.6724 24.6231 59.021 24.6457 59.385 24.7016L59.402 24.4402C54.5125 23.3057 49.5901 22.8387 44.393 24.0056C45.9461 22.263 47.9815 22.7629 49.7079 22.2815C49.6976 22.1976 49.6829 22.1143 49.6638 22.032L46.6659 22.2857L46.5941 22.0099C47.2176 21.7416 47.8595 21.5182 48.5149 21.3412C51.483 20.8235 54.5241 20.8971 57.4637 21.5578C57.7563 21.6185 58.0491 21.6339 58.3417 21.6719L58.364 21.3914C55.1473 20.6039 51.8136 20.4126 48.5279 20.827C48.9443 20.4578 49.4591 20.2174 50.0096 20.1353C51.7967 20.0813 53.578 20.1371 55.3648 20.1511L56.1354 20.1323L56.1283 19.794L50.2023 19.5906C50.4278 19.447 50.6084 19.2352 50.8143 19.1996C56.8808 18.1486 62.7973 18.5124 68.457 21.1359C66.2057 19.5053 63.5529 19.0669 60.9177 18.6025C58.2619 18.1967 55.5642 18.1424 52.8943 18.4411C53.1546 18.2877 53.4444 18.1911 53.7446 18.1576C54.9829 18.0521 56.2296 17.9903 57.4679 17.8621C58.7062 17.734 59.8173 18.3234 60.8795 17.5006C64.2236 17.7454 67.4929 18.3036 70.5221 19.8368C71.1951 20.1766 71.8452 20.5616 72.5093 20.9257L72.6134 20.6699C69.7991 18.6827 66.5662 17.8005 63.197 17.3568C59.8277 16.9132 56.4777 16.8008 53.1521 17.766C53.7621 17.3307 54.4538 17.0234 55.1857 16.8625C60.8644 16.3081 66.4381 16.5621 71.6494 19.2549C71.7594 19.3037 71.8744 19.3405 71.9923 19.3647C72.0344 19.3021 72.0436 19.2098 72.0684 19.1279C69.8308 17.5672 67.1994 17.0296 64.5582 16.6976C61.9171 16.3656 59.2119 16.2861 56.361 16.0855C59.6122 15.3658 62.6583 15.9404 65.7152 16.454C63.6505 15.5252 61.4243 15.5334 59.2414 15.2525C63.7367 14.2948 68.0825 15.0327 72.3706 16.5198C69.6901 14.9638 66.6984 14.6685 63.7067 14.3731C65.6852 13.9512 67.7447 14.1301 69.6208 14.8868C73.3928 16.2994 76.8154 18.5098 79.6545 21.3669C81.7185 23.2589 83.3341 25.5878 84.3836 28.1836C86.0566 32.5395 85.9997 37.0333 85.2888 41.564C84.949 40.3996 84.5503 39.2532 84.0941 38.1292C83.3455 36.5182 82.4432 34.9553 81.6176 33.3911C81.4708 33.1689 81.3044 32.9604 81.1203 32.768C81.0521 32.813 80.9856 32.8667 80.9191 32.9204C81.2858 33.501 81.6631 34.0659 82.0158 34.6673C82.3684 35.2687 82.7071 35.891 83.0211 36.5498C83.3351 37.2085 83.6492 37.8673 83.9421 38.5573C84.2351 39.2473 84.37 39.8232 84.5795 40.4571C82.9726 37.5864 80.988 34.9441 78.6789 32.6009C80.8873 35.4986 83.1764 38.299 84.4386 41.8248C83.2887 40.4996 82.2164 39.1091 81.227 37.6601C78.6048 33.7817 75.0834 30.5951 70.9631 28.3722C69.665 27.705 68.3237 27.1254 66.9482 26.6371C66.776 26.5666 66.5031 26.7465 66.2762 26.8134C66.415 26.9448 66.536 27.1476 66.6996 27.1972C69.9427 28.3017 72.9449 30.0158 75.5445 32.2473C76.6063 33.1931 77.6152 34.1967 78.5665 35.2536L82.4908 40.1714C81.6719 39.4922 80.9009 38.7575 80.1831 37.9723C79.4509 37.2592 78.6593 36.5893 77.8693 35.9283C77.0794 35.2672 76.2285 34.5953 75.393 33.9793C74.5576 33.3634 73.7198 32.852 72.8858 32.29C72.8367 32.363 72.791 32.4308 72.7418 32.5037C77.3435 35.4676 81.333 39.2878 84.4936 43.7566C84.2263 43.6677 83.9884 43.5073 83.8055 43.293C80.35 38.7887 76.0843 34.9687 71.2275 32.0291C71.0242 31.8921 70.7981 31.8004 70.5807 31.6843C70.5245 31.7677 70.4683 31.8511 70.4122 31.9345C75.6584 34.9613 80.1871 39.0883 83.6869 44.0316C83.3917 44.0009 83.117 43.8667 82.9112 43.653C81.0065 41.1527 78.7969 38.9001 76.3338 36.9475C75.9395 36.644 75.5102 36.3926 75.0932 36.1116L74.9492 36.3253C77.9612 38.5158 80.5949 41.1839 82.7463 44.2239C82.2451 43.879 81.7698 43.498 81.3242 43.0838C78.6328 40.5656 75.9551 38.0944 72.6499 36.3071C68.8344 34.1447 64.728 32.5417 60.4566 31.5474C56.699 30.679 52.8201 30.4624 48.9892 30.9071C48.644 31.0042 48.3175 31.1581 48.0229 31.3625C48.3362 31.4933 48.6682 31.5738 49.0067 31.601C54.4263 31.1506 59.8789 31.8865 64.9852 33.7574C70.259 35.795 75.3004 38.2899 79.284 42.4898C80.0766 43.327 80.9708 44.0583 81.8246 44.8383C80.9336 45.587 80.1246 45.9665 79.0404 45.236C78.2227 44.7573 77.3684 44.3439 76.4857 43.9997C76.3373 43.9535 76.1842 43.9241 76.0293 43.912C75.9942 43.9642 75.9817 44.0391 75.9622 44.1017L79.7376 45.9786L79.5999 46.3178C78.0391 46.0923 76.804 44.8432 75.3259 44.4612L75.2272 44.6751L78.8368 46.5843L78.7432 46.8244C77.368 46.7845 76.3048 45.6741 74.9917 45.4183L74.9157 45.6324L77.9991 47.1415L77.9874 47.3837L76.3451 47.414L76.9912 47.8949C75.2808 49.0161 73.616 50.0922 72.0577 51.1113L68.8026 49.7896C68.7429 49.8783 68.7145 49.9879 68.6721 50.0958L71.6608 51.3517C71.3855 51.5104 71.1203 51.686 70.8668 51.8777C70.6002 52.1198 70.2642 52.2718 69.9064 52.3123C69.5486 52.3527 69.1871 52.2796 68.8732 52.1033C66.2762 50.9522 63.6579 49.855 61.0451 48.7387C60.8943 48.6837 60.7402 48.6381 60.5838 48.6022C60.5416 48.6648 60.5273 48.7536 60.4955 48.8232C63.3658 50.3078 66.3197 51.6249 69.3423 52.768C65.3841 52.2762 62.0653 50.0703 58.4356 48.7085C61.7166 50.4417 64.9342 52.2914 68.6257 53.1567C68.2531 53.7772 67.8141 53.7088 67.311 53.5669C63.7526 52.5165 60.3077 51.1145 57.0272 49.3814C52.1542 46.8446 46.7014 45.6295 41.2123 45.8573C40.9687 45.8459 40.7246 45.8676 40.4868 45.9217C40.3196 46.0208 40.1728 46.1508 40.0543 46.3049C40.1754 46.4529 40.324 46.5762 40.4919 46.6679C40.7065 46.6979 40.9243 46.6967 41.1386 46.6641C46.1682 46.4486 51.1733 47.4779 55.7097 49.6608C59.3219 51.3974 62.9359 53.1201 66.8251 54.1869C66.9122 54.2205 66.9971 54.26 67.079 54.3049L67.0077 54.6358C65.3154 54.8977 63.8381 53.637 62.2002 53.4808C62.1581 53.5433 62.1489 53.6357 62.1276 53.7123L66.0224 55.0633C65.4262 55.7681 64.8989 55.9433 64.1275 55.4009C63.3695 54.9277 62.5746 54.5163 61.7506 54.1707C61.5856 54.1134 61.4142 54.0769 61.2403 54.0618C61.2017 54.1191 61.203 54.1959 61.18 54.2637L64.5951 56.0342L64.5398 56.285C64.3327 56.2864 64.1264 56.2596 63.9266 56.2053C63.3597 55.9218 62.8279 55.5862 62.261 55.3028C61.8854 55.1179 61.4798 54.9887 61.071 54.8193C61.0253 54.8871 61.0092 54.9672 60.9792 55.0455L63.9594 56.629L59.9707 59.4893C59.7643 59.9868 59.4049 60.0478 58.9402 59.8939C57.4035 59.3738 55.8458 58.8624 54.3246 58.3755C54.0692 58.3083 53.8097 58.2575 53.5478 58.2235C53.5057 58.2861 53.5052 58.3767 53.4892 58.4568L58.9697 60.2775C58.9143 60.4127 58.8298 60.534 58.7222 60.6327C58.6146 60.7315 58.4866 60.8053 58.3472 60.8489C58.2078 60.8925 58.0605 60.9048 57.9158 60.885C57.7711 60.8651 57.6326 60.8136 57.5101 60.7341C56.6491 60.3359 55.7493 60.0403 54.8654 59.71C54.6357 59.6235 54.4042 59.5508 54.1762 59.473C54.1235 59.5512 54.1109 59.6488 54.0773 59.7323L57.7796 61.234C56.9761 62.269 56.0853 62.6237 54.9294 61.9434C54.4493 61.6918 53.9352 61.5113 53.4032 61.4077C53.2413 61.3668 53.019 61.5505 52.8216 61.6297L55.9996 62.6721C55.3663 63.1397 54.8521 63.4754 54.3935 63.8636C54.246 64.0097 54.0581 64.1083 53.854 64.1464C53.65 64.1846 53.4392 64.1606 53.2489 64.0776C50.2986 63.1584 47.3215 62.3576 44.1958 62.3736C43.9517 62.3759 43.711 62.4183 43.4703 62.438C43.4734 62.5234 43.4677 62.6106 43.4621 62.6977C46.907 62.6466 50.1733 63.4681 53.5256 64.5218C52.7606 65.1735 52.0675 65.7297 51.4335 66.3332C51.278 66.4761 51.0869 66.5744 50.8802 66.6179C50.6735 66.6613 50.459 66.6483 50.2591 66.5802C47.4168 66.0293 44.5691 65.5202 41.7249 65.006C41.4246 64.9729 41.1224 64.9592 40.8204 64.9649L40.8127 65.1113L50.4358 66.8129C50.0805 67.4527 49.8345 67.8402 49.1699 67.5668C46.1135 66.2652 42.8428 65.979 39.5522 65.846C39.3502 65.8557 39.1498 65.8857 38.9538 65.9354C38.966 66.0058 38.9738 66.0769 38.9772 66.1482C42.4819 66.3346 45.9725 66.5644 49.2214 68.0865C49.0131 68.1934 48.772 68.2177 48.5465 68.1546C45.2476 66.8641 41.7879 66.7234 38.3122 66.6627C38.1623 66.6845 38.0168 66.7296 37.881 66.7966C39.0617 66.9779 40.2521 67.0892 41.446 67.1296C42.6278 67.1946 43.8051 67.3249 44.9724 67.52C46.1045 67.7295 47.2009 68.1045 48.3151 68.408C48.2937 68.5073 48.2706 68.5978 48.2527 68.6919C46.9236 68.4936 45.575 68.358 44.2654 68.0744C39.9573 67.1345 35.8075 68.0067 31.6519 69.0113C31.5996 69.0215 31.5281 69.0264 31.5035 69.0628C31.3841 69.2401 31.2647 69.4173 31.1262 69.5665C31.3315 69.6443 31.5276 69.837 31.7317 69.7927C32.1852 69.7496 32.6288 69.5861 33.0876 69.5239C35.6171 69.1441 38.1783 68.7174 40.7212 68.4753C41.9332 68.4782 43.1422 68.5974 44.3314 68.8313C42.0873 68.9562 39.8716 68.9488 37.6541 68.978C35.4237 69.0253 33.2385 69.6159 31.288 70.6987C33.7809 69.7552 36.422 69.2635 39.0875 69.2465C41.7406 69.2683 44.408 69.2239 46.9895 69.9704C46.7469 70.1106 46.4644 70.1657 46.1869 70.1269C42.9859 69.545 39.7135 69.4677 36.4886 69.898C36.3132 69.9359 36.1419 69.9905 35.977 70.061C37.7164 70.1341 39.4149 70.0204 41.1111 70.0113C42.8387 69.9227 44.568 70.1503 46.2138 70.6831C45.9109 70.9332 45.5419 71.09 45.1517 71.1346C43.4242 71.1227 41.6899 71.0758 39.973 71.0255C39.8736 71.0268 39.7721 71.1099 39.6725 71.1565C41.4845 71.3694 43.3007 71.0698 45.0654 71.6676C44.7259 71.8905 44.3279 72.0075 43.9219 72.0037C42.247 71.9362 40.5739 71.8321 38.8956 71.7472C38.7088 71.7593 38.5236 71.7893 38.3426 71.8368L38.3521 72.0252L44.2114 72.3276C43.2687 73.3219 42.5456 73.9563 41.2582 73.7862C39.6727 73.6038 38.0757 73.5412 36.4808 73.5988C32.4579 73.6193 28.4818 74.4636 24.7976 76.0796C24.5063 76.2358 24.2258 76.4114 23.9582 76.6054L24.0375 76.8028C29.7463 74.0329 35.7784 73.5727 41.9757 74.2848C41.6747 74.4375 41.3391 74.5092 41.0019 74.4927C35.4077 74.1566 29.9442 74.5604 24.8583 77.2043C24.6955 77.3022 24.5378 77.4085 24.3861 77.5227L24.4895 77.7516C27.0929 76.5424 29.7257 75.3908 32.593 75.0946C35.4604 74.7984 38.2612 74.5559 41.0951 75.0405C40.7988 75.283 40.4357 75.4296 40.0541 75.4607C38.9994 75.4625 37.9415 75.4015 36.887 75.3807C36.706 75.3917 36.5266 75.4206 36.3514 75.467L36.2407 75.6425L39.9252 75.7983L39.9744 76.074C39.6237 76.2125 39.2553 76.3011 38.88 76.3371C33.6048 76.0113 28.6271 76.8637 24.1755 79.9274C23.9272 80.0935 23.6563 80.2369 23.3958 80.3873C23.3807 80.2567 23.3968 80.1244 23.4429 80.0012C23.489 79.8781 23.5636 79.7677 23.6607 79.6791C24.2083 79.2734 24.7775 78.898 25.3659 78.5543C28.2449 76.9598 31.4461 76.0341 34.7318 75.846C34.9926 75.8163 35.2517 75.7733 35.5082 75.7173L35.4451 75.4172C33.3014 75.6856 31.1011 75.734 29.061 76.5573C27.0208 77.3805 25.1158 78.3631 23.2883 79.2083C22.8809 77.3271 22.4291 75.2417 21.9534 73.0795C24.2193 72.4386 26.4345 71.8167 28.6481 71.186L28.5659 70.8806L21.9484 72.682L21.8014 72.4389C21.9769 72.2903 22.1723 72.1669 22.3819 72.0722C24.1363 71.5945 25.8957 71.1429 27.6482 70.6791C27.8716 70.6174 28.0866 70.5121 28.3014 70.4295L28.219 70.1694L21.7886 71.8392C21.5002 71.2887 21.7086 71.1031 22.1798 70.9887C23.9809 70.5652 25.7561 70.1015 27.5434 69.6535L28.3481 69.4378L28.2608 69.1062L21.5256 70.7449C21.392 69.897 21.2826 69.1033 21.1663 68.2973C21.7948 68.1069 22.3307 67.9527 22.8702 67.7932L22.8103 67.5558L21.1842 67.832L21.1602 67.0579L21.9936 66.6645L21.942 66.5161L21.1679 66.5402C21.1781 66.2439 21.2021 65.972 21.1947 65.7018C21.172 65.5319 21.1843 65.3591 21.2307 65.1942C21.2772 65.0292 21.357 64.8755 21.4651 64.7425C21.5731 64.6094 21.7073 64.4999 21.8593 64.4206C22.0112 64.3414 22.1778 64.294 22.3488 64.2815C24.284 63.8726 26.1869 63.3206 28.0859 62.8418C28.3059 62.7696 28.5202 62.6809 28.727 62.5765L28.6444 62.339L21.5912 64.1348C21.6986 62.8506 21.6986 62.8506 22.7537 62.4095C23.1764 62.2244 23.6044 62.0505 24.0375 61.8876C28.6384 60.2565 33.3916 59.0919 38.2255 58.4115C39.7002 58.1994 41.1893 58.103 42.6791 58.1231C45.0604 58.1208 47.4356 58.2964 49.8275 58.2785C50.6199 58.3077 51.4067 58.1331 52.1123 57.7712C52.818 57.4093 53.4189 56.8723 53.8575 56.2116C55.0411 54.455 53.7885 51.8148 51.5296 51.0279C46.3511 49.3038 40.8638 48.7074 35.4358 49.2788C30.1669 49.6714 25.1676 51.7627 21.1886 55.2388C20.6966 55.6652 20.2464 56.1197 19.6842 56.6504C20.015 54.2585 22.3932 54.1708 23.6909 52.9534L23.5524 52.754L20.5199 54.3865L20.3468 54.1259C21.3279 53.491 22.3073 52.8473 23.2919 52.2071L23.1569 52.0025L20.7798 53.2808C21.2431 51.9408 21.6342 50.7643 22.0687 49.6019C22.1696 49.4385 22.3303 49.3211 22.5166 49.2747C24.294 48.7064 26.0836 48.1538 27.8732 47.5786C28.0436 47.511 28.2079 47.429 28.3643 47.3335L28.2713 47.089L22.3703 48.8957L22.2463 48.5847L26.8811 46.9026L26.7659 46.59L22.6936 48.0221C22.6662 47.7214 22.7543 47.4216 22.94 47.1835C23.1258 46.9454 23.3952 46.787 23.6935 46.7405C26.6561 45.988 29.6205 45.2292 32.5866 44.4639L33.3337 44.2549L33.248 43.9547C29.8017 44.4575 26.4193 45.3292 23.1593 46.5548C23.3121 46.1844 23.4454 45.8063 23.5588 45.422C23.7427 44.5303 24.3284 44.1898 25.1714 43.9847C27.0738 43.5234 28.9436 42.9643 30.8201 42.4401C31.0251 42.3725 31.2257 42.2926 31.421 42.2007L31.3334 41.937L24.1589 43.924C24.5266 42.8833 24.7854 42.0042 25.1521 41.1675C25.2325 40.9991 25.3462 40.8488 25.4865 40.7257C25.6267 40.6027 25.7906 40.5094 25.968 40.4516C27.9016 40.034 29.8504 39.6949 31.7925 39.3209C32.0333 39.2785 32.2671 39.2239 32.5027 39.178L32.3452 38.9506ZM56.9572 95.5807L58.3472 85.1489L58.0458 85.1126C57.9957 85.3895 57.9315 85.6646 57.8953 85.9434C57.4847 88.9711 57.0846 92.0059 56.6705 95.0389C56.5944 95.6242 56.5908 95.6295 56.0092 95.5028C56.3082 93.3043 56.6131 91.0971 56.9238 88.8812L56.6085 88.8431C56.2802 91.085 55.9484 93.3322 55.6182 95.6107L53.5443 95.4942L53.7525 93.2168L53.4894 93.1911C53.3724 93.9384 53.2415 94.6838 53.1243 95.4765L50.4631 95.3204C50.5779 94.3064 50.6924 93.3604 50.8033 92.4196L50.4984 92.3885C50.3922 93.0748 50.3172 93.7822 50.1797 94.4474C50.0877 94.7434 49.9642 95.0285 49.8112 95.298C49.7093 94.9853 49.6505 94.6601 49.6364 94.3314C49.8769 92.2198 50.1434 90.1257 50.3996 88.0246C50.4221 87.779 50.4315 87.5323 50.4276 87.2856L50.1993 87.2758C49.8714 89.9146 49.5412 92.5494 49.2086 95.18L48.9554 95.2747C48.8483 95.0737 48.6384 94.8565 48.6603 94.6666C48.8922 92.1627 49.0338 89.613 49.4537 87.1675C49.8917 84.4988 50.4756 81.8561 51.2027 79.2513C52.2618 75.5085 53.5037 71.8207 54.6566 68.1411L54.9029 68.4055C55.4753 67.5559 55.136 66.3723 56.1648 65.6103L54.5044 71.1004L54.7742 71.1836C54.8428 71.0616 54.9029 70.9349 54.9538 70.8045C55.478 69.1492 55.9847 67.4974 56.5192 65.8491C56.6332 65.4719 56.8449 65.1315 57.1327 64.8623C57.4206 64.5931 57.7744 64.4047 58.1584 64.3162C56.6539 67.539 55.3376 70.7523 54.9994 74.3139C55.1585 74.1671 55.2638 73.9712 55.2984 73.7575C55.9258 70.423 57.0449 67.2003 58.6193 64.1947C58.8835 63.7641 59.1922 63.3624 59.5403 62.9963L59.7697 63.1509C58.3866 66.4859 56.7964 69.7571 56.4018 73.4247C57.3154 69.493 58.937 65.8715 60.5987 62.2467L60.8667 62.3439C60.4583 63.5012 60.0639 64.6602 59.6503 65.814L59.8434 65.8986C59.9905 65.6622 60.1211 65.4159 60.234 65.1614C60.5751 64.2165 60.8587 63.2556 61.2259 62.3282C61.4369 61.9362 61.6863 61.566 61.9704 61.2232L62.1893 61.3707L61.5253 64.1898L61.7917 64.2556L62.7678 60.7146L63.0064 60.7768C62.9664 61.197 62.9027 61.6145 62.8154 62.0275C61.8918 65.5281 60.9593 69.0303 60.0182 72.5343C59.3433 75.0656 58.6685 77.597 58.0092 80.1389C57.9478 80.4869 57.918 80.8398 57.9204 81.1931L58.1294 81.2203C58.1827 81.0288 58.2411 80.8408 58.2839 80.6423C58.4999 79.6131 58.6585 78.5679 58.9302 77.546C60.4205 71.9034 62.4819 66.4031 63.4221 60.6097C63.4687 60.338 63.7733 60.0885 63.9784 59.8628C64.0672 60.1525 64.0866 60.4589 64.035 60.7574C63.5492 63.9415 62.8139 67.0826 61.8359 70.1515C60.8443 73.6366 59.9589 77.1553 59.0387 80.6582C58.9878 80.9419 58.959 81.2291 58.9525 81.5172L59.179 81.541C59.2307 81.3181 59.2963 81.0971 59.3322 80.8863C59.6332 79.5734 59.8627 78.288 60.1915 77.0013C61.656 71.2959 63.8674 65.7754 64.5222 59.8655C64.5516 59.5745 64.8734 59.3443 65.0701 59.0524L65.317 59.1808C65.2819 59.8787 65.2104 60.5743 65.1028 61.2647C64.5364 64.0738 64.0135 66.897 63.3287 69.6794C61.8002 75.3837 60.835 81.2242 60.4469 87.1169C60.4134 87.3844 60.4144 87.6551 60.4499 87.9223C60.4862 88.0007 60.5399 88.0698 60.6071 88.1242C60.6742 88.1787 60.7529 88.217 60.8371 88.2363C60.9108 88.223 60.98 88.1919 61.0389 88.1457C61.0978 88.0995 61.1444 88.0396 61.1749 87.9712C61.2321 87.7635 61.2619 87.5491 61.2634 87.3336C61.4939 85.1243 61.5694 82.8863 61.9984 80.7198C62.8224 76.5837 63.8396 72.4868 64.7907 68.3756C65.5441 65.1317 66.5202 61.962 66.4497 58.5571C66.446 58.259 66.8536 57.9577 67.0573 57.6553C66.9725 62.1455 65.9754 66.3924 65.236 70.7068C65.4232 70.488 65.5453 70.221 65.5884 69.9363C66.2546 65.9894 66.9207 62.0424 67.5503 58.0936C67.5436 57.8061 67.6436 57.5264 67.8311 57.3084C68.0186 57.0904 68.2802 56.9496 68.5654 56.9131C67.8458 61.4455 67.1512 65.8735 66.4513 70.2979C66.6654 70.1077 66.7999 69.8438 66.828 69.5589C67.4758 65.448 68.1218 61.3359 68.7661 57.2227C68.8292 56.8029 68.8175 56.3478 69.508 56.3129C69.2394 59.1635 68.98 61.9444 68.7187 64.7393L68.9992 64.7843C69.0458 64.5126 69.1116 64.2462 69.1391 63.9692C69.3675 61.4931 69.5906 59.0136 69.8311 56.5306C69.855 56.2815 69.9055 55.9365 70.0734 55.8223C70.9515 55.2165 71.8677 54.6666 72.9046 54.0162C72.9545 55.2246 72.9929 56.2812 73.0313 57.3378L73.326 57.3166C73.3099 56.3281 73.2589 55.3463 73.2969 54.3564C73.3246 54.0379 73.4725 53.7419 73.7107 53.5286C74.1438 53.2058 74.6029 52.9194 75.0833 52.6724L75.3288 60.1818L75.6217 60.1745C75.6488 60.0028 75.6619 59.8291 75.6609 59.6553C75.6158 57.4725 75.5743 55.2845 75.4474 53.0769C75.4186 52.9665 75.4136 52.8512 75.4328 52.7387C75.452 52.6261 75.4949 52.519 75.5587 52.4243C75.6225 52.3297 75.7057 52.2497 75.8027 52.1896C75.8998 52.1296 76.0086 52.0909 76.1217 52.0761L76.4824 60.2694L76.8032 60.2658C76.803 59.9624 76.8219 59.6645 76.8129 59.3628C76.7145 57.0229 76.6286 54.6534 76.5774 52.2998C76.6412 51.973 76.7663 51.6613 76.9462 51.3811L77.2177 51.4731L77.3141 54.5696L77.6157 54.5606L77.7378 51.005L78.1578 51.0227L78.7354 63.326L79.0021 63.3238C79.05 63.1575 79.0789 62.9863 79.0883 62.8134C78.9152 59.021 78.7612 55.2339 78.5305 51.4482C78.4902 50.7768 78.5654 50.3728 79.2702 50.2716L79.6044 53.9149L79.9079 53.892C79.8918 53.6235 79.8844 53.3532 79.8525 53.0968C79.7959 52.2023 79.7183 51.3163 79.6896 50.4254C79.757 50.1383 79.8702 49.864 80.0248 49.6129C81.4642 55.0467 80.9256 60.3453 80.9757 65.7601C81.1946 65.5589 81.2575 65.5331 81.2664 65.4861C81.2958 65.3837 81.3087 65.2772 81.3046 65.1707C81.3468 60.1364 81.6889 55.0844 80.5558 50.1071C80.4466 49.6167 80.5369 49.3365 81.1247 49.2627L82.1084 54.1469L82.4538 54.0841C82.417 53.7788 82.4028 53.4737 82.3224 53.1543C82.0931 51.9311 81.8411 50.7079 81.6205 49.483C81.6058 49.2412 81.624 48.9985 81.6746 48.7616L81.9483 48.749C82.212 49.73 82.4808 50.7145 82.727 51.6989C83.5354 55.2702 83.9668 58.9165 84.0141 62.5779C84.043 62.8496 84.0983 63.1179 84.1793 63.3789L84.4288 63.3348C84.4423 63.0786 84.4592 62.8171 84.4588 62.5591C84.4743 57.971 83.8388 53.4039 82.5712 48.9944C82.5353 48.7402 82.5308 48.4826 82.5575 48.2273L82.8122 48.2093C82.8971 48.3409 82.975 48.4768 83.0455 48.6167C84.2845 51.4557 84.9882 54.4993 85.1212 57.5941C85.3888 63.0133 85.0346 68.4453 84.0654 73.7837C83.441 77.4101 82.5727 80.9935 81.8454 84.6037C81.8025 84.8248 81.9912 85.096 82.0927 85.3614C82.2367 85.1477 82.5286 84.9958 82.589 84.7712C82.8023 83.9372 82.9146 83.0731 83.1262 82.2304C84.9968 75.1022 86.0664 67.7877 86.3154 60.4223C86.3336 59.5323 86.2902 58.642 86.1855 57.758C85.7894 54.2852 85.2625 50.838 83.6257 47.6206C84.3867 47.4134 84.3905 48.0602 84.5162 48.3798C86.2151 52.7986 87.3714 57.3141 87.0009 62.1044C87.0052 62.3412 87.0345 62.5768 87.0881 62.8074L87.4527 62.7499C87.9732 57.3998 86.9033 52.0151 84.377 47.2704C84.4944 47.1791 84.617 47.0947 84.7443 47.0177C84.8716 46.9655 85.0023 46.9219 85.1354 46.8872L85.5467 47.6266C86.9082 50.1052 87.4578 52.8553 88.0702 55.5795C88.7952 58.8115 88.6658 62.0969 88.5119 65.3735C88.5036 65.6559 88.5423 65.9472 88.5566 66.2296C88.6275 66.2233 88.698 66.2126 88.7676 66.1976C89.4443 59.4005 88.6101 52.8435 85.4558 46.6028C85.8805 46.3888 86.3052 46.1747 86.77 45.9347C89.4706 51.2615 90.8859 57.1468 90.9026 63.119L91.3005 63.0233C91.3198 57.0273 89.9873 51.104 87.4023 45.6937C89.0911 47.9002 89.8486 50.5554 90.6776 53.2058L90.992 53.0766L89.4016 48.2155C89.5935 48.3915 89.7535 48.5993 89.8745 48.8298C92.2461 52.9363 92.965 57.4148 92.6805 62.0888C92.5248 64.682 92.1391 67.2566 91.8876 69.8458C91.869 70.0758 92.0595 70.333 92.1524 70.5775C92.3256 70.4066 92.4629 70.2028 92.5563 69.9781C92.906 66.9396 93.3881 63.907 93.532 60.8587C93.7545 56.0293 92.9177 51.4108 90.2885 47.2367C90.183 47.0671 90.0967 46.8802 90.007 46.6984C92.8573 49.7958 94.6715 53.7044 95.1975 57.8807C94.735 53.0217 93.1682 48.6768 89.6064 45.2007C92.1189 46.8936 93.564 49.3831 94.6137 52.167C95.6854 54.9738 96.3251 57.9269 96.5109 60.9257C96.4026 54.9336 95.0895 49.3574 90.4789 45.0307C90.5751 44.9667 90.6661 44.8991 90.7658 44.8299L94.5305 48.8823C94.4923 48.6799 94.4251 48.484 94.3311 48.3008C93.7339 47.4437 93.1139 46.6091 92.5009 45.7641C96.523 49.232 98.0236 53.9113 98.9999 58.8739C98.4102 53.6412 96.7198 48.9174 92.8275 45.302C95.0022 46.6405 96.7077 48.6212 97.7086 50.9706C98.5699 53.0667 99.2024 55.2663 99.9344 57.4193L100.165 58.1126C100.262 58.0799 100.357 58.0525 100.449 58.0163C99.9671 55.5739 99.2189 53.1916 98.2179 50.9121C97.1489 48.5989 95.4768 46.6162 93.3772 45.1722C93.6231 45.156 93.686 45.1301 93.7173 45.1512L94.2631 45.4659C96.3133 46.6264 97.9036 48.4549 98.7684 50.6463C99.6742 52.9013 100.374 55.2372 101.158 57.5613C101.259 57.8495 101.406 58.1152 101.528 58.3947C101.619 58.3498 101.715 58.3084 101.811 58.2671C100.93 54.581 99.9472 50.9101 97.714 47.7456C101.643 51.0597 103.529 58.856 100.925 65.4763C100.895 64.5993 100.871 63.8025 100.852 63.0092L100.576 63.0131C100.425 65.0032 100.863 67.0868 99.5777 68.9945L99.7673 64.1126L99.4781 64.092C99.4473 64.329 99.4025 64.5641 99.3979 64.7959C99.31 66.3661 99.2814 67.9384 99.1186 69.4961C98.9646 70.1425 98.7338 70.7681 98.4313 71.3597L98.2347 71.2803C98.3135 69.1911 98.3935 67.1002 98.4747 65.0075L98.2046 64.9923C98.1625 65.1637 98.1314 65.3376 98.1113 65.513C98.0162 67.4877 97.8897 69.4639 97.8766 71.418C97.8619 72.6434 97.0788 73.4345 96.4838 74.61L96.4873 72.8389L96.224 72.8359C96.2434 73.6033 96.1788 74.3705 96.0315 75.1238C95.7335 75.8504 95.3584 76.5428 94.9127 77.1893L94.7491 77.117L95.0856 73.9181L94.8487 73.8873C94.2173 75.7355 94.9263 77.9564 93.0999 79.621C93.4468 77.7625 93.6628 75.8821 93.7464 73.9934C93.5807 74.2389 93.4787 74.5218 93.4495 74.8165C93.2099 76.3982 92.9459 77.9711 92.7481 79.5582C92.5992 80.769 91.7779 81.5268 91.0938 82.3846L90.8937 82.3104L92.1521 74.5487L91.9031 74.5021C91.8496 74.6415 91.8064 74.7846 91.7737 74.9303C91.3928 77.2278 90.9144 79.5126 90.6852 81.8213C90.6099 82.4056 90.4147 82.9681 90.112 83.4736C89.8093 83.979 89.4054 84.4166 88.9258 84.7587C89.1088 83.6997 89.2755 82.7662 89.4422 81.8326L89.153 81.7893C88.953 82.7611 88.7147 83.7222 88.56 84.6942C88.4802 85.0387 88.3202 85.3596 88.0928 85.6305C87.8655 85.9014 87.5774 86.1148 87.2519 86.2532L88.2344 81.4205L87.9366 81.3563C87.869 81.6366 87.7857 81.9064 87.7268 82.185C87.431 83.5015 87.1354 84.7726 86.9006 86.0771C86.8553 86.3869 86.724 86.6777 86.5216 86.9165C86.3192 87.1552 86.0538 87.3324 85.7556 87.4278L86.2964 83.4419C86.0443 83.6585 85.9727 83.6861 85.9673 83.7279L85.4512 86.9347C85.2858 87.9676 85.2858 87.9676 84.2986 88.4317L87.0133 74.8529L86.6737 74.7832C86.6059 75.0862 86.5278 75.3822 86.4688 75.6835C85.6201 79.8788 84.7837 84.0672 83.9055 88.2502C83.757 88.6461 83.5482 89.0167 83.2865 89.3489L83.0117 89.2168C83.9741 84.2114 85.5166 79.3013 85.589 74.1434C85.4582 74.2986 85.3771 74.4895 85.3562 74.6913C85.2619 75.4387 85.239 76.2039 85.0976 76.9424C84.3412 80.8209 83.5046 84.6833 82.8179 88.5708C82.6116 89.743 81.9467 90.2575 80.9421 90.7024C81.0409 90.1171 81.1269 89.6294 81.2287 89.1523C80.4666 89.9121 80.9387 91.4049 79.4331 91.6258C79.6283 90.9312 79.8165 90.2471 79.9994 89.5594C79.056 90.3409 79.573 91.902 78.1182 92.4527C78.8635 90.1204 79.6571 87.919 79.8307 85.5804C79.6736 85.7633 79.5668 85.9838 79.5207 86.2204C78.9357 88.2136 78.4045 90.2279 77.762 92.2051C77.5428 92.6027 77.2527 92.957 76.9062 93.2503L76.6768 93.0958C78.5027 88.6874 80.0693 84.2027 80.4572 79.4089C80.2791 79.7291 80.1677 80.082 80.1296 80.4463C79.4027 84.8054 78.1029 89.0492 76.2638 93.0676C76.0728 93.3761 75.8455 93.6606 75.5868 93.915L75.3835 93.778C75.5968 93.2927 75.8205 92.8144 76.0234 92.3221C78.8129 85.5162 80.0886 78.4937 79.2393 71.1155C79.0232 68.8686 78.4601 66.6689 77.5699 64.5945C77.1404 63.6686 76.5707 62.8144 75.8809 62.062C75.0695 61.1742 74.3214 61.2159 73.3541 61.8753C72.9445 62.1464 72.6008 62.5059 72.3483 62.9273C72.0958 63.3487 71.941 63.8213 71.8953 64.3104C71.5569 66.7463 71.3517 69.1987 71.2804 71.6569C71.2871 74.549 71.6146 77.4375 71.8567 80.329C72.1449 83.7593 72.5377 87.192 72.7876 90.6117C72.8017 91.5312 72.7307 92.45 72.5754 93.3563C72.5608 93.4905 72.3615 93.6063 72.2493 93.7278C72.1105 93.5963 71.8845 93.4819 71.8556 93.3336C71.8058 92.9315 71.7798 92.5268 71.7778 92.1217L71.2045 82.1405C71.1935 81.8981 71.1372 81.6555 71.1087 81.4166L70.8593 81.438L71.5302 93.5691L67.7512 94.206L67.7602 93.0677L67.5477 93.0457C67.5094 93.3401 67.4545 93.632 67.383 93.92C67.3298 94.1115 67.2395 94.3918 67.1068 94.4312C65.8987 94.7844 64.6927 95.0783 63.3887 95.4502L63.4479 90.4805L63.1429 90.472L63.0153 95.5093L62.2201 95.5647C62.2868 94.0484 62.3323 92.6087 62.404 91.1412L62.0937 91.1293L61.8484 95.6553L61.0778 95.6742L61.3966 90.3867L61.1073 90.3661C61.0834 90.6153 61.0421 90.8678 61.0269 91.1153C60.9367 92.4415 60.8588 93.7607 60.7599 95.0886C60.7161 95.3176 60.649 95.5416 60.5596 95.757L60.2444 95.6962L60.6002 89.2741L60.2882 89.2534L59.8642 95.7205L57.9346 95.6936L58.733 88.592L58.4682 88.5576C58.418 88.8345 58.3504 89.1148 58.3142 89.3936C58.0969 91.2683 57.8832 93.1453 57.6729 95.0246C57.6411 95.4655 57.6234 95.8629 56.9572 95.5807ZM51.3617 69.2406L51.4972 69.3319L48.0266 79.2409L48.3537 79.3628C48.465 79.0513 48.5746 78.7538 48.7017 78.4301C49.8362 75.3066 50.969 72.1743 52.1175 69.0525C52.2449 68.8012 52.403 68.5666 52.5881 68.3541C51.5367 71.9505 50.3219 75.4519 49.1123 78.9569C49.0851 79.0851 49.0757 79.2164 49.0842 79.3472C49.0842 79.3472 49.1259 79.3753 49.1467 79.3894L49.2739 79.4144C50.6387 75.5441 52.0047 71.6645 53.3719 67.7757C53.4825 68.0578 53.4969 68.3685 53.4129 68.6597C52.8243 70.658 52.1156 72.621 51.6211 74.6372C50.7354 78.2013 49.9908 81.8149 49.2148 85.4074C49.055 86.2218 48.9768 87.05 48.9813 87.8799C48.9398 90.2924 48.5218 92.7012 48.2518 95.1492L46.3576 95.0022C46.7159 93.0306 47.0722 91.1182 47.425 89.2111C46.6535 91.0441 46.2068 92.9974 46.1049 94.9835L45.0944 94.8635C45.4508 92.5798 45.8086 90.3502 46.1578 88.1223L45.8459 88.0789C45.4758 90.3155 45.1022 92.5572 44.7162 94.8512L41.8818 94.4572L42.7383 89.0242L42.4614 88.974C42.4044 89.2161 42.3387 89.4598 42.2957 89.7037C42.078 91.0728 41.8497 92.4802 41.5988 93.8649C41.5631 94.0529 41.36 94.2193 41.2059 94.358L41.0131 94.2281L41.1904 93.2562L40.9972 93.1942C40.9386 93.3995 40.8482 93.5943 40.7294 93.7717C40.5804 93.9365 40.3196 94.1549 40.1489 94.1384C38.202 93.7209 36.257 93.2668 34.2319 92.7967C34.7643 90.8817 35.244 89.0449 35.7166 87.2186L35.4155 87.1369L33.8981 92.6172L32.2096 92.1086C33.063 89.4247 33.9022 86.807 34.7326 84.191L34.428 84.0918L31.8777 91.8926L26.1468 90.6459L30.5989 86.7716C30.2947 88.0217 29.5009 88.8511 29.5741 89.9236L29.8298 90.0277C30.5369 88.5134 31.2486 86.9997 31.9649 85.4865L32.2433 85.6134C31.8834 86.8337 31.144 87.9422 31.0713 89.265C31.3199 89.1477 31.5156 88.9416 31.6198 88.6872C31.9672 87.8678 32.2694 87.0256 32.6465 86.2186C32.9018 85.4541 33.2999 84.7451 33.8195 84.1289C36.2466 81.899 38.776 79.776 41.2534 77.5951C41.3934 77.4773 41.5595 77.377 41.8027 77.2074C41.1973 79.7931 40.0928 82.1184 39.8207 84.6483C40.0585 84.5304 40.241 84.3242 40.329 84.0737C41.1553 81.5989 41.9659 79.1135 42.8132 76.6074C42.9189 76.3637 43.0479 76.1309 43.1984 75.912L43.3776 75.9948L42.0992 80.7267L42.3829 80.8118C42.4626 80.5698 42.5439 80.3366 42.6148 80.0964C43.0105 78.6881 43.3974 77.2814 43.7931 75.8731C43.9088 75.5166 44.1096 75.1937 44.3782 74.9322C44.6468 74.6708 44.975 74.4788 45.3345 74.3727L42.8325 80.8419L43.1022 80.9478C43.1825 80.8191 43.2548 80.6855 43.3186 80.5479C44.1482 78.4618 44.9535 76.3442 45.8317 74.2985C46.1646 73.7367 46.5633 73.2166 47.0195 72.7493L47.2592 72.9109C46.9169 73.7564 46.5781 74.5968 46.2305 75.4388L46.5106 75.5517C46.8756 74.7063 47.4916 73.8708 47.536 73.0064C47.5803 72.142 48.1295 72.1255 48.636 71.5649C47.8286 73.7644 47.1042 75.7394 46.378 77.7057L46.6633 77.8222C46.7655 77.603 46.8677 77.3839 46.9543 77.1542C47.6534 75.3516 48.3266 73.5315 49.0972 71.724C49.3291 71.2956 49.602 70.8906 49.912 70.5147L50.0841 70.6306C49.1462 72.9372 48.448 75.3341 48.0006 77.7834C48.1587 77.6384 48.2701 77.4496 48.3205 77.2411C49.0496 75.0342 49.7351 72.8132 50.5077 70.6205C50.7349 70.1274 51.0217 69.6639 51.3617 69.2406ZM29.8589 79.4899L29.9147 79.8458C31.9716 79.2457 34.1299 79.0747 36.2556 79.3435C34.6888 80.3416 32.7233 79.8055 31.1288 80.7547L35.0624 80.2371C34.0991 81.3708 33.0766 82.4527 31.9992 83.4785C31.8415 83.6106 31.647 83.6912 31.442 83.7093C30.0658 83.8734 28.6931 84.0096 27.3396 84.1738C27.1288 84.2119 26.9215 84.2675 26.7199 84.3399L26.7641 84.5667L31.1699 84.102L31.2712 84.4128C30.8404 84.6771 30.3808 84.8913 29.9013 85.051C28.4408 85.3402 26.9633 85.5422 25.4908 85.7929C25.295 85.8403 25.1025 85.9005 24.9146 85.9731L24.978 86.2053L29.8541 85.4361L29.9052 85.6751C28.57 86.3746 26.9672 86.1663 25.5789 86.6632L25.623 86.9127L28.9899 86.415C27.5974 87.7505 26.3433 88.9594 25.2381 90.026C24.6892 87.14 24.1299 84.247 23.6107 81.3506C23.6057 81.196 23.6356 81.0421 23.6982 80.9006C23.7607 80.7591 23.8543 80.6335 23.9721 80.533C27.9353 77.5193 32.5607 76.6948 37.3728 76.5493C37.8943 76.5663 38.4141 76.6177 38.9288 76.7034C38.3946 77.5637 38.2513 77.6414 37.4162 77.6547C36.2883 77.6527 35.1219 77.6853 34.0008 77.7408C31.9911 77.7857 30.004 78.1745 28.1256 78.8904C27.9457 78.9662 27.7725 79.0769 27.596 79.1702L27.6923 79.4322C30.8247 78.0564 34.1406 78.0169 37.5294 78.0266C37.3856 78.3053 37.1585 78.5322 36.8798 78.6758C36.601 78.8194 36.2844 78.8725 35.974 78.8278C34.9422 78.7812 33.9083 78.8116 32.881 78.919C31.8729 79.0204 30.8553 79.2821 29.8589 79.4899ZM86.4121 44.6324C80.9014 47.8844 75.3288 50.9583 69.9846 54.3906C64.6404 57.823 59.5945 61.5549 54.3994 65.1484C54.4538 64.9398 54.5777 64.756 54.7506 64.6272C57.5177 62.5 60.2854 60.3758 63.0536 58.2545C68.8858 53.7943 75.2285 50.0949 81.3652 46.0824C82.5873 45.3938 83.8495 44.7789 85.1449 44.241C85.2481 44.1705 85.3658 44.1242 85.4892 44.1052C85.6127 44.0862 85.7389 44.0952 85.8584 44.1314C85.978 44.1676 86.0879 44.2301 86.1801 44.3144C86.2723 44.3987 86.3445 44.5026 86.3912 44.6184L86.4121 44.6324ZM53.6075 65.5925L53.7982 65.8044C52.8986 66.5321 51.9955 67.2576 51.089 67.9806L50.9902 67.8686L53.6075 65.5925Z" fill="#007E57"></path><path fill-rule="evenodd" clip-rule="evenodd" d="M46.7988 33.7744C51.7625 33.2915 56.6843 33.8717 61.6143 34.215C56.6949 33.4848 51.7642 32.9289 46.7988 33.7744Z" fill="#007E57"></path><path fill-rule="evenodd" clip-rule="evenodd" d="M71.0137 25.8221C67.4724 24.194 63.9256 22.6303 60.0463 22.0325L71.0137 25.8221Z" fill="#007E57"></path><path fill-rule="evenodd" clip-rule="evenodd" d="M50.6828 22.0369C54.6678 22.4104 58.6462 22.7036 62.4893 23.9288C58.7039 22.303 54.708 22.0358 50.6828 22.0369Z" fill="#007E57"></path><path fill-rule="evenodd" clip-rule="evenodd" d="M46.2109 32.8929L57.7764 33.1066C56.7402 32.5297 47.7391 32.3234 46.2109 32.8929Z" fill="#007E57"></path><path fill-rule="evenodd" clip-rule="evenodd" d="M62.416 29.73L72.1896 35.2239L72.3125 35.0415C69.1908 32.9769 65.9218 31.1441 62.5319 29.558L62.416 29.73Z" fill="#007E57"></path><path fill-rule="evenodd" clip-rule="evenodd" d="M67.0999 49.2112L56.7023 45.1158L56.5717 45.4447L66.9676 49.5314C67.0152 49.427 67.0575 49.3191 67.0999 49.2112Z" fill="#007E57"></path><path fill-rule="evenodd" clip-rule="evenodd" d="M42.3908 59.1798C38.5931 59.6041 34.8308 60.301 31.1331 61.2652C31.14 61.3316 31.1514 61.3974 31.167 61.4623L42.4507 59.4171L42.3908 59.1798Z" fill="#007E57"></path><path fill-rule="evenodd" clip-rule="evenodd" d="M30.8774 62.2297L41.2412 60.7622C40.4362 60.3259 32.4416 61.4041 30.8774 62.2297Z" fill="#007E57"></path><path fill-rule="evenodd" clip-rule="evenodd" d="M84.2988 30.514C83.5196 26.9574 81.2138 24.3504 78.7418 21.8889C80.8624 24.5683 83.2329 27.1129 84.2988 30.514Z" fill="#007E57"></path><path fill-rule="evenodd" clip-rule="evenodd" d="M81.976 32.3974C81.9872 30.1312 78.0296 24.8803 76.3352 23.8068C78.5484 26.45 80.8017 29.0672 81.976 32.3974Z" fill="#007E57"></path><path fill-rule="evenodd" clip-rule="evenodd" d="M35.6865 42.6191L45.0254 42.9091C44.1393 42.312 36.4977 42.135 35.6865 42.6191Z" fill="#007E57"></path><path fill-rule="evenodd" clip-rule="evenodd" d="M34.9447 41.6951L44.168 42.1117C41.1461 41.4016 38.0184 41.2603 34.9447 41.6951Z" fill="#007E57"></path><path fill-rule="evenodd" clip-rule="evenodd" d="M41.461 58.2426C38.4092 58.8238 35.3537 59.4329 32.8849 59.8688L41.442 58.192L41.461 58.2426Z" fill="#007E57"></path><path fill-rule="evenodd" clip-rule="evenodd" d="M73.8109 35.089C71.5264 33.446 69.1096 31.9951 66.5855 30.7511C66.5399 30.8189 66.4977 30.8814 66.4556 30.944L73.6531 35.2782C73.7144 35.221 73.76 35.1532 73.8109 35.089Z" fill="#007E57"></path><path fill-rule="evenodd" clip-rule="evenodd" d="M36.2383 43.734L45.2422 44.0938C42.2913 43.4007 39.2351 43.2786 36.2383 43.734Z" fill="#007E57"></path><path fill-rule="evenodd" clip-rule="evenodd" d="M41.6138 48.129L50.4275 49.5808C50.4489 49.4815 50.4616 49.384 50.4778 49.2812C47.5429 48.7665 44.6332 48.1019 41.6516 47.8816L41.6138 48.129Z" fill="#007E57"></path><path fill-rule="evenodd" clip-rule="evenodd" d="M31.4516 43.0097C28.8908 43.7171 26.3129 44.3598 23.8121 45.2593L23.8875 45.5299L31.563 43.3955L31.4516 43.0097Z" fill="#007E57"></path><path fill-rule="evenodd" clip-rule="evenodd" d="M51.9537 34.6173L60.7442 35.4624C60.1055 34.8805 52.9547 34.1777 51.9537 34.6173Z" fill="#007E57"></path><path fill-rule="evenodd" clip-rule="evenodd" d="M32.4185 62.6539L41.0575 62.0479C40.3088 61.5055 33.1189 62.0193 32.4185 62.6539Z" fill="#007E57"></path><path fill-rule="evenodd" clip-rule="evenodd" d="M43.9722 28.7696L52.4911 28.4994C51.8345 28.0115 45.1816 28.1445 43.9722 28.7696Z" fill="#007E57"></path><path fill-rule="evenodd" clip-rule="evenodd" d="M35.3001 40.3807L43.6383 41.0422C43.0135 40.4621 36.8278 39.9018 35.3001 40.3807Z" fill="#007E57"></path><path fill-rule="evenodd" clip-rule="evenodd" d="M36.6385 44.9511L45.1279 44.9945C43.7817 44.383 37.7413 44.383 36.6385 44.9511Z" fill="#007E57"></path><path fill-rule="evenodd" clip-rule="evenodd" d="M70.234 47.9122C67.782 47.0805 65.2792 46.4067 62.741 45.8951L62.6771 46.1249L70.1543 48.1768C70.1791 48.095 70.2022 48.0045 70.234 47.9122Z" fill="#007E57"></path><path fill-rule="evenodd" clip-rule="evenodd" d="M49.8091 48.4063L42.068 47.2073C42.0535 47.3188 42.039 47.4303 42.0193 47.5383L49.7638 48.7548L49.8091 48.4063Z" fill="#007E57"></path><path fill-rule="evenodd" clip-rule="evenodd" d="M64.7905 36.0367L71.8965 39.1345L72.0322 38.8318L64.9315 35.7149C64.8857 35.8279 64.8381 35.9323 64.7905 36.0367Z" fill="#007E57"></path><path fill-rule="evenodd" clip-rule="evenodd" d="M45.2588 59.6262L53.1271 60.1302C52.4291 59.569 46.7202 59.1557 45.2588 59.6262Z" fill="#007E57"></path><path fill-rule="evenodd" clip-rule="evenodd" d="M29.5506 60.6456L22.1451 62.8179L22.2446 63.1426L29.6501 60.9703L29.5506 60.6456Z" fill="#007E57"></path><path fill-rule="evenodd" clip-rule="evenodd" d="M71.9274 39.9207L64.97 36.7487L64.8342 37.0514L71.7672 40.2372C71.8235 40.1311 71.8711 40.0268 71.9274 39.9207Z" fill="#007E57"></path><path fill-rule="evenodd" clip-rule="evenodd" d="M74.4077 41.7058L79.5212 45.1512L79.623 45L74.52 41.5617C74.4902 41.5946 74.4516 41.652 74.4077 41.7058Z" fill="#007E57"></path><path fill-rule="evenodd" clip-rule="evenodd" d="M78.5086 35.2829L72.8726 31.0383C72.8199 31.1165 72.7708 31.1894 72.6955 31.2449C72.7594 31.368 72.8424 31.4802 72.9414 31.5773C74.5203 32.7548 76.0956 33.9375 77.692 35.0889C77.9005 35.2294 78.2301 35.2013 78.5018 35.248L78.5086 35.2829Z" fill="#007E57"></path><path fill-rule="evenodd" clip-rule="evenodd" d="M72.1543 38.0879C69.996 36.7487 67.6434 35.7516 65.1801 35.132L72.0802 38.2654L72.1543 38.0879Z" fill="#007E57"></path><path fill-rule="evenodd" clip-rule="evenodd" d="M70.9276 27.7724L77.2816 32.0537C75.4878 30.2842 73.6202 28.6242 70.9276 27.7724Z" fill="#007E57"></path><path fill-rule="evenodd" clip-rule="evenodd" d="M74.0888 40.4369L80.4376 44.7147L80.5605 44.5322L74.2013 40.2475C74.1644 40.3135 74.1257 40.3709 74.0888 40.4369Z" fill="#007E57"></path><path fill-rule="evenodd" clip-rule="evenodd" d="M51.678 65.5203L44.7481 64.1858L44.6855 64.5149L51.6222 65.8617C51.6455 65.7485 51.66 65.637 51.678 65.5203Z" fill="#007E57"></path><path fill-rule="evenodd" clip-rule="evenodd" d="M34.135 63.4015L41.3721 62.874C40.4801 62.4094 34.6798 62.8516 34.135 63.4015Z" fill="#007E57"></path><path fill-rule="evenodd" clip-rule="evenodd" d="M61.2055 48.2862L67.4961 50.9407C67.5558 50.8521 67.5825 50.7337 67.6266 50.6346L61.3378 47.9661C61.2955 48.074 61.2479 48.1784 61.2055 48.2862Z" fill="#007E57"></path><path fill-rule="evenodd" clip-rule="evenodd" d="M52.7869 61.5686C52.6045 61.4457 52.4453 61.2096 52.2657 61.2174C50.1962 60.9144 48.1091 60.6374 46.0256 60.3552C45.9089 60.3372 45.7814 60.3802 45.6444 60.5834L52.8006 61.6157L52.7869 61.5686Z" fill="#007E57"></path><path fill-rule="evenodd" clip-rule="evenodd" d="M28.6519 63.5873L22.0218 65.0923L22.0935 65.4134C24.3017 64.9257 26.5116 64.4316 28.7234 63.9311L28.6519 63.5873Z" fill="#007E57"></path><path fill-rule="evenodd" clip-rule="evenodd" d="M51.458 62.6516C49.3211 61.7391 47.0027 61.331 44.6826 61.4591L51.458 62.6516Z" fill="#007E57"></path><path fill-rule="evenodd" clip-rule="evenodd" d="M22.5202 50.27L28.6289 48.4138C27.7555 48.0679 23.0012 49.5786 22.5202 50.27Z" fill="#007E57"></path><path fill-rule="evenodd" clip-rule="evenodd" d="M29.8163 66.0545L23.9175 67.3853L23.8647 67.1375L29.7906 65.9463L29.8163 66.0545Z" fill="#007E57"></path><path fill-rule="evenodd" clip-rule="evenodd" d="M80.0029 24.9214L83.0913 30.0339C83.2924 29.1841 81.462 25.9955 80.0029 24.9214Z" fill="#007E57"></path><path fill-rule="evenodd" clip-rule="evenodd" d="M73.7764 39.3702L79.0671 42.935C77.5742 41.4049 75.8549 40.1136 73.9695 39.1062C73.9046 39.1913 73.8414 39.2851 73.7764 39.3702Z" fill="#007E57"></path><path fill-rule="evenodd" clip-rule="evenodd" d="M26.1874 42.5777L31.9515 41.323L31.8765 40.9844L26.1071 42.2356L26.1874 42.5777Z" fill="#007E57"></path><path fill-rule="evenodd" clip-rule="evenodd" d="M60.0696 57.6995L54.493 56.2687L54.4112 56.5926L59.9791 58.025C60.0075 57.9153 60.0359 57.8056 60.0696 57.6995Z" fill="#007E57"></path><path fill-rule="evenodd" clip-rule="evenodd" d="M59.9077 59.4471C59.9344 59.3211 59.9473 59.1926 59.9462 59.0638C58.1447 58.4866 56.338 57.9286 54.5347 57.3654C54.5046 57.4664 54.4745 57.5674 54.4356 57.67L59.9426 59.4403L59.9077 59.4471Z" fill="#007E57"></path><path fill-rule="evenodd" clip-rule="evenodd" d="M23.3717 66.1151L29.2311 64.9777L29.2158 64.8992L23.3562 66.0593L23.3717 66.1151Z" fill="#007E57"></path><path fill-rule="evenodd" clip-rule="evenodd" d="M63.9605 26.5492L58.531 25.3389L58.4597 25.6697L63.8996 26.8871C63.9176 26.7704 63.9373 26.6624 63.9605 26.5492Z" fill="#007E57"></path><path fill-rule="evenodd" clip-rule="evenodd" d="M44.747 63.2758L50.3765 64.583C50.3944 64.4889 50.414 64.4036 50.4371 64.3131C48.5984 63.7354 46.7181 63.2996 44.8128 63.0094L44.747 63.2758Z" fill="#007E57"></path><path fill-rule="evenodd" clip-rule="evenodd" d="M80.3744 30.8939C79.7585 29.1409 78.6212 27.6182 77.1151 26.5302L80.3744 30.8939Z" fill="#007E57"></path><path fill-rule="evenodd" clip-rule="evenodd" d="M60.6383 30.2984L55.1847 29.0112C55.1598 29.1157 55.1366 29.2289 55.1082 29.3386L60.5547 30.6362C60.5849 30.5125 60.6098 30.4081 60.6383 30.2984Z" fill="#007E57"></path><path fill-rule="evenodd" clip-rule="evenodd" d="M32.4059 48.1168L37.5845 47.5287L37.5513 47.1955L32.3623 47.7767L32.4059 48.1168Z" fill="#007E57"></path><path fill-rule="evenodd" clip-rule="evenodd" d="M38.9409 31.2308L44.5334 31.2094L44.535 30.8695L38.9269 30.8803L38.9409 31.2308Z" fill="#007E57"></path><path fill-rule="evenodd" clip-rule="evenodd" d="M45.8345 25.735L51.0107 25.274C50.2044 24.7611 47.041 25.0018 45.8345 25.735Z" fill="#007E57"></path><path fill-rule="evenodd" clip-rule="evenodd" d="M82.4458 36.1321L79.7742 31.6946C79.6763 31.7499 79.5784 31.8052 79.4858 31.864L82.1417 36.2909C82.2448 36.2392 82.3303 36.2134 82.4458 36.1321Z" fill="#007E57"></path><path fill-rule="evenodd" clip-rule="evenodd" d="M71.0852 49.3041L66.292 47.7343L66.1858 48.0719L70.9807 49.6505L71.0852 49.3041Z" fill="#007E57"></path><path fill-rule="evenodd" clip-rule="evenodd" d="M54.9111 45.3563L50.1762 43.9925C50.5465 44.5452 54.0748 45.6189 54.9111 45.3563Z" fill="#007E57"></path><path fill-rule="evenodd" clip-rule="evenodd" d="M38.437 47.8607L33.8045 48.3696L33.836 48.694L38.4632 48.2042C38.4499 48.0891 38.4417 47.9775 38.437 47.8607Z" fill="#007E57"></path><path fill-rule="evenodd" clip-rule="evenodd" d="M64.3607 15.6175L68.9226 16.7208L69.0009 16.4021L64.4495 15.2833L64.3607 15.6175Z" fill="#007E57"></path><path fill-rule="evenodd" clip-rule="evenodd" d="M44.0621 29.816L39.4098 29.7129L39.4011 30.0633L44.0429 30.1593L44.0621 29.816Z" fill="#007E57"></path><path fill-rule="evenodd" clip-rule="evenodd" d="M77.8359 31.6694L74.3485 28.6451C74.2888 28.7337 74.203 28.8048 74.1329 28.8864L77.6166 31.9385C77.6938 31.8465 77.7622 31.7562 77.8359 31.6694Z" fill="#007E57"></path><path fill-rule="evenodd" clip-rule="evenodd" d="M74.8633 46.2946L70.7092 44.1474C70.6495 44.236 70.5898 44.3247 70.5526 44.436L74.7049 46.5972L74.8633 46.2946Z" fill="#007E57"></path><path fill-rule="evenodd" clip-rule="evenodd" d="M65.7254 45.8522L70.2484 46.7094L70.3075 46.3855L65.8055 45.5196L65.7254 45.8522Z" fill="#007E57"></path><path fill-rule="evenodd" clip-rule="evenodd" d="M54.905 55.7356L59.4279 56.6155L59.4941 56.2811L54.9695 55.3925C54.9462 55.5057 54.9125 55.6345 54.905 55.7356Z" fill="#007E57"></path><path fill-rule="evenodd" clip-rule="evenodd" d="M84.7214 37.7488L83.3139 33.9886C83.2126 34.0265 83.1148 34.0591 83.0188 34.1005L84.3932 37.8535C84.5049 37.8227 84.629 37.7623 84.7214 37.7488Z" fill="#007E57"></path><path fill-rule="evenodd" clip-rule="evenodd" d="M54.0407 51.8788L57.8179 53.0217L57.9189 52.7032L54.1452 51.555C54.1028 51.6629 54.0691 51.7691 54.0407 51.8788Z" fill="#007E57"></path><path fill-rule="evenodd" clip-rule="evenodd" d="M55.4218 46.0491L59.2066 47.417C59.2663 47.3284 59.2843 47.2116 59.318 47.1055L55.5401 45.7272C55.4909 45.8228 55.4537 45.9342 55.4218 46.0491Z" fill="#007E57"></path><path fill-rule="evenodd" clip-rule="evenodd" d="M55.818 44.8762L52.0232 43.7593C51.9982 43.8638 51.9681 43.9647 51.938 44.0657L55.7222 45.1982C55.7646 45.0903 55.793 44.9807 55.818 44.8762Z" fill="#007E57"></path><path fill-rule="evenodd" clip-rule="evenodd" d="M55.4006 54.6973L59.1347 55.3868L59.1903 55.0681L55.4249 54.3575L55.4006 54.6973Z" fill="#007E57"></path><path fill-rule="evenodd" clip-rule="evenodd" d="M70.7577 30.6897L67.4028 28.7399C67.3466 28.8233 67.2869 28.912 67.2272 29.0006L70.5767 30.9695C70.6469 30.8879 70.7049 30.7905 70.7577 30.6897Z" fill="#007E57"></path><path fill-rule="evenodd" clip-rule="evenodd" d="M64.0432 27.348L60.4322 26.4308L60.354 26.7494L63.9597 27.6631C63.9864 27.5674 64.0148 27.4577 64.0432 27.348Z" fill="#007E57"></path><path fill-rule="evenodd" clip-rule="evenodd" d="M48.3794 58.4701L44.8436 58.5661L44.8473 58.8868L48.3759 58.824L48.3794 58.4701Z" fill="#007E57"></path><path fill-rule="evenodd" clip-rule="evenodd" d="M76.6914 27.5409L78.669 30.23C78.753 30.1729 78.8405 30.1106 78.9227 30.0447L76.9592 27.3348C76.8786 27.4093 76.7824 27.4734 76.6914 27.5409Z" fill="#007E57"></path><path fill-rule="evenodd" clip-rule="evenodd" d="M26.0167 41.4698L29.371 40.6984L29.2925 40.365L25.968 41.1035L26.0167 41.4698Z" fill="#007E57"></path><path fill-rule="evenodd" clip-rule="evenodd" d="M70.664 43.1465L73.6236 44.648L73.7715 44.3611L70.8118 42.8596L70.664 43.1465Z" fill="#007E57"></path><path fill-rule="evenodd" clip-rule="evenodd" d="M82.1452 29.2673C81.7132 28.232 81.0624 27.3023 80.2375 26.542C80.1989 26.5993 80.1186 26.6286 80.0539 26.6683L81.9773 29.3816L82.1452 29.2673Z" fill="#007E57"></path><path fill-rule="evenodd" clip-rule="evenodd" d="M46.8085 29.7109L50.0978 29.3959C50.0948 29.2878 50.0832 29.1814 50.0715 29.075L46.7788 29.3726L46.8085 29.7109Z" fill="#007E57"></path><path fill-rule="evenodd" clip-rule="evenodd" d="M84.0772 34.0708L84.8249 37.2804L85.1618 37.1966L84.4209 33.9993C84.2971 34.0144 84.1854 34.0452 84.0772 34.0708Z" fill="#007E57"></path><path fill-rule="evenodd" clip-rule="evenodd" d="M64.5839 31.6531L61.7277 30.4031L61.5955 30.7005L64.4447 31.961L64.5839 31.6531Z" fill="#007E57"></path><path fill-rule="evenodd" clip-rule="evenodd" d="M56.3258 61.5807C55.9973 61.2553 55.6062 60.9999 55.1762 60.83C54.7461 60.6601 54.2861 60.5792 53.8239 60.5922L56.1818 61.7944L56.3258 61.5807Z" fill="#007E57"></path><path fill-rule="evenodd" clip-rule="evenodd" d="M40.2513 33.5157L43.3373 33.4349L43.3371 33.109L40.2113 33.1476L40.2513 33.5157Z" fill="#007E57"></path><path fill-rule="evenodd" clip-rule="evenodd" d="M57.847 52.0108L55.0432 51.0766L54.9388 51.3777L57.7181 52.3257C57.7465 52.2387 57.8081 52.1135 57.847 52.0108Z" fill="#007E57"></path><path fill-rule="evenodd" clip-rule="evenodd" d="M32.332 72.3652L35.0969 71.6362L35.1344 71.8055L32.359 72.5501L32.332 72.3652Z" fill="#007E57"></path><path fill-rule="evenodd" clip-rule="evenodd" d="M64.0198 24.3687L66.664 25.5061L66.7627 25.2922C65.9544 24.7642 65.0672 24.3685 64.1344 24.12C64.0817 24.1982 64.0325 24.2712 64.0198 24.3687Z" fill="#007E57"></path><path fill-rule="evenodd" clip-rule="evenodd" d="M73.7504 18.4424L76.3566 20.1984C76.3953 20.1411 76.4339 20.0837 76.469 20.0316C75.6699 19.3505 74.8091 18.7451 73.8979 18.2234C73.8539 18.2999 73.8136 18.3485 73.7504 18.4424Z" fill="#007E57"></path><path fill-rule="evenodd" clip-rule="evenodd" d="M49.9667 25.8896L47.2266 26.1655L47.2582 26.4899L49.9982 26.214L49.9667 25.8896Z" fill="#007E57"></path><path fill-rule="evenodd" clip-rule="evenodd" d="M60.5689 20.6038L57.8482 20.1424L57.7943 20.4699L60.508 20.9417L60.5689 20.6038Z" fill="#007E57"></path><path fill-rule="evenodd" clip-rule="evenodd" d="M76.5156 28.5669L74.6287 27.2955L74.5093 27.4728L76.3962 28.7441L76.5156 28.5669Z" fill="#007E57"></path><path fill-rule="evenodd" clip-rule="evenodd" d="M81.8126 37.6002L80.5617 35.666L80.2872 35.8373L81.5415 37.7889L81.8126 37.6002Z" fill="#007E57"></path><path fill-rule="evenodd" clip-rule="evenodd" d="M46.1627 30.6927L48.3328 30.3965L48.2925 30.0738L46.1189 30.3752L46.1627 30.6927Z" fill="#007E57"></path><path fill-rule="evenodd" clip-rule="evenodd" d="M36.3183 32.7833L38.4632 32.2883L38.383 31.9462L36.2363 32.4552L36.3183 32.7833Z" fill="#007E57"></path><path fill-rule="evenodd" clip-rule="evenodd" d="M53.663 27.2884L51.467 27.173L51.4532 27.4972L53.6492 27.6125L53.663 27.2884Z" fill="#007E57"></path><path fill-rule="evenodd" clip-rule="evenodd" d="M63.0911 18.3465L65.006 18.8789L65.0859 18.5916L63.1709 18.0592L63.0911 18.3465Z" fill="#007E57"></path><path fill-rule="evenodd" clip-rule="evenodd" d="M71.5543 17.1451L69.7623 16.4302C69.7026 16.5188 69.6741 16.6285 69.6388 16.726L71.4273 17.446C71.4662 17.3433 71.5102 17.2442 71.5543 17.1451Z" fill="#007E57"></path><path fill-rule="evenodd" clip-rule="evenodd" d="M64.5157 93.777C64.5482 86.9595 65.2148 80.1598 66.5069 73.4657C64.8476 80.1013 64.1767 86.9455 64.5157 93.777Z" fill="#007E57"></path><path fill-rule="evenodd" clip-rule="evenodd" d="M89.9799 63.756C91.1881 61.2429 88.2332 47.7775 86.1327 46.3394C88.6533 51.8005 89.9656 57.7413 89.9799 63.756Z" fill="#007E57"></path><path fill-rule="evenodd" clip-rule="evenodd" d="M62.9066 90.2372C63.4489 83.9569 64.3832 77.7166 65.7039 71.5528C64.0214 77.6453 63.0822 83.919 62.9066 90.2372Z" fill="#007E57"></path><path fill-rule="evenodd" clip-rule="evenodd" d="M64.714 71.5602C63.2728 77.5011 62.0493 83.4675 62.3798 89.6472C62.4308 83.5199 63.6073 77.5446 64.714 71.5602Z" fill="#007E57"></path><path fill-rule="evenodd" clip-rule="evenodd" d="M57.5238 80.9716C58.0806 75.511 59.8805 70.365 61.5289 65.1852C60.2346 66.42 57.0139 79.0288 57.5238 80.9716Z" fill="#007E57"></path><path fill-rule="evenodd" clip-rule="evenodd" d="M53.0657 74.3829C52.2206 78.4568 51.3731 82.5341 50.5233 86.615L50.8541 86.6863C51.6993 82.6124 52.5485 78.5362 53.4018 74.4577L53.0657 74.3829Z" fill="#007E57"></path><path fill-rule="evenodd" clip-rule="evenodd" d="M98.3887 61.4335C97.8632 57.343 96.9693 53.3605 94.8603 49.7416C96.5991 53.4825 97.5227 57.4546 98.3887 61.4335Z" fill="#007E57"></path><path fill-rule="evenodd" clip-rule="evenodd" d="M66.8498 80.6844C66.0656 84.6003 65.851 88.6088 66.2126 92.586L66.8498 80.6844Z" fill="#007E57"></path><path fill-rule="evenodd" clip-rule="evenodd" d="M53.2701 81.6828C52.6661 85.4139 51.9505 89.1305 51.6129 92.9047L51.869 92.9408C52.4324 89.2026 52.9976 85.4655 53.5645 81.7296L53.2701 81.6828Z" fill="#007E57"></path><path fill-rule="evenodd" clip-rule="evenodd" d="M53.1619 79.2906C52.3449 82.4927 51.7091 85.7384 51.2575 89.0121L51.517 89.0657C52.1408 85.8228 52.7656 82.5857 53.3916 79.3545L53.1619 79.2906Z" fill="#007E57"></path><path fill-rule="evenodd" clip-rule="evenodd" d="M53.7256 83.9984L52.5949 93.0891L52.9294 93.1326L54.0601 84.0418L53.7256 83.9984Z" fill="#007E57"></path><path fill-rule="evenodd" clip-rule="evenodd" d="M67.5024 92.5609L67.3009 83.5351L67.0429 83.5356C66.9339 86.5544 67.0638 89.5674 67.239 92.5806L67.5024 92.5609Z" fill="#007E57"></path><path fill-rule="evenodd" clip-rule="evenodd" d="M68.6202 92.23L68.3863 83.4324L68.0568 83.4377C68.1434 86.3761 68.2133 89.3057 68.2664 92.2265L68.6202 92.23Z" fill="#007E57"></path><path fill-rule="evenodd" clip-rule="evenodd" d="M69.5127 91.816L69.2809 83.2851L68.9479 83.2957L69.1762 91.8317L69.5127 91.816Z" fill="#007E57"></path><path fill-rule="evenodd" clip-rule="evenodd" d="M82.1245 74.8864C81.8195 77.7125 81.5342 80.4305 81.2415 83.227C81.8376 82.5448 82.5432 75.8734 82.1245 74.8864Z" fill="#007E57"></path><path fill-rule="evenodd" clip-rule="evenodd" d="M74.6524 60.4086L74.3658 53.4551C73.9657 53.9813 74.0704 59.2813 74.6524 60.4086Z" fill="#007E57"></path><path fill-rule="evenodd" clip-rule="evenodd" d="M80.6614 71.1644L80.2061 77.9818L80.5459 78.0061C80.6953 75.7371 80.8425 73.4641 80.9873 71.1869L80.6614 71.1644Z" fill="#007E57"></path><path fill-rule="evenodd" clip-rule="evenodd" d="M59.4681 67.0403C58.4604 69.0314 57.8253 71.19 57.5942 73.4096L59.6088 67.1351L59.4681 67.0403Z" fill="#007E57"></path><path fill-rule="evenodd" clip-rule="evenodd" d="M87.1775 63.7317L86.2743 70.505L86.4886 70.5357C87.018 68.3129 87.3309 66.044 87.4231 63.7608L87.1775 63.7317Z" fill="#007E57"></path><path fill-rule="evenodd" clip-rule="evenodd" d="M92.3031 61.3879C92.1718 59.2091 91.825 57.0486 91.2679 54.938L91.0132 54.9786L92.0765 61.3868L92.3031 61.3879Z" fill="#007E57"></path><path fill-rule="evenodd" clip-rule="evenodd" d="M70.2684 78.5691C70.2511 80.6644 70.2333 82.7568 70.2149 84.8463L70.5461 84.8497L70.61 78.5795L70.2684 78.5691Z" fill="#007E57"></path><path fill-rule="evenodd" clip-rule="evenodd" d="M83.007 60.9221L82.4616 54.825L82.132 54.853L82.6703 60.9605L83.007 60.9221Z" fill="#007E57"></path><path fill-rule="evenodd" clip-rule="evenodd" d="M68.2929 82.9298L68.549 76.9256L68.2022 76.9117L67.9531 82.9055L68.2929 82.9298Z" fill="#007E57"></path><path fill-rule="evenodd" clip-rule="evenodd" d="M86.7962 81.6645L87.9526 75.8651L87.6322 75.8008C87.2473 77.7292 86.8607 79.6565 86.4724 81.5827L86.7962 81.6645Z" fill="#007E57"></path><path fill-rule="evenodd" clip-rule="evenodd" d="M94.1222 57.4292L94.4597 63.2499L94.6829 63.2335C94.8048 61.2852 94.6926 59.3293 94.3489 57.4077L94.1222 57.4292Z" fill="#007E57"></path><path fill-rule="evenodd" clip-rule="evenodd" d="M79.6868 55.221L79.8457 60.4968L80.1665 60.4932L80.0234 55.2052L79.6868 55.221Z" fill="#007E57"></path><path fill-rule="evenodd" clip-rule="evenodd" d="M77.7632 61.4053L77.5164 55.9338L77.1886 55.9479L77.4354 61.4194L77.7632 61.4053Z" fill="#007E57"></path><path fill-rule="evenodd" clip-rule="evenodd" d="M69.5119 82.0764C69.6172 80.5028 69.7261 78.9239 69.8262 77.3468L69.4916 77.3259C69.3828 78.9048 69.2791 80.4872 69.1667 82.0712L69.5119 82.0764Z" fill="#007E57"></path><path fill-rule="evenodd" clip-rule="evenodd" d="M54.539 87.0774L53.9836 91.5461L54.2919 91.5947C54.4747 90.1011 54.6581 88.6103 54.8421 87.1225L54.539 87.0774Z" fill="#007E57"></path><path fill-rule="evenodd" clip-rule="evenodd" d="M83.1831 73.3489C83.044 74.68 82.9502 76.0341 82.8268 77.3758L83.1405 77.4052L83.516 73.361L83.1831 73.3489Z" fill="#007E57"></path><path fill-rule="evenodd" clip-rule="evenodd" d="M95.8425 63.0526L95.4987 59.221L95.1813 59.2421L95.4885 63.0718L95.8425 63.0526Z" fill="#007E57"></path><path fill-rule="evenodd" clip-rule="evenodd" d="M95.3784 68.2191L94.9308 72.4042L95.2548 72.4407C95.436 71.0469 95.5492 69.6529 95.7025 68.2556L95.3784 68.2191Z" fill="#007E57"></path><path fill-rule="evenodd" clip-rule="evenodd" d="M69.7431 66.9984L70.173 63.2334L69.8298 63.1916C69.6946 64.4495 69.556 65.7052 69.4138 66.9584L69.7431 66.9984Z" fill="#007E57"></path><path fill-rule="evenodd" clip-rule="evenodd" d="M55.2309 91.765L55.7506 88.1817L55.4248 88.1365L54.8929 91.7267L55.2309 91.765Z" fill="#007E57"></path><path fill-rule="evenodd" clip-rule="evenodd" d="M71.0137 58.9038L71.1395 55.6463L70.8101 55.629L70.6755 58.8882L71.0137 58.9038Z" fill="#007E57"></path><path fill-rule="evenodd" clip-rule="evenodd" d="M55.1793 84.8788L55.6182 81.7641L55.3099 81.7155L54.8483 84.8301L55.1793 84.8788Z" fill="#007E57"></path><path fill-rule="evenodd" clip-rule="evenodd" d="M82.7922 73.8734L83.1735 70.7653L82.8355 70.7271C82.7119 71.7654 82.5865 72.8026 82.4594 73.8387C82.5709 73.8532 82.6824 73.8677 82.7922 73.8734Z" fill="#007E57"></path><path fill-rule="evenodd" clip-rule="evenodd" d="M88.826 75.8851C88.6499 76.9564 88.4686 78.0241 88.289 79.1005L88.6077 79.1561L89.1622 75.9373L88.826 75.8851Z" fill="#007E57"></path><path fill-rule="evenodd" clip-rule="evenodd" d="M90.0931 79.179C90.2443 78.2123 90.3867 77.2472 90.5327 76.2769L90.2052 76.223L89.7656 79.1251L90.0931 79.179Z" fill="#007E57"></path><path fill-rule="evenodd" clip-rule="evenodd" d="M70.722 92.3501L70.5477 89.5043L70.2425 89.5185L70.3959 92.3729L70.722 92.3501Z" fill="#007E57"></path><path fill-rule="evenodd" clip-rule="evenodd" d="M70.0811 85.3704L70.3471 88.0127L70.668 87.9864C70.5939 87.0952 70.5163 86.2093 70.4475 85.3216L70.0811 85.3704Z" fill="#007E57"></path><path fill-rule="evenodd" clip-rule="evenodd" d="M56.2793 85.9459L56.6669 83.3346L56.3359 83.286L55.9622 85.899L56.2793 85.9459Z" fill="#007E57"></path><path fill-rule="evenodd" clip-rule="evenodd" d="M57.184 88.4275C57.3137 87.56 57.4522 86.6908 57.5855 85.8181L57.2685 85.7712C57.13 86.6404 56.988 87.5148 56.8512 88.3928C56.9401 88.3845 57.0516 88.399 57.184 88.4275Z" fill="#007E57"></path><path fill-rule="evenodd" clip-rule="evenodd" d="M90.8601 71.7758L90.4252 74.0748L90.7578 74.1322L91.1771 71.8227L90.8601 71.7758Z" fill="#007E57"></path><path fill-rule="evenodd" clip-rule="evenodd" d="M96.7285 70.5459C96.7838 69.9239 96.8148 69.293 96.8962 68.6884L96.5721 68.652C96.5116 69.2706 96.4823 69.9102 96.4009 70.5147L96.7285 70.5459Z" fill="#007E57"></path><path fill-rule="evenodd" clip-rule="evenodd" d="M39.4397 80.1175C38.548 83.968 37.6587 87.8151 36.7717 91.6586L37.1042 91.7387C37.9924 87.901 38.8823 84.0644 39.7739 80.229L39.4397 80.1175Z" fill="#007E57"></path><path fill-rule="evenodd" clip-rule="evenodd" d="M39.0936 86.6599C38.7508 88.5409 38.404 90.4242 38.053 92.3099L38.377 92.369L39.435 86.7156L39.0936 86.6599Z" fill="#007E57"></path><path fill-rule="evenodd" clip-rule="evenodd" d="M38.0015 81.5887L36.4938 86.5147L36.8158 86.6104L38.3027 81.6704L38.0015 81.5887Z" fill="#007E57"></path><path fill-rule="evenodd" clip-rule="evenodd" d="M43.607 93.8312C43.9273 92.2685 44.2453 90.7017 44.561 89.1308L44.2405 89.0665L43.2743 93.7738L43.607 93.8312Z" fill="#007E57"></path><path fill-rule="evenodd" clip-rule="evenodd" d="M33.8542 89.7685L35.2834 85.5551L34.9684 85.449L33.5322 89.6501L33.8542 89.7685Z" fill="#007E57"></path><path fill-rule="evenodd" clip-rule="evenodd" d="M45.0582 78.3025C44.5587 79.6737 44.0563 81.0455 43.551 82.4179L43.8729 82.5362C44.366 81.1632 44.8678 79.7885 45.3662 78.419L45.0582 78.3025Z" fill="#007E57"></path><path fill-rule="evenodd" clip-rule="evenodd" d="M40.7063 89.2618L40.1984 92.5802L40.5242 92.6254C40.7022 91.5175 40.8715 90.4114 41.0443 89.3L40.7063 89.2618Z" fill="#007E57"></path><path fill-rule="evenodd" clip-rule="evenodd" d="M41.343 86.9777C41.629 85.8896 41.9115 84.8067 42.1923 83.7151L41.8667 83.6246L41.0333 86.8524L41.343 86.9777Z" fill="#007E57"></path><path fill-rule="evenodd" clip-rule="evenodd" d="M39.7055 91.3314L40.2192 88.2518L39.9057 88.1997C39.7298 89.2257 39.5557 90.2376 39.3537 91.2686L39.7055 91.3314Z" fill="#007E57"></path><path fill-rule="evenodd" clip-rule="evenodd" d="M47.5681 94.8251L47.8659 91.7061L47.547 91.6732L47.2284 94.7781L47.5681 94.8251Z" fill="#007E57"></path><path fill-rule="evenodd" clip-rule="evenodd" d="M35.9541 90.9712L36.7041 88.0584L36.3698 87.9696L35.639 90.8877L35.9541 90.9712Z" fill="#007E57"></path><path fill-rule="evenodd" clip-rule="evenodd" d="M48.9355 82.9533C49.2025 82.1858 49.4695 81.4183 49.7278 80.6526L49.4354 80.5465C49.1684 81.314 48.8997 82.0728 48.6431 82.8472L48.9355 82.9533Z" fill="#007E57"></path><path fill-rule="evenodd" clip-rule="evenodd" d="M43.8277 84.7638L43.4678 87.0527L43.7901 87.103L44.1605 84.7985L43.8277 84.7638Z" fill="#007E57"></path><path fill-rule="evenodd" clip-rule="evenodd" d="M45.2963 85.3062L44.6847 87.3951L44.9963 87.4838C45.2054 86.791 45.4093 86.0947 45.634 85.4125L45.2963 85.3062Z" fill="#007E57"></path><path fill-rule="evenodd" clip-rule="evenodd" d="M46.7368 78.8266C46.5713 79.5109 46.3971 80.1969 46.2317 80.8812L46.5224 80.9558C46.7018 80.2733 46.8777 79.5961 47.0519 78.9101L46.7368 78.8266Z" fill="#007E57"></path><path fill-rule="evenodd" clip-rule="evenodd" d="M29.6462 82.2344L25.6183 82.7794L25.5844 82.5823L29.6295 82.0792L29.6462 82.2344Z" fill="#007E57"></path><path fill-rule="evenodd" clip-rule="evenodd" d="M30.1439 82.7216L26.7543 83.5678L26.6929 83.2991L30.0773 82.4266L30.1439 82.7216Z" fill="#007E57"></path></g><defs><clipPath id="clip0_208_3482"><rect width="81.0678" height="91.1118" fill="white" transform="matrix(-0.829316 -0.55878 -0.55878 0.829316 118.143 45.2991)"></rect></clipPath></defs></svg>