<svg xmlns="http://www.w3.org/2000/svg" width="149" height="192" viewBox="0 0 149 192" fill="none"><g opacity="0.12" clip-path="url(#clip0_208_3640)"><path fill-rule="evenodd" clip-rule="evenodd" d="M36.3601 53.63C36.2695 52.7657 36.0504 51.9197 35.7101 51.12C34.4033 48.8913 32.9149 46.7741 31.2601 44.79C24.5401 37.39 22.7101 28.34 22.3901 18.84C22.2001 13.25 24.9601 8.66002 28.5201 4.57002C29.2024 3.93316 30.0799 3.54553 31.0101 3.47002C32.9301 3.28002 34.8901 3.40002 36.8201 3.29002C38.7501 3.18002 40.8201 3.00002 42.8701 2.79002C44.0001 2.67002 44.5401 3.11002 44.4201 4.22002C44.2501 5.77002 43.9301 7.29002 43.8001 8.84002C43.5301 12.09 43.3001 15.36 43.1401 18.62C43.1123 19.4837 43.2307 20.3458 43.4901 21.17C43.6201 21.63 44.1001 22 44.4201 22.42C44.8101 22.05 45.4201 21.74 45.5501 21.3C45.833 20.267 45.9776 19.2011 45.9801 18.13C45.9801 16.02 45.7701 13.92 45.6901 11.81C45.5001 6.98003 48.1401 3.61002 51.5201 0.670023C52.0836 0.27923 52.7545 0.0730686 53.4401 0.0800225C58.4901 -0.0699775 63.5201 -0.169976 68.4401 1.39002C71.0201 2.20002 71.4401 3.31002 69.5801 5.30002C64.5997 10.5895 60.9162 16.9637 58.8201 23.92C57.4815 28.3559 57.0964 33.0248 57.6901 37.62C57.7559 38.264 57.8832 38.9003 58.0701 39.52C58.1618 39.8881 58.3423 40.2282 58.5959 40.5103C58.8495 40.7925 59.1684 41.0082 59.5247 41.1384C59.881 41.2687 60.2638 41.3096 60.6395 41.2576C61.0153 41.2056 61.3726 41.0622 61.6801 40.84C62.9688 40.0308 63.9534 38.8177 64.4801 37.39C66.871 31.891 68.5998 26.1272 69.6301 20.22C70.5101 14.97 71.9301 9.94002 75.6301 5.89002C76.7001 4.72002 77.8701 3.63002 79.0401 2.55002C79.349 2.24345 79.7533 2.05154 80.1861 2.00608C80.6189 1.96062 81.0543 2.06432 81.4201 2.30002C87.8001 5.60002 94.5301 8.25002 100.32 12.62C100.49 12.75 100.68 12.85 100.86 12.97C102.86 14.36 102.92 15.14 100.97 16.69C96.5114 20.0331 92.4811 23.9123 88.9701 28.24C85.2946 33.0092 82.8216 38.5932 81.7601 44.52C81.4901 46.1696 81.5995 47.8591 82.0801 49.46C82.7801 51.79 84.3401 52.26 86.5501 51.24C90.5168 49.3174 93.9507 46.4501 96.5501 42.89C100.29 38.0034 103.957 33.07 107.55 28.09C110.363 24.3206 113.708 20.9791 117.48 18.17C118.94 17.04 120.07 17.61 120.16 19.62C120.271 23.1216 121.091 26.5643 122.57 29.74C123.9 32.53 125.64 35.13 127 37.91C129.79 43.63 132.42 49.44 135.17 55.19C136.78 58.56 138.4 61.94 140.17 65.19C142.081 68.4843 144.697 71.3152 147.83 73.48C148.004 73.6142 148.171 73.7577 148.33 73.91C146.79 74.91 145.22 75.71 143.8 76.77C141.57 78.45 139.36 80.18 137.28 82.05C131.19 87.5 124.69 92.22 116.77 94.73C112.39 96.12 107.93 95.93 103.45 95.73C101.81 95.66 100.19 95.36 98.5501 95.3C98.0273 95.3068 97.5184 95.1321 97.1099 94.8057C96.7015 94.4793 96.4188 94.0214 96.3101 93.51C96.0197 92.538 95.9012 91.5228 95.9601 90.51C96.2401 87.44 95.4801 84.51 94.8201 81.58C94.6667 81.0167 94.3522 80.5104 93.9152 80.1231C93.4783 79.7359 92.9378 79.4846 92.3601 79.4C91.1901 79.18 90.5101 79.99 90.0201 80.88C87.7801 85.02 88.3601 89.11 90.3701 93.12C91.3201 95.01 91.2201 95.48 89.1501 95.95C84.7191 96.9137 80.1714 97.227 75.6501 96.88C72.6001 96.67 69.5601 96.26 66.5101 95.99C65.818 95.9814 65.1502 95.7338 64.6199 95.2891C64.0895 94.8444 63.7293 94.23 63.6001 93.55C62.947 91.2624 62.947 88.8377 63.6001 86.55C64.3401 83.8 65.1001 81.06 65.8201 78.31C66.3239 76.7348 66.2958 75.0377 65.7401 73.48C65.6153 73.0806 65.3839 72.7227 65.0708 72.4451C64.7576 72.1674 64.3747 71.9804 63.9632 71.9043C63.5517 71.8282 63.1272 71.8658 62.7354 72.013C62.3437 72.1603 61.9996 72.4117 61.7401 72.74C60.1879 74.3666 58.9775 76.2878 58.1806 78.3901C57.3836 80.4925 57.0162 82.7333 57.1001 84.98C57.1074 87.424 58.0194 89.7787 59.6601 91.59C60.0055 92.0919 60.2845 92.6365 60.4901 93.21C59.9201 93.46 59.3601 93.73 58.7801 93.94C58.382 94.0271 57.9772 94.0806 57.5701 94.1C58.5701 95.85 59.5101 97.53 60.5201 99.15C65.2201 106.63 69.6601 114.29 74.7401 121.5C80.8201 130.13 87.2601 138.5 93.9001 146.72C101.37 155.93 109.14 164.9 116.96 173.81C121.22 178.65 125.87 183.16 130.35 187.81C130.59 188.06 130.84 188.3 131.06 188.56C131.71 189.33 131.5 189.95 130.61 190.25C128.777 190.87 126.93 191.43 125.07 191.93C124.866 191.93 124.664 191.888 124.477 191.807C124.289 191.727 124.12 191.608 123.98 191.46C119.84 187.63 115.47 184.01 111.67 179.87C104.26 171.81 96.9501 163.64 90.0301 155.16C84.6501 148.56 79.9501 141.39 74.8601 134.53C66.2401 122.9 59.3801 110.19 52.1601 97.7C50.7901 95.33 49.3501 93.78 46.4801 93.27C42.1201 92.51 37.8501 91.18 33.5301 90.15C32.3089 89.8862 31.0735 89.6926 29.8301 89.57C27.9301 89.33 27.4801 88.57 28.4301 86.88C30.1022 83.9578 32.2098 81.3074 34.6801 79.02C37.3401 76.51 39.8901 73.88 42.4801 71.29C42.7232 71.0486 42.938 70.7802 43.1201 70.49C43.7101 69.58 44.3901 68.66 43.6101 67.49C43.235 66.9304 42.6861 66.5096 42.0481 66.2928C41.4102 66.0759 40.7187 66.075 40.0801 66.29C37.187 67.3165 34.5716 69.0008 32.4401 71.21C29.7893 73.7488 27.606 76.7344 25.9901 80.03C25.4401 81.19 24.6301 81.34 23.4401 81.03C18.7101 79.71 14.9001 77.03 11.2201 73.81C8.51011 71.47 5.32014 69.68 2.34014 67.64C1.74133 67.3116 1.1754 66.9265 0.650134 66.49C0.465327 66.354 0.311326 66.1805 0.198199 65.9809C0.0850722 65.7812 0.0153511 65.5599 -0.00636002 65.3315C-0.0280711 65.1031 -0.00130025 64.8726 0.0721922 64.6552C0.145685 64.4378 0.264248 64.2384 0.420123 64.07C3.90012 59.87 7.81012 56.25 12.9801 54.18C16.9301 52.6 21.0501 52.5 25.2001 52.67C27.2127 52.8067 29.2159 53.0571 31.2001 53.42C32.7701 53.68 34.3301 54.06 35.8901 54.42L36.3601 53.63ZM59.4501 107.4C59.6701 107.81 59.8701 108.22 60.1001 108.62C66.2701 119.83 73.7201 130.18 81.2301 140.48C89.1391 151.42 97.6978 161.876 106.86 171.79C112.6 177.94 118.29 184.12 124.78 189.5C125.63 190.2 125.62 190.21 126.57 189.43L116.78 179.94L117.05 179.64C117.311 179.819 117.561 180.013 117.8 180.22C120.8 183.08 123.8 185.94 126.8 188.79C127.109 189.006 127.446 189.181 127.8 189.31L128.14 188.85C114.184 176.44 101.404 162.769 89.9601 148.01C99.1101 158.13 107.51 168.94 117.69 178.11C105.81 165.33 94.6901 151.87 83.9601 138.11C73.2301 124.35 64.6501 109.16 55.8601 94.11L55.4801 94.33L58.0201 98.72L57.6501 98.95L54.5301 94.07L54.1901 94.3L59.0801 102.87L58.6801 103.11L53.3401 94.11L52.9401 94.36L58.3601 103.61L57.9201 103.86L52.1201 94.15L51.6901 94.41C54.2901 98.73 56.8968 103.063 59.5101 107.41L59.4501 107.4ZM20.3001 78.27H20.2501L22.2501 79.27C22.9301 77.69 23.4901 76.27 24.1201 74.93C24.7501 73.59 25.4301 72.31 26.1201 71L26.4901 71.18L22.7301 79.4C24.2501 80.08 24.2401 80.08 24.3001 78.88C24.3354 78.7134 24.3997 78.5543 24.4901 78.41C26.6507 73.5958 29.2872 69.0097 32.3601 64.72C32.6601 64.31 33.0301 63.95 33.3601 63.57L33.6801 63.83C30.8101 67.6155 28.3559 71.6991 26.3601 76.01C27.5801 74.61 28.7801 73.21 29.9101 71.75C31.0401 70.29 32.1901 68.75 33.2301 67.18C34.2701 65.61 35.0501 64.18 35.9501 62.62L36.3801 62.88L33.5201 67.88C34.4019 67.5867 35.1846 67.0534 35.7801 66.34C37.5801 63.75 39.2601 61.07 40.9301 58.5C39.1201 58.17 38.6401 60.34 37.0401 60.85L38.2501 59.29L37.9201 58.91L34.4601 61.32L35.2501 59.81C33.1401 60.59 32.6601 62.61 31.2501 63.66L31.0001 63.46C31.6001 62.56 32.2101 61.67 32.8401 60.75C30.5101 60.75 30.0201 62.99 28.4101 63.94L29.6701 61.88C29.3511 61.952 29.0422 62.0628 28.7501 62.21C25.8701 64.09 23.0201 66.01 20.1301 67.88C19.8001 68.1 19.2701 68.02 18.8301 68.08C18.9901 67.7 19.0501 67.18 19.3401 66.94C22.2181 64.3947 25.4564 62.2886 28.9501 60.69L32.7401 59.13C32.7401 59.01 32.7401 58.89 32.6701 58.78L22.4001 59.4C22.7521 59.1065 23.1841 58.9254 23.6401 58.88C26.6401 58.71 29.6401 58.57 32.6401 58.41C33.9801 58.34 35.3201 58.25 36.6401 58.17C29.0901 57.55 21.5401 57.02 14.1701 59.5C14.6416 59.0882 15.1932 58.7784 15.7901 58.59C19.9966 57.4374 24.3502 56.9117 28.7101 57.03C31.8101 57.03 34.9101 57.1 38.0101 57.12C38.4471 57.0902 38.8815 57.0301 39.3101 56.94C39.3101 56.79 39.3101 56.64 39.3101 56.48H18.6101C26.0601 55.25 33.6101 55.71 41.0801 55.88C40.8302 55.7057 40.5347 55.6083 40.2301 55.6C35.7301 55.15 31.2301 54.6 26.7301 54.28C19.8001 53.74 13.2301 54.65 7.58013 59.28C5.42211 61.1295 3.46467 63.2009 1.74013 65.46C2.75641 65.9418 3.7328 66.5036 4.66011 67.14C5.97011 68.14 7.04012 68 8.29012 67.03C9.28352 66.3497 10.3264 65.7447 11.4101 65.22C11.4901 65.35 11.5701 65.48 11.6401 65.61L6.98012 68.4L8.05013 69.12L12.4001 66.82L12.6101 67.23L8.75014 69.4C11.0301 71.4 13.0901 73.32 15.3201 75.06C16.9249 76.2072 18.587 77.2719 20.3001 78.25V78.27ZM56.1101 57.17C53.7101 57 51.3101 56.8 48.9101 56.66C48.5001 56.66 47.9101 56.66 47.7001 56.96C46.7001 58.22 45.8401 59.56 44.9201 60.87C44.0001 62.18 43.1101 63.42 42.1901 64.72C45.9601 66.72 46.4601 68.98 43.7201 72.02C41.1201 74.9 38.3601 77.62 35.5901 80.33C33.3318 82.5274 31.3899 85.028 29.8201 87.76L38.1801 89.76C42.3601 90.76 46.5101 91.93 50.7301 92.67C53.1701 93.1 55.7301 92.83 58.4301 92.88C57.6801 91.81 57.0601 91.08 56.6101 90.26C54.6101 86.61 54.8801 82.81 55.8801 78.95C56.0883 78.0831 56.1525 77.1878 56.0701 76.3C55.7601 71.92 55.3801 67.55 55.0201 63.18C55.0201 63 54.9501 62.83 54.9001 62.55C54.38 62.9732 53.9707 63.5166 53.7076 64.1334C53.4445 64.7502 53.3355 65.4217 53.3901 66.09C53.8101 69.5 54.2101 72.91 54.6201 76.32C54.6801 76.79 54.7801 77.26 54.8601 77.72L54.4401 77.79C53.2837 73.8984 52.7505 69.8483 52.8601 65.79C51.8343 67.0924 51.2965 68.7127 51.3401 70.37C50.8331 76.7329 50.9973 83.1315 51.8301 89.46C51.9001 89.93 51.9201 90.4 51.9701 90.87H51.5601C50.2301 84.03 50.4801 77.1 50.7301 70.16H50.3601C49.9401 71.77 49.5301 73.39 49.1201 75V75.1C48.9901 75.51 48.8701 75.92 48.7401 76.33C47.9001 78.82 47.0801 81.33 46.2101 83.78C46.1101 84.06 45.6901 84.23 45.4201 84.45C45.3444 84.1202 45.2877 83.7863 45.2501 83.45C45.2501 83.29 45.3601 83.13 45.4101 82.96C46.4101 79.72 47.4101 76.46 48.4101 73.23C49.6531 68.8275 51.8138 64.7379 54.7501 61.23C56.0227 59.9817 57.3938 58.838 58.8501 57.81L58.7601 57.3L56.1101 57.17ZM38.6201 49.62C38.1701 48.84 37.6201 47.38 37.2901 47.42C35.9101 47.56 36.0501 46.42 35.7501 45.88C31.0901 37.2 30.2901 27.88 31.1101 18.25C31.1765 17.9063 31.2804 17.571 31.4201 17.25C31.5101 21.57 31.5201 25.9 31.7201 30.25C31.9163 34.5843 33.0201 38.8292 34.9601 42.71C32.0201 34.3 31.7201 25.71 32.6901 16.94C32.9957 17.3251 33.1488 17.8092 33.1201 18.3C32.756 23.7693 33.0244 29.2623 33.9201 34.67C34.932 41.4192 38.1618 47.6395 43.1001 52.35C43.6619 52.7867 44.2687 53.1621 44.9101 53.47L45.1101 53.17C42.6988 50.8826 40.7293 48.1707 39.3001 45.17C41.5601 48.1 43.5601 51.25 46.5801 53.5C44.5201 50.75 42.4001 48.07 41.0901 44.86C43.3201 47.86 45.1601 51.28 48.2101 53.65C46.5701 51.12 44.8001 48.65 43.1301 46.19C41.4601 43.73 39.7901 39.05 40.1801 37.92C40.9301 39.92 41.5101 41.92 42.4201 43.7C43.4026 45.519 44.5015 47.2727 45.7101 48.95C46.8401 50.61 48.0801 52.2 49.2801 53.81L49.6201 53.6C44.8101 46.71 40.8201 39.51 40.6201 30.86L40.9701 30.76L41.8201 36.07L44.7401 33.68C44.5001 32.68 44.2101 31.42 43.9301 30.21C45.2101 31.38 44.6701 33.35 46.2801 34.75C45.7101 32.27 45.2301 30.17 44.7401 28.07L45.1601 27.97C45.2601 28.23 45.3701 28.48 45.4501 28.75C46.3401 31.85 47.2501 34.94 48.0901 38.05C48.7101 40.33 49.3001 42.63 49.7801 44.94C50.041 45.7674 50.0164 46.6584 49.7101 47.47C48.8401 48.84 49.5001 49.81 50.1301 50.86C50.7601 51.91 51.3701 52.86 52.0501 53.78C52.2301 54.02 52.6301 54.11 52.9301 54.27C52.9771 54.1989 53.0205 54.1255 53.0601 54.05C52.0601 52.12 51.0001 50.18 49.9601 48.25L50.3401 48.04C50.5701 48.41 50.8301 48.77 51.0401 49.15C51.9201 50.73 52.7801 52.33 53.6701 53.9C53.8101 54.14 54.1201 54.28 54.3501 54.46L54.5101 54.26L52.5901 50.53L52.9701 50.33C53.6201 51.45 54.2801 52.57 54.9101 53.71C54.9809 53.8951 55.0877 54.0643 55.2243 54.2079C55.3608 54.3515 55.5245 54.4666 55.7058 54.5466C55.8871 54.6265 56.0825 54.6698 56.2806 54.6738C56.4788 54.6778 56.6757 54.6425 56.8601 54.57C54.7581 50.0206 53.7642 45.0378 53.9601 40.03C54.2038 40.3474 54.3466 40.7306 54.3701 41.13C54.4243 42.3801 54.5545 43.6258 54.7601 44.86C55.4601 47.86 56.2701 50.76 57.1001 53.69C57.2901 54.34 57.6301 55.05 58.6601 54.78C56.7801 50.03 55.3201 45.29 55.5001 40.21L55.8201 40.15C56.1101 42.55 56.4101 44.95 56.7001 47.35H57.3401C57.4216 46.7499 57.4683 46.1455 57.4801 45.54C57.4261 44.8883 57.3326 44.2404 57.2001 43.6L57.6001 43.53C57.8201 44.53 58.0501 45.43 58.2701 46.37C61.2701 46.16 62.7801 46.89 63.5601 48.88C64.3401 50.87 63.3501 51.88 61.8701 52.78C62.5501 55.41 62.6401 55.51 64.3501 55.34C64.2101 54.6 64.0701 53.85 63.9401 53.1L64.2401 53.02L65.2401 55.6L65.6701 55.45C64.2701 52.32 64.0801 49 63.9901 45.66C64.2304 46.0441 64.3776 46.479 64.4201 46.93C64.8801 49.38 65.3201 51.84 65.8201 54.28C65.8331 54.5314 65.9042 54.7765 66.0277 54.9958C66.1513 55.2152 66.324 55.403 66.5322 55.5444C66.7405 55.6858 66.9788 55.7771 67.2282 55.811C67.4777 55.845 67.7316 55.8207 67.9701 55.74C67.4301 53.49 66.7401 51.27 66.4101 48.99C65.8801 45.41 66.0801 42.87 66.7801 41.99C66.7801 42.76 66.7801 43.35 66.7301 43.94C66.4972 47.6935 67.1053 51.4516 68.5101 54.94C68.7396 55.3621 69.0145 55.7578 69.3301 56.12L69.6601 55.92C69.5201 55.34 69.3701 54.76 69.2201 54.18L69.5301 54.06L70.5301 56.15L70.9001 56.04C69.4897 50.5343 69.2512 44.7938 70.2001 39.19C70.0601 44.06 69.8501 48.92 71.1101 54.06C71.2501 53.29 71.3301 52.88 71.4101 52.47C72.5701 46.72 73.6301 40.95 74.9101 35.24C75.9101 30.61 78.6601 26.77 81.2101 22.87C81.3601 22.64 81.8101 22.6 82.1201 22.47C82.1461 22.7813 82.1258 23.0947 82.0601 23.4C81.9298 23.7167 81.7546 24.0131 81.5401 24.28C78.2793 29.1247 76.0811 34.6049 75.0901 40.36C74.4501 44.36 73.7101 48.25 73.0201 52.21C72.7801 53.56 72.5701 54.92 72.2901 56.57C72.9201 56.32 73.2901 56.16 73.7101 55.99L73.5801 56.26L75.1401 56.76C75.9901 52.1 76.6401 47.62 77.6501 43.22C78.8101 38.14 80.2501 33.11 83.1301 28.65C83.3628 28.3232 83.6132 28.0094 83.8801 27.71C78.9901 36.84 76.8801 46.6 76.0001 56.84L77.1201 56.91C77.6201 53.56 78.1201 50.32 78.5801 47.09L79.1401 47.17L78.9901 48.31C78.6301 50.92 78.2801 53.52 77.8901 56.12C77.7701 56.92 78.0301 57.27 78.8901 57.12L79.3901 55.75C79.6401 56.75 79.5101 57.75 80.6901 57.23C80.7801 55.86 80.8801 54.51 80.9701 53.16H81.4401C81.4401 54.3 81.4401 55.45 81.3001 56.58C81.2001 57.51 81.6001 57.7 82.3801 57.58C82.4301 56.75 82.4701 55.97 82.5201 55.18H82.9301C82.9183 55.7243 82.9417 56.2688 83.0001 56.81C83.1068 57.1913 83.2614 57.5576 83.4601 57.9L83.7701 57.72C83.8901 57.2 84.0001 56.72 84.1201 56.16L84.4101 56.22C84.4101 56.8 84.4101 57.38 84.4801 58L86.9501 58.37C87.7401 56.76 88.4601 55.27 89.1901 53.77L89.6401 53.99C89.4301 54.42 89.2201 54.86 89.0201 55.3C88.6501 56.12 88.2501 56.93 87.9301 57.77C87.8501 57.98 88.0301 58.28 88.0901 58.54C88.3465 58.4089 88.5796 58.2366 88.7801 58.03C90.4401 55.63 91.7801 52.96 93.7801 50.86C100.899 43.1808 107.466 35.007 113.43 26.4C113.67 26.05 113.97 25.74 114.24 25.4L114.58 25.67C113.72 26.92 112.88 28.18 111.99 29.41C106.282 37.3656 100.059 44.9385 93.3601 52.08C91.52 53.9264 90.0919 56.1417 89.1701 58.58C90.5201 59.28 91.2901 58.92 92.0701 57.69C93.3945 55.4738 94.9032 53.3731 96.5801 51.41C100.78 46.63 105.49 42.28 108.82 36.76C108.94 36.56 109.22 36.45 109.43 36.3C109.4 36.7878 109.23 37.2565 108.94 37.65C105.85 42.65 101.65 46.79 97.7701 51.17C95.6001 53.63 93.7701 56.37 91.7701 59.02C92.7701 59.6 93.1001 59.39 93.5401 58.68C94.4501 57.23 95.5401 55.88 96.5401 54.5C96.7949 54.2351 97.0764 53.9971 97.3801 53.79L97.5301 53.98L93.4401 59.58C95.0301 59.86 96.2701 60.04 97.4401 60.31C98.1101 60.46 98.4401 60.31 98.7501 59.67C101.243 55.2335 104.309 51.145 107.87 47.51C108.17 47.2 108.53 46.96 108.87 46.68L109.16 46.94C105.121 50.9521 101.683 55.5259 98.9501 60.52C100.35 60.87 100.38 60.88 100.95 59.85C102.674 56.639 104.823 53.6756 107.34 51.04C108.484 49.7859 110.044 48.9898 111.73 48.8C112.069 48.7249 112.419 48.7216 112.759 48.7904C113.099 48.8591 113.42 48.9983 113.703 49.199C113.986 49.3997 114.223 49.6575 114.4 49.9556C114.577 50.2538 114.689 50.5857 114.73 50.93C114.95 52.0788 114.817 53.2673 114.347 54.3386C113.878 55.4099 113.094 56.3135 112.1 56.93C109.86 58.12 109.1 60.45 107.58 62.16C108.87 62.91 109.58 62.41 110.21 61.49C111.54 59.64 112.97 57.85 114.37 56.05C114.593 55.809 114.834 55.585 115.09 55.38L115.34 55.64L109.98 62.64L110.31 62.94C112.23 62.19 112.8 59.94 114.41 58.83L114.68 59.04L111.79 62.8C112.58 62.2167 113.301 61.5457 113.94 60.8C118.273 55.0134 122.577 49.2 126.85 43.36C126.954 43.2176 127.025 43.0545 127.06 42.8819C127.094 42.7093 127.091 42.5313 127.05 42.36C125.46 39.22 123.82 36.12 122.11 32.85C121.8 33.32 121.63 33.56 121.47 33.85C118.892 37.9772 115.875 41.813 112.47 45.29C112.064 45.6672 111.636 46.0211 111.19 46.35L110.93 46C111.029 45.8668 111.136 45.7399 111.25 45.62C115.134 41.9404 118.498 37.7485 121.25 33.16C121.384 32.9347 121.469 32.6841 121.5 32.424C121.531 32.164 121.507 31.9004 121.43 31.65C119.82 28.1591 118.9 24.39 118.72 20.55C118.676 20.2126 118.609 19.8786 118.52 19.55C115.529 21.8294 112.811 24.4468 110.42 27.35C106.63 32.35 102.96 37.47 99.2001 42.51C95.8701 46.98 92.0801 50.93 86.8201 53.17C84.5601 54.17 82.4501 53.65 81.1701 51.58C80.4548 50.4657 80.0002 49.2044 79.8401 47.89C79.6923 46.1745 79.8171 44.4464 80.2101 42.77C82.0957 34.2416 86.6492 26.5357 93.2101 20.77C95.4801 18.77 97.8601 16.95 100.21 15.02C99.2801 14.12 99.2101 14.02 98.5501 14.62C96.2368 16.56 93.9501 18.5267 91.6901 20.52C90.7801 21.31 89.9301 22.18 89.0601 23.01L88.7701 22.68C91.8097 19.4267 95.1217 16.4392 98.6701 13.75C98.4201 13.54 98.2301 13.38 98.0301 13.23C92.8501 9.23002 86.7801 6.93002 81.0801 3.92002C80.8309 3.86445 80.5722 3.86712 80.3242 3.92782C80.0762 3.98853 79.8455 4.10563 79.6501 4.27002C76.3401 7.44002 73.5401 10.95 72.4501 15.54C72.0201 17.38 71.5201 19.22 71.1801 21.08C70.0619 26.9301 68.2804 32.6335 65.8701 38.08C65.1778 39.9139 63.8363 41.4299 62.1001 42.34C61.6058 42.6091 61.0575 42.7641 60.4955 42.7936C59.9335 42.8232 59.372 42.7265 58.8523 42.5107C58.3325 42.2949 57.8676 41.9655 57.4917 41.5466C57.1159 41.1278 56.8386 40.6301 56.6801 40.09C56.3978 39.1852 56.2101 38.2536 56.1201 37.31C54.8901 25.59 58.9901 15.57 66.0301 6.52002C66.8101 5.52002 67.7001 4.60002 68.6701 3.52002L65.9401 2.80002C62.7101 1.99002 62.7001 1.99002 60.9401 4.86002L59.7101 6.93002C59.5701 6.85002 59.4301 6.77002 59.3001 6.68002L61.9501 2.13002L61.6601 1.80002C61.1864 2.06829 60.755 2.40529 60.3801 2.80002C58.0163 6.30923 56.3212 10.2249 55.3801 14.35C55.3012 14.6206 55.194 14.882 55.0601 15.13L54.7601 15C55.4201 10.25 57.7601 6.14002 60.2501 1.88002C57.8201 1.88002 55.6301 1.88002 53.4401 1.88002C53.0533 1.89169 52.6825 2.03651 52.3901 2.29002C49.4801 5.01002 47.1301 8.00002 47.4501 12.29C47.6647 14.5232 47.7448 16.7672 47.6901 19.01C47.5892 20.3654 47.186 21.6809 46.5101 22.86C46.2435 23.2013 45.9061 23.4808 45.5211 23.6793C45.1362 23.8779 44.7128 23.9907 44.2801 24.01C43.7523 24.0024 43.2442 23.8085 42.8453 23.4627C42.4465 23.117 42.1825 22.6414 42.1001 22.12C41.8111 21.1453 41.653 20.1364 41.6301 19.12C41.7901 15.64 42.0601 12.12 42.3701 8.70003C42.4901 7.26003 42.8201 5.83002 43.0401 4.50002C39.0401 4.58002 35.1701 4.63002 31.3101 4.79002C30.6433 4.85016 30.0229 5.15681 29.5701 5.65002C25.7001 10.22 23.2001 15.33 24.0901 21.5C24.6101 25.08 25.4201 28.61 26.1701 32.14C26.9942 35.8173 28.7465 39.2222 31.2601 42.03C32.8389 43.8557 34.305 45.776 35.6501 47.78C36.7001 49.36 37.4601 51.14 38.4701 53.06H41.4701L38.6201 49.58V49.62ZM75.6201 94.99C72.7401 88.27 71.2501 82.65 71.9201 81.13C71.9801 81.13 72.0801 81.22 72.1001 81.27C72.2001 81.69 72.2901 82.11 72.3701 82.54C73.0754 86.5762 74.3409 90.494 76.1301 94.18C76.5401 95.03 77.0401 95.49 78.1301 95.05C75.8007 90.1284 74.2457 84.8765 73.5201 79.48C73.8601 79.72 73.9701 79.76 73.9901 79.82C74.0665 80.0658 74.1266 80.3163 74.1701 80.57C74.9585 85.2024 76.3434 89.7132 78.2901 93.99C78.9101 95.4 78.9201 95.43 80.4801 94.99L78.7101 89.88L79.1101 89.73C79.2701 90.08 79.4501 90.43 79.5801 90.8C80.0301 92.01 80.4201 93.25 80.9401 94.42C81.1001 94.78 81.6101 94.97 81.9401 95.24L82.2601 94.93C80.2601 89.41 78.2601 83.87 77.7401 77.93C78.008 78.296 78.1831 78.7215 78.2501 79.17C79.2322 84.2006 80.6406 89.1384 82.4601 93.93C82.8201 94.93 83.3601 95.27 84.4601 94.77C82.9534 92.0989 81.9374 89.1794 81.4601 86.15C81.7348 86.4985 81.9417 86.8953 82.0701 87.32C82.9634 89.56 83.8601 91.7934 84.7601 94.02C85.0701 94.81 85.5601 95.02 86.2901 94.56C85.5101 92.82 84.7401 91.13 83.9701 89.43L84.3801 89.25C85.5001 90.96 85.7901 93.25 87.3801 94.62L87.7101 94.43L85.6101 89.63L86.0101 89.44C87.0101 91.04 87.2701 93.13 88.9501 94.28C88.9337 93.9893 88.8368 93.7088 88.6701 93.47C86.3901 89.07 85.6701 84.57 88.0801 79.99C89.7401 76.78 92.7901 76.22 95.4401 78.67C96.2347 79.4471 96.7811 80.4424 97.0101 81.53C97.5401 84.22 97.7801 86.97 98.1701 89.7C98.3368 90.8867 98.5568 92.0667 98.8301 93.24C98.8793 93.3866 98.9618 93.5197 99.0711 93.6291C99.1804 93.7384 99.3136 93.8209 99.4601 93.87C100.67 94.13 101.89 94.32 103.11 94.54C103.18 94.38 103.24 94.22 103.3 94.06C101.38 90.3886 100.291 86.3395 100.11 82.2C100.38 82.5516 100.549 82.9698 100.6 83.41C101.014 86.9236 102.047 90.3362 103.65 93.49C104.14 94.37 104.12 94.38 105.2 94.1L103.5 90.2L103.91 90.01C104.421 90.9602 104.879 91.9384 105.28 92.94C105.76 94.35 106.65 94.62 108 94.22L106.81 91.6L107.15 91.43C107.58 92.18 108 92.94 108.46 93.68C108.62 93.94 108.9 94.34 109.11 94.33C110.76 94.26 112.4 94.11 114.26 93.96C109.59 89.13 107.04 85.77 107.15 84.43C108 85.62 108.7 86.75 109.55 87.75C111.11 89.58 112.73 91.37 114.38 93.11C114.68 93.42 115.28 93.45 115.74 93.6C115.789 93.5061 115.833 93.4093 115.87 93.31C114.637 91.9767 113.41 90.6434 112.19 89.31L112.54 89C113.28 89.79 114 90.61 114.77 91.37C116.52 93.1 116.53 93.09 117.45 92.82L115.61 91.2C116.95 91.1 117.43 92.81 119.02 92.42C118.22 91.63 117.58 90.99 116.93 90.36C118.38 90.36 118.8 92.36 120.6 91.76C118.75 89.9 116.8 88.3 115.91 85.88C116.323 86.2193 116.698 86.6014 117.03 87.02C118.21 88.33 119.39 89.64 120.62 90.9C120.768 91.0309 120.945 91.1246 121.136 91.1733C121.328 91.222 121.528 91.2243 121.72 91.18C123.57 90.29 125.37 89.31 127.23 88.34C125.87 87 124.59 85.86 123.47 84.58C122.35 83.3 121.47 81.9 120.42 80.58L120.84 80.26C121.14 80.66 121.4 81.09 121.73 81.46L126.82 87.1C127.63 87.99 128.35 87.78 129.06 86.95C124.33 83.33 119.19 76.95 119.42 75.04C119.53 75.13 119.67 75.18 119.72 75.28C121.2 78.57 123.79 81.04 126.14 83.66C127.022 84.5941 128.013 85.4199 129.09 86.12C129.42 86.35 130.09 86.12 130.54 86.12C129.498 84.9284 128.382 83.8029 127.2 82.75C126.15 81.75 125.2 80.56 124.2 79.46L124.55 79.12C124.85 79.45 125.14 79.78 125.45 80.12C127.09 81.71 128.73 83.3 130.39 84.86C130.89 85.33 131.46 85.64 131.89 84.69L128.48 81.69L128.78 81.36C129.71 82.11 130.7 82.79 131.56 83.61C131.684 83.768 131.841 83.8957 132.022 83.9836C132.202 84.0715 132.4 84.1171 132.6 84.1171C132.801 84.1171 132.998 84.0715 133.179 83.9836C133.359 83.8957 133.517 83.768 133.64 83.61C137.36 80.5 141.11 77.4 144.86 74.4L137.02 72.77L136.96 72.95L140.91 75.87L140.67 76.16C138.12 74.89 136.19 72.51 133.2 71.99L138.44 76.48C138.35 76.6 138.25 76.71 138.15 76.83C137.83 76.58 137.5 76.35 137.15 76.1C135.69 74.88 134.25 73.66 132.78 72.45C132.267 72.0022 131.668 71.6625 131.02 71.4511C130.373 71.2398 129.689 71.1612 129.01 71.22L132.52 75.52C130.38 74.05 129.28 71.38 126.52 70.75L132.87 78.49L132.62 78.7L131.62 77.61C129.78 75.49 127.95 73.37 126.1 71.27C125.799 70.8391 125.385 70.4992 124.903 70.2876C124.422 70.076 123.891 70.0007 123.37 70.07L126.15 73.47C124.23 72.47 123.47 70.05 121.06 69.39C122.95 71.69 124.64 73.87 126.45 75.94C128.26 78.01 130.16 79.94 132.03 81.94C131.94 82.02 131.86 82.11 131.78 82.19C131.493 82.0256 131.222 81.8348 130.97 81.62C128.923 79.4067 126.883 77.1867 124.85 74.96C123.32 73.27 121.85 71.49 120.26 69.89C119.452 69.2862 118.563 68.7981 117.62 68.44L117.37 68.84C117.63 69.16 117.89 69.5 118.17 69.84C120.23 72.1 122.3 74.35 124.35 76.61C124.95 77.28 125.7 77.9 125.49 79.21C125.159 79.0451 124.847 78.8438 124.56 78.61C121.81 75.52 118.99 72.48 116.39 69.27C115.3 67.94 114.04 67.85 112.39 67.95L115.93 72.26L115.54 72.6L111.36 67.33L111.08 67.56C113.826 70.8868 115.895 74.7188 117.17 78.84C116.87 78.78 116.74 78.79 116.71 78.75C116.52 78.37 116.32 77.99 116.16 77.59C114.68 73.94 113.09 70.36 110.16 67.59C109.657 67.1905 109.106 66.8546 108.52 66.59L119.36 87.4L119.08 87.59C118.523 86.9091 118.018 86.187 117.57 85.43C115.77 81.95 114.08 78.43 112.26 74.96C110.92 72.42 109.47 69.96 107.96 67.47C107.707 67.0244 107.336 66.6571 106.888 66.4083C106.44 66.1596 105.932 66.0391 105.42 66.06C107.03 69.4 108.69 72.78 110.27 76.19C111.85 79.6 113.34 83.06 114.87 86.49C114.732 86.463 114.601 86.4048 114.489 86.3199C114.376 86.235 114.284 86.1256 114.22 86C112.81 83 111.31 80 110.03 77C108.49 73.3 107.03 69.59 104.46 66.42C104.115 66.0681 103.729 65.7592 103.31 65.5L103.16 65.73C103.91 67.25 104.67 68.73 105.42 70.28L104.97 70.5C104.31 69.23 103.66 67.95 102.97 66.67C104.22 71.87 104.74 77.29 107.91 81.9C107.495 81.8473 107.1 81.6927 106.76 81.45C105.431 80.3984 104.503 78.9231 104.13 77.27C103.01 73.21 101.9 69.15 100.77 65.01L98.9301 64.6C99.8301 67.27 100.86 69.86 101.56 72.53C102.691 77.4889 104.456 82.2816 106.81 86.79C106.908 87.0202 106.975 87.2623 107.01 87.51L106.69 87.65C106.203 86.9064 105.778 86.1237 105.42 85.31C103.94 81.19 102.42 77.07 101.13 72.89C100.26 70.14 99.8001 67.25 97.9301 64.89C97.4894 64.4895 96.9945 64.1529 96.4601 63.89C96.3601 64 96.2701 64.11 96.1701 64.21C98.3501 66.87 99.0401 70.12 99.8601 73.3C99.2301 72.19 98.9101 70.94 98.3601 69.81C97.3601 67.81 96.3101 65.88 95.2101 63.95C95.0401 63.66 94.4801 63.58 93.9601 63.34L96.8601 68.25L96.5001 68.45C95.5601 67.05 94.6401 65.63 93.6701 64.25C92.5101 62.59 90.6701 62.74 88.7701 62.4C91.829 66.0699 93.8459 70.494 94.6101 75.21C94.2995 74.8522 94.0829 74.4226 93.9801 73.96C92.9785 69.9769 91.1374 66.2538 88.5801 63.04C88.2576 62.6258 87.8321 62.3034 87.346 62.1051C86.8599 61.9068 86.3304 61.8395 85.8101 61.91C88.7658 66.005 91.2956 70.3911 93.3601 75C92.9501 74.89 92.8201 74.89 92.7901 74.84C92.5801 74.47 92.3901 74.08 92.1701 73.72C89.8701 69.89 87.5701 66.05 85.2201 62.25C84.9701 61.85 84.3901 61.67 83.9601 61.38C83.8301 61.52 83.6901 61.65 83.5601 61.78L90.5601 73.43L90.1201 73.68L83.0001 61.94C82.3001 62.17 82.0901 62.6 82.5001 63.29L87.5001 71.84L88.0901 72.84L87.7501 73.05C85.3169 69.9366 83.2029 66.5864 81.4401 63.05C81.0422 63.6651 80.8208 64.3777 80.8001 65.11C81.1001 69.17 82.9001 72.81 84.0901 76.62C84.2101 77.04 84.3201 77.46 84.4401 77.88L83.8801 78.04C82.5401 73.72 81.1901 69.4 79.8801 65.12C79.4647 65.4844 79.1696 65.9663 79.034 66.5019C78.8983 67.0376 78.9283 67.6018 79.1201 68.12C79.5201 69.76 79.9301 71.39 80.3201 73.02C80.393 73.3903 80.4464 73.7642 80.4801 74.14L80.0601 74.22L78.4401 67.76C76.9501 70.43 77.7301 73.29 77.5001 76.04H77.1101C77.0101 74.52 76.9201 73.04 76.8001 71.15C75.8744 73.9754 75.6818 76.9897 76.2401 79.91C76.7101 82.4 77.3601 84.86 77.8901 87.35C77.9601 87.67 77.7401 88.05 77.6501 88.41C77.4301 88.14 77.0901 87.9 77.0101 87.6C76.3901 85.05 75.7301 82.5 75.2401 79.92C74.3321 75.4376 75.0856 70.7778 77.3601 66.81C78.5947 64.8233 79.9297 62.9008 81.3601 61.05L78.6501 60.59C78.8801 61.59 79.0601 62.46 79.2901 63.52C77.8801 62.64 79.0101 60.08 76.6901 60.29C76.8001 61.66 76.9001 62.94 77.0001 64.23C76.0001 62.87 76.9201 60.87 75.0001 59.68C75.2101 61.09 75.4101 62.18 75.5301 63.28C75.6501 64.38 75.7001 65.5 75.7801 66.61H75.3101L75.1601 65.42C74.9701 63.89 74.7901 62.35 74.5901 60.81C74.4501 59.81 73.9201 59.32 72.9001 59.52C73.1001 60.79 73.2901 62.01 73.4901 63.24C72.1801 62.08 73.3401 59.66 70.9401 59.02C72.4201 65.89 72.0301 76.57 70.0401 78.72C70.3801 76.86 70.6801 75.26 70.9701 73.67C71.8367 69.1661 71.7036 64.5268 70.5801 60.08C70.3901 59.33 70.1801 58.63 69.1501 58.93C71.3901 68.43 69.0601 77.56 67.1501 86.73C67.016 86.2855 66.9954 85.8145 67.0901 85.36C67.8601 80.16 68.8801 74.98 69.3001 69.75C69.5601 66.45 68.9501 63.08 68.6601 59.75C68.6157 59.5151 68.5165 59.2939 68.3705 59.1045C68.2246 58.9151 68.036 58.7628 67.8201 58.66C66.9525 58.4585 66.0693 58.3314 65.1801 58.28C66.0401 62.28 67.3701 66.13 67.3101 70.2C67.1143 70.0533 66.9791 69.8398 66.9301 69.6C66.2001 66.06 65.5001 62.52 64.7301 58.99C64.6501 58.61 64.2001 58.31 63.9301 57.99L63.5001 58.23C64.0701 60.97 64.6301 63.72 65.2001 66.46L64.8001 66.54C64.6978 66.3243 64.6141 66.1001 64.5501 65.87C64.0501 63.51 63.5501 61.16 63.1001 58.79C62.9601 58 62.7201 57.73 61.9001 58.05C62.1901 59.87 62.4801 61.65 62.7701 63.44L62.3101 63.5C61.9601 61.67 61.6201 59.83 61.1901 57.5C60.8201 58.12 60.4701 58.43 60.4501 58.76C60.2901 62.67 61.2201 66.41 62.0401 70.15C65.8201 70.15 67.3401 71.48 67.5301 75C67.5527 76.2888 67.415 77.5753 67.1201 78.83C66.5201 81.66 65.7001 84.44 65.1801 87.27C64.9202 88.7969 64.8899 90.3541 65.0901 91.89C65.3901 94.24 65.9601 94.54 68.4101 94.12C68.0201 92.55 67.6201 90.98 67.2301 89.4L67.6601 89.29C67.7801 89.63 67.9101 89.96 68.0101 90.29C68.3101 91.41 68.5801 92.55 68.9201 93.66C69.0001 93.95 69.2201 94.34 69.4601 94.41C70.4601 94.69 71.4601 94.86 72.6301 95.11L70.7201 88.99L71.1301 88.85C71.2601 89.16 71.4101 89.47 71.5201 89.8C71.9001 90.94 72.2401 92.1 72.6301 93.24C73.3601 95.13 73.3601 95.13 75.6001 94.97L75.6201 94.99ZM127.62 43.75C122.62 50.36 117.69 56.98 112.62 63.75C113.133 63.5668 113.621 63.3181 114.07 63.01C117.663 59.6589 120.86 55.9079 123.6 51.83C123.87 51.46 124.18 51.12 124.47 50.76L124.8 51.05C121.708 55.658 118.203 59.9757 114.33 63.95C116.21 63.12 117.46 61.55 118.84 60.15C120.22 58.75 121.69 57.15 123.01 55.56C124.33 53.97 125.38 52.47 126.55 50.91L126.86 51.17C123.8 56.1 119.74 60.17 115.67 64.34C116.18 64.3617 116.682 64.2063 117.09 63.9C118.18 62.9 119.19 61.74 120.24 60.66L122.11 58.72L122.45 59.03L117.74 64.2C120.8 64.2 122.68 62.15 124.55 60.13L124.84 60.56L122.84 62.73C123.47 62.6131 124.109 62.5529 124.75 62.55C125.164 62.6444 125.562 62.7994 125.93 63.01C125.632 63.279 125.295 63.5015 124.93 63.67C123.21 64.14 121.47 64.54 119.73 64.97C121.5 65.79 123.22 66.62 124.89 64.97C124.6 65.35 124.32 65.72 124.02 66.13C124.21 66.18 124.31 66.25 124.35 66.22C124.61 66.0686 124.852 65.8874 125.07 65.68C127.07 63.5 129.07 61.3134 131.07 59.12C131.36 58.8 131.67 58.5 131.98 58.19L132.28 58.49C130.6 61.64 128.09 64.11 125.51 66.65C126.082 66.7534 126.672 66.6354 127.16 66.32C129.03 64.48 130.82 62.56 132.65 60.68C132.839 60.5198 133.043 60.3791 133.26 60.26L133.55 60.58L127.35 67.19C129.21 67.52 129.62 65.36 131.42 65.13C130.47 66.13 129.76 66.79 128.79 67.76C131.45 68.19 132.1 65.48 134.06 65.25L130.83 68.32C133.25 68.74 133.95 66.32 135.77 66.15L132.77 68.64C133.88 69.46 134.69 69.43 135.55 68.64C136.41 67.85 137.39 67.1 138.32 66.34L138.58 66.65L135.32 69.65C137.43 70.95 138.07 68.3 139.73 68.49L137.54 70.29L137.72 70.65L139.62 70.21L139.28 71.08L143.52 72.58C143.19 71.9437 142.758 71.366 142.24 70.87C141.269 69.8947 140.392 68.83 139.62 67.69C137.81 64.52 136.07 61.3 134.46 58.02C131.98 53.24 129.81 48.47 127.58 43.73L127.62 43.75ZM131.36 69.94C105.677 62.3761 79.2552 57.592 52.5501 55.67C79.2201 58.19 105.12 64.96 131.36 69.94ZM57.5201 60.11C56.3401 60.87 55.5201 61.59 55.6101 63.11C55.7801 65.25 55.6701 67.42 55.8501 69.56C56.0301 71.7 56.4001 74 56.7301 76.46C58.2301 74.04 58.2001 74.05 57.7301 71.7C57.4601 70.4 57.3001 69.07 57.1201 67.75C57.0915 67.4173 57.0915 67.0827 57.1201 66.75H57.4001C57.7701 68.86 58.1401 70.96 58.5001 73.07H59.1001C59.2661 72.5132 59.3701 71.9397 59.4101 71.36C59.4101 70.55 59.1101 69.76 59.0201 68.95C58.9301 68.14 58.9301 67.08 58.8901 66.14H59.2701C59.5001 67.94 59.7401 69.73 59.9801 71.53L60.4701 71.62C60.8101 71.08 61.4701 70.5 61.4701 70.03C60.9201 66.22 60.2301 62.44 59.5801 58.64C59.1039 58.7347 58.6831 59.011 58.4069 59.4104C58.1307 59.8098 58.0207 60.301 58.1001 60.78C58.1001 61.85 58.1001 62.93 58.1001 64.01C58.065 64.2533 58.0012 64.4917 57.9101 64.72H57.5701C57.5501 63.18 57.5201 61.71 57.5001 60.11H57.5201ZM47.9601 47.11L48.3401 47.03C48.4225 46.5884 48.446 46.1378 48.4101 45.69C47.8201 42.97 47.2201 40.25 46.5501 37.55C46.3576 36.9337 46.0487 36.36 45.6401 35.86C44.9601 34.97 44.0001 34.98 43.6401 36.02C43.2624 37.011 43.1621 38.0863 43.3501 39.13C44.1705 42.125 45.7517 44.8569 47.9401 47.06L47.9601 47.11ZM101.04 60.79L101.5 61.27C103.33 60.53 103.42 58.16 104.84 57.04L105.13 57.21L102.76 61.32C104.17 61.8 104.21 60.57 104.7 60C105.19 59.43 105.7 58.69 106.15 58L106.52 58.25L104.36 61.62C104.888 61.7681 105.426 61.8784 105.97 61.95C106.4 61.95 107.04 62.02 107.24 61.78C108.18 60.64 109 59.4 109.9 58.15C106.19 57.33 106.09 56.44 105.66 53.51L101.04 60.79ZM108.91 51.41C108.354 52.2347 107.894 53.1205 107.54 54.05C107.14 55.63 108.06 56.5 109.69 56.33C110.258 56.273 110.809 56.1006 111.309 55.8235C111.808 55.5463 112.246 55.1702 112.595 54.7181C112.944 54.266 113.197 53.7474 113.339 53.1941C113.481 52.6408 113.509 52.0643 113.42 51.5C113.28 50.58 112.8 50.04 111.83 50.33C110.86 50.62 109.98 50.95 108.89 51.4L108.91 51.41ZM39.9101 64.58C41.3201 64.97 41.8601 64.31 42.4701 63.43C43.9501 61.28 45.5601 59.23 47.1201 57.15C43.3601 58.21 41.7401 61.4 39.9201 64.53L39.9101 64.58ZM57.8201 48.12C58.5766 49.1275 59.3843 50.0954 60.2401 51.02C60.3623 51.1613 60.5153 51.2726 60.6873 51.3454C60.8593 51.4181 61.0457 51.4505 61.2322 51.4398C61.4187 51.4292 61.6002 51.3759 61.7628 51.2841C61.9254 51.1922 62.0648 51.0642 62.1701 50.91C62.3332 50.6376 62.4387 50.3347 62.4799 50.0199C62.5212 49.7051 62.4974 49.3852 62.4101 49.08C61.7401 47.3 59.8001 46.83 57.8301 48.07L57.8201 48.12ZM43.6901 57.75C40.3601 59.53 38.6201 62.75 36.8101 65.99C37.6861 65.82 38.4968 65.4077 39.1501 64.8C40.7801 62.47 42.2001 60.06 43.7001 57.7L43.6901 57.75ZM51.3201 53.94C50.5401 52.57 49.7901 51.18 48.9401 49.86C48.5451 49.3788 48.0916 48.9488 47.5901 48.58L47.2401 48.94C48.4201 50.71 49.3601 52.69 51.3601 53.89L51.3201 53.94ZM60.0201 55.13L60.5601 54.8C59.7535 53.3 58.9368 51.8 58.1101 50.3L57.6901 50.53C58.5101 52 58.3601 54.05 60.0301 55.08L60.0201 55.13ZM60.2701 52.71C60.8701 54.89 61.0301 55.12 61.9801 55.1C61.3601 52.86 61.3601 52.86 60.2801 52.66L60.2701 52.71Z" fill="#007E57"></path><path fill-rule="evenodd" clip-rule="evenodd" d="M49.1599 74.9501L49.45 74.8C49.32 76.32 49.18 77.9601 49.06 79.3201C48.9937 79.0484 48.9601 78.7697 48.96 78.4901C48.96 77.3401 49.07 76.2 49.12 75.05L49.1599 74.9501Z" fill="#007E57"></path><path fill-rule="evenodd" clip-rule="evenodd" d="M101.74 44.29L115.2 26.67C111.51 33.15 106.73 38.8101 102.01 44.5201L101.74 44.29Z" fill="#007E57"></path><path fill-rule="evenodd" clip-rule="evenodd" d="M53.8901 38.62C52.7101 33.84 54.2201 21.62 57.0701 17.91C54.3601 24.57 53.7201 31.53 53.8901 38.62Z" fill="#007E57"></path><path fill-rule="evenodd" clip-rule="evenodd" d="M29.9895 22.84C29.6751 30.1408 31.1045 37.4116 34.1595 44.05C31.3595 42.19 28.3595 26.21 29.9895 22.84Z" fill="#007E57"></path><path fill-rule="evenodd" clip-rule="evenodd" d="M77.8896 16.52C76.5562 23.1467 75.2229 29.78 73.8896 36.42L73.5596 36.4C74.6296 29.67 75.4396 22.93 77.8896 16.52Z" fill="#007E57"></path><path fill-rule="evenodd" clip-rule="evenodd" d="M78.2801 35.6C76.8101 42.09 75.3301 48.6 73.8801 54.99C73.3601 53.93 76.6001 38.7 78.2801 35.6Z" fill="#007E57"></path><path fill-rule="evenodd" clip-rule="evenodd" d="M40.4902 43.23C38.4902 41.09 35.4902 29.43 36.0702 26.34C37.0502 32.09 38.1402 37.82 40.4902 43.23Z" fill="#007E57"></path><path fill-rule="evenodd" clip-rule="evenodd" d="M29.2004 18.8199C28.6885 23.3356 28.7422 27.8976 29.3604 32.3999C28.1579 27.9599 28.1029 23.2871 29.2004 18.8199Z" fill="#007E57"></path><path fill-rule="evenodd" clip-rule="evenodd" d="M109.53 42.8801L117.27 32.1801L117.53 32.3801C115.19 36.1201 112.9 39.9001 109.53 42.8801Z" fill="#007E57"></path><path fill-rule="evenodd" clip-rule="evenodd" d="M87.7303 18.4L81.3604 28.81C82.6551 24.8965 84.8349 21.3342 87.7303 18.4Z" fill="#007E57"></path><path fill-rule="evenodd" clip-rule="evenodd" d="M50.7398 43.97C49.4298 40.34 47.9398 36.76 47.8398 32.8C48.9198 36.4867 49.9965 40.1734 51.0698 43.86L50.7398 43.97Z" fill="#007E57"></path><path fill-rule="evenodd" clip-rule="evenodd" d="M65.6198 2.92004L59.6198 13.02C59.4098 11.63 63.6498 4.40004 65.6198 2.92004Z" fill="#007E57"></path><path fill-rule="evenodd" clip-rule="evenodd" d="M50.3602 13.67C50.1602 13.56 49.7802 13.44 49.7902 13.34C50.0128 9.74932 51.2203 6.28938 53.2803 3.33997C53.2803 3.33997 53.4302 3.33997 53.7702 3.33997C51.9502 6.52997 50.4202 9.71997 50.3902 13.34L50.3602 13.67Z" fill="#007E57"></path><path fill-rule="evenodd" clip-rule="evenodd" d="M71.6504 26.3999C71.1504 29.6799 70.6504 32.95 70.1604 36.2299L69.6504 36.1499L71.1204 26.3199L71.6504 26.3999Z" fill="#007E57"></path><path fill-rule="evenodd" clip-rule="evenodd" d="M121.59 37.4L115.36 45.1L114.94 44.77L121.16 37.03L121.59 37.4Z" fill="#007E57"></path><path fill-rule="evenodd" clip-rule="evenodd" d="M28.5704 11.78L27.5704 14.97V15.5C27.2504 16.79 26.9404 18.08 26.5704 19.44C25.9804 18.09 27.1704 12.26 28.4604 10.26C28.5304 10.82 28.5804 11.26 28.6304 11.66C28.6156 11.7024 28.5954 11.7427 28.5704 11.78Z" fill="#007E57"></path><path fill-rule="evenodd" clip-rule="evenodd" d="M53.8098 19.54C53.3998 22.75 53.0198 25.73 52.6098 29.02C52.0098 27.32 52.8498 20.88 53.8098 19.54Z" fill="#007E57"></path><path fill-rule="evenodd" clip-rule="evenodd" d="M120.83 50.4L115.28 57.69L114.86 57.37L120.41 50.08L120.83 50.4Z" fill="#007E57"></path><path fill-rule="evenodd" clip-rule="evenodd" d="M50.3598 13.67V13.41L52.0098 8.79004L52.3598 8.89004L50.3598 16.33H50.0498C50.1598 15.4 50.2298 14.55 50.3598 13.67Z" fill="#007E57"></path><path fill-rule="evenodd" clip-rule="evenodd" d="M116.66 53.63L121.22 47.16L121.64 47.46L117.08 53.93L116.66 53.63Z" fill="#007E57"></path><path fill-rule="evenodd" clip-rule="evenodd" d="M111.54 42.2L116.62 36.29L117.01 36.61L111.95 42.55L111.54 42.2Z" fill="#007E57"></path><path fill-rule="evenodd" clip-rule="evenodd" d="M67.9805 44.5799C67.9805 41.9466 68.0138 39.3166 68.0805 36.6899H68.6005C68.6005 39.3199 68.5305 41.9399 68.5005 44.5699L67.9805 44.5799Z" fill="#007E57"></path><path fill-rule="evenodd" clip-rule="evenodd" d="M28.5703 11.78C28.6236 11.7485 28.671 11.7079 28.7103 11.66L31.0603 5.54004L31.5303 5.72004L28.9303 12.64H28.6403C28.6103 12.34 28.5903 12.06 28.5703 11.78Z" fill="#007E57"></path><path fill-rule="evenodd" clip-rule="evenodd" d="M76.2197 27.5601C76.7797 25.2401 77.3431 22.9067 77.9097 20.5601L78.4197 20.6901C77.8497 23.0101 77.2897 25.3301 76.7197 27.6901L76.2197 27.5601Z" fill="#007E57"></path><path fill-rule="evenodd" clip-rule="evenodd" d="M95.4102 51.1801L100.08 45.9301L100.47 46.2601L95.8002 51.5401L95.4102 51.1801Z" fill="#007E57"></path><path fill-rule="evenodd" clip-rule="evenodd" d="M103.55 46.86C102.06 48.64 100.55 50.41 99.0905 52.19L98.6904 51.86L103.15 46.53L103.55 46.86Z" fill="#007E57"></path><path fill-rule="evenodd" clip-rule="evenodd" d="M72.0195 35.4C72.3895 33.17 72.7495 30.94 73.1195 28.71L72.6095 35.4H72.0195Z" fill="#007E57"></path><path fill-rule="evenodd" clip-rule="evenodd" d="M119.87 47.59L116.25 52.69L115.83 52.39L119.45 47.29C119.59 47.4 119.73 47.49 119.87 47.59Z" fill="#007E57"></path><path fill-rule="evenodd" clip-rule="evenodd" d="M113.96 47.32L118.38 42.87C118.2 44.19 115.22 47.14 113.96 47.32Z" fill="#007E57"></path><path fill-rule="evenodd" clip-rule="evenodd" d="M91.5303 16.5501L96.1503 12.3101C96.2703 12.4401 96.3903 12.5601 96.5003 12.6901L91.8802 16.9301C91.7602 16.8101 91.6403 16.6801 91.5303 16.5501Z" fill="#007E57"></path><path fill-rule="evenodd" clip-rule="evenodd" d="M81.5498 12.4699C80.9598 14.3899 80.3598 16.2999 79.7698 18.2199L79.2998 18.0799C79.8665 16.1599 80.4431 14.2399 81.0298 12.3199L81.5498 12.4699Z" fill="#007E57"></path><path fill-rule="evenodd" clip-rule="evenodd" d="M71.8501 38.4C71.7701 40.4 71.6801 42.4 71.6001 44.34H71.0801C71.1601 42.34 71.2334 40.36 71.3001 38.4H71.8501Z" fill="#007E57"></path><path fill-rule="evenodd" clip-rule="evenodd" d="M51.8799 36.49C51.9899 34.57 52.0899 32.64 52.1999 30.71H52.7099C52.5966 32.6433 52.4932 34.5733 52.3999 36.5L51.8799 36.49Z" fill="#007E57"></path><path fill-rule="evenodd" clip-rule="evenodd" d="M35.7404 24.91C35.7404 22.91 35.6504 20.91 35.6104 18.86H36.1303C36.1303 20.86 36.2103 22.86 36.2603 24.86L35.7404 24.91Z" fill="#007E57"></path><path fill-rule="evenodd" clip-rule="evenodd" d="M63.4102 7.70004C64.3902 6.23338 65.3635 4.76337 66.3302 3.29004L66.7502 3.55004L63.8702 7.97004L63.4102 7.70004Z" fill="#007E57"></path><path fill-rule="evenodd" clip-rule="evenodd" d="M38.6003 49.5499L40.4503 52.5499L40.3203 52.6399L37.3203 48.9399L37.5903 48.6899C37.9403 49.0099 38.2903 49.3299 38.6503 49.6899L38.6003 49.5499Z" fill="#007E57"></path><path fill-rule="evenodd" clip-rule="evenodd" d="M80.0996 19.2899C80.5896 17.7999 81.0996 16.2899 81.5896 14.8199L82.0796 14.9699L80.5796 19.3999L80.0996 19.2899Z" fill="#007E57"></path><path fill-rule="evenodd" clip-rule="evenodd" d="M39.4599 32.4L40.3899 36.92L39.9199 37.02L38.9199 32.47L39.4599 32.4Z" fill="#007E57"></path><path fill-rule="evenodd" clip-rule="evenodd" d="M27.6098 15.5V14.97H28.1998C28.0698 16.45 27.9298 17.97 27.7898 19.39L27.2598 19.33C27.3598 18.05 27.4798 16.77 27.6098 15.5Z" fill="#007E57"></path><path fill-rule="evenodd" clip-rule="evenodd" d="M77.8799 25.63L78.9899 21.63L79.4699 21.76L78.3899 25.76L77.8799 25.63Z" fill="#007E57"></path><path fill-rule="evenodd" clip-rule="evenodd" d="M78.3604 34.06L80.0403 30.34L80.5004 30.54L78.8304 34.31C78.7204 34.22 78.5604 34.14 78.3604 34.06Z" fill="#007E57"></path><path fill-rule="evenodd" clip-rule="evenodd" d="M36.3603 39.3999L35.2803 35.3199L35.7603 35.1899C36.1203 36.5499 36.4703 37.9099 36.8303 39.2699L36.3603 39.3999Z" fill="#007E57"></path><path fill-rule="evenodd" clip-rule="evenodd" d="M68.7705 47.9C68.8605 49.24 68.9405 50.58 69.0205 51.9H68.5005L68.2305 47.9H68.7705Z" fill="#007E57"></path><path fill-rule="evenodd" clip-rule="evenodd" d="M50.2003 18.4L50.0503 22.01H49.5703C49.5703 20.81 49.6203 19.6 49.6503 18.4H50.2003Z" fill="#007E57"></path><path fill-rule="evenodd" clip-rule="evenodd" d="M59.2703 9.05006C58.7603 10.0501 58.2703 11.0501 57.7503 12.1101L57.2803 11.8701L58.7903 8.81006L59.2703 9.05006Z" fill="#007E57"></path><path fill-rule="evenodd" clip-rule="evenodd" d="M33.9598 10.9C33.7398 11.9 33.5298 12.98 33.3098 14.02L32.8398 13.93C33.0398 12.93 33.2398 11.84 33.4298 10.79L33.9598 10.9Z" fill="#007E57"></path><path fill-rule="evenodd" clip-rule="evenodd" d="M37.1004 40.61L38.8304 43.53L38.4304 43.78L36.6504 40.88L37.1004 40.61Z" fill="#007E57"></path><path fill-rule="evenodd" clip-rule="evenodd" d="M43.3003 25.75C43.5403 26.89 43.7703 28.03 44.0103 29.17L43.5203 29.28C43.2903 28.14 43.0603 27 42.8203 25.86L43.3003 25.75Z" fill="#007E57"></path><path fill-rule="evenodd" clip-rule="evenodd" d="M31.1299 14.07L31.8799 10.5L32.3699 10.62C32.1199 11.81 31.8599 12.99 31.6099 14.18L31.1299 14.07Z" fill="#007E57"></path><path fill-rule="evenodd" clip-rule="evenodd" d="M78.7695 55.3L79.3095 52.04L79.8295 52.12C79.6495 53.21 79.4795 54.29 79.2995 55.37L78.7695 55.3Z" fill="#007E57"></path><path fill-rule="evenodd" clip-rule="evenodd" d="M52.9297 39.87C53.0497 40.87 53.1797 41.87 53.2997 42.81L52.7797 42.87C52.6597 41.87 52.5397 40.87 52.4297 39.93L52.9297 39.87Z" fill="#007E57"></path><path fill-rule="evenodd" clip-rule="evenodd" d="M110.1 82.6401L105.36 72.4001L105.84 72.1801L110.54 82.4601L110.1 82.6401Z" fill="#007E57"></path><path fill-rule="evenodd" clip-rule="evenodd" d="M84.1803 85.5601L80.8203 75.7301L81.3003 75.55C82.4403 78.83 83.5737 82.1101 84.7003 85.3901L84.1803 85.5601Z" fill="#007E57"></path><path fill-rule="evenodd" clip-rule="evenodd" d="M73.0195 74.2C73.1495 71.2 73.2795 68.32 73.4095 65.41C74.2395 66.73 73.9495 73.1 73.0195 74.2Z" fill="#007E57"></path><path fill-rule="evenodd" clip-rule="evenodd" d="M99.9799 80.94C99.2099 78.42 98.4399 75.94 97.6299 73.28C98.6999 74.18 100.23 78.81 99.9799 80.94Z" fill="#007E57"></path><path fill-rule="evenodd" clip-rule="evenodd" d="M127.69 75.1L132.25 80.02L131.88 80.37L127.3 75.48L127.69 75.1Z" fill="#007E57"></path><path fill-rule="evenodd" clip-rule="evenodd" d="M111.3 94.11L107.47 88.89L107.86 88.58L111.73 93.78L111.3 94.11Z" fill="#007E57"></path><path fill-rule="evenodd" clip-rule="evenodd" d="M70.3605 86.7201C70.0705 84.7201 69.7705 82.6601 69.4805 80.6201L70.0005 80.55C70.2805 82.55 70.5671 84.5834 70.8605 86.6501L70.3605 86.7201Z" fill="#007E57"></path><path fill-rule="evenodd" clip-rule="evenodd" d="M102.2 82.8101C102.48 84.5801 102.77 86.3501 103.05 88.1101L102.55 88.19C102.257 86.4234 101.96 84.6501 101.66 82.8701L102.2 82.8101Z" fill="#007E57"></path><path fill-rule="evenodd" clip-rule="evenodd" d="M96.8498 76.77C96.3498 75.17 95.8498 73.57 95.3398 71.98L95.8098 71.83C96.3298 73.43 96.8098 75.03 97.3598 76.63L96.8498 76.77Z" fill="#007E57"></path><path fill-rule="evenodd" clip-rule="evenodd" d="M112.97 87.2901L110.69 84.5101L110.94 84.3101C111.7 85.2301 112.45 86.1601 113.21 87.0901L112.97 87.2901Z" fill="#007E57"></path><path fill-rule="evenodd" clip-rule="evenodd" d="M117.96 74.8L119.63 78.08L119.19 78.3L117.53 75.0201L117.96 74.8Z" fill="#007E57"></path><path fill-rule="evenodd" clip-rule="evenodd" d="M56.1096 57.15C56.0296 57.52 56.1096 58 55.8496 58.23C52.2075 62.2725 49.3398 66.9503 47.3896 72.03C47.339 72.1203 47.2669 72.1968 47.1797 72.2526C47.0925 72.3084 46.9929 72.3419 46.8896 72.35C48.8034 66.6558 51.9674 61.4622 56.1497 57.15H56.1096Z" fill="#007E57"></path><path fill-rule="evenodd" clip-rule="evenodd" d="M45.2503 72.76C44.7003 76.03 38.5703 85.06 36.0303 86.39C39.8803 82.4 42.6503 77.62 45.2503 72.76Z" fill="#007E57"></path><path fill-rule="evenodd" clip-rule="evenodd" d="M46.4605 73.96C44.8105 78.14 43.2605 82.39 39.7305 85.54C40.9305 83.67 42.2505 81.88 43.2905 79.93C44.3305 77.98 45.1305 75.83 46.0405 73.78L46.4605 73.96Z" fill="#007E57"></path><path fill-rule="evenodd" clip-rule="evenodd" d="M42.4397 75.76L35.1097 86.02L34.6797 85.71C37.1197 82.28 39.5697 78.86 42.0097 75.42L42.4397 75.76Z" fill="#007E57"></path><path fill-rule="evenodd" clip-rule="evenodd" d="M46.1797 69.13L49.4797 62.39L49.9397 62.61C48.8397 64.87 47.7463 67.1267 46.6597 69.38L46.1797 69.13Z" fill="#007E57"></path><path fill-rule="evenodd" clip-rule="evenodd" d="M49.5397 81.3199L49.4797 88.5499H48.9697V81.3199H49.5397Z" fill="#007E57"></path><path fill-rule="evenodd" clip-rule="evenodd" d="M49.2102 58.67L44.8502 64.11L44.4502 63.79L48.8102 58.33L49.2102 58.67Z" fill="#007E57"></path><path fill-rule="evenodd" clip-rule="evenodd" d="M32.3604 85.55C33.8904 83.86 35.4204 82.16 36.9604 80.47L37.3503 80.82L32.7504 85.9L32.3604 85.55Z" fill="#007E57"></path><path fill-rule="evenodd" clip-rule="evenodd" d="M20.2997 78.2501C20.2997 77.9001 20.1697 77.4801 20.2997 77.2501C22.0997 73.9401 23.9497 70.65 25.7997 67.36C25.8997 67.18 26.1497 67.07 26.6297 66.67C26.3997 67.25 26.3397 67.48 26.2297 67.67C24.3897 71.0034 22.5431 74.3367 20.6897 77.6701C20.548 77.8781 20.3909 78.0753 20.2197 78.26L20.2997 78.2501Z" fill="#007E57"></path><path fill-rule="evenodd" clip-rule="evenodd" d="M8.74023 60.01C11.0914 58.0886 13.9583 56.9057 16.9802 56.61L8.74023 60.01Z" fill="#007E57"></path><path fill-rule="evenodd" clip-rule="evenodd" d="M26.3002 60.17L18.4502 61.84C20.8506 60.5718 23.5158 59.8866 26.2302 59.84C26.2502 59.95 26.2802 60.06 26.3002 60.17Z" fill="#007E57"></path><path fill-rule="evenodd" clip-rule="evenodd" d="M19.4403 75.7C19.3103 74.42 21.9003 69.7 23.5603 68.52L19.4403 75.7Z" fill="#007E57"></path><path fill-rule="evenodd" clip-rule="evenodd" d="M22.0099 61.92L15.4199 64.15C16.0799 63.13 20.1299 61.65 22.0099 61.92Z" fill="#007E57"></path><path fill-rule="evenodd" clip-rule="evenodd" d="M7.75977 62.86L12.6398 59.99C12.7298 60.14 12.8098 60.29 12.8998 60.43L8.04977 63.31C7.94977 63.16 7.84977 63.01 7.75977 62.86Z" fill="#007E57"></path><path fill-rule="evenodd" clip-rule="evenodd" d="M3.55957 63.99L7.64957 60.64L7.78955 60.75L3.86957 64.32L3.55957 63.99Z" fill="#007E57"></path><path fill-rule="evenodd" clip-rule="evenodd" d="M20.8696 59.76L16.3496 60.96C17.0396 59.99 19.0396 59.4 20.8696 59.76Z" fill="#007E57"></path><path fill-rule="evenodd" clip-rule="evenodd" d="M14.1797 66.63L18.2597 64.4L18.4897 64.83L14.4397 67.06C14.3597 66.93 14.2597 66.78 14.1797 66.63Z" fill="#007E57"></path><path fill-rule="evenodd" clip-rule="evenodd" d="M16.98 61.92L13.26 63.7C13.19 63.54 13.11 63.38 13.04 63.23L16.7501 61.47C16.8201 61.62 16.9 61.77 16.98 61.92Z" fill="#007E57"></path><path fill-rule="evenodd" clip-rule="evenodd" d="M17.8997 67.45L14.2097 69.51L13.9697 69.1L17.6097 67.02C17.6997 67.17 17.7997 67.31 17.8997 67.45Z" fill="#007E57"></path><path fill-rule="evenodd" clip-rule="evenodd" d="M30.1203 65.8999L28.1803 68.5799C28.0403 68.4899 27.9103 68.3899 27.7803 68.2899L29.7202 65.5699L30.1203 65.8999Z" fill="#007E57"></path><path fill-rule="evenodd" clip-rule="evenodd" d="M69.9297 120.05L83.6897 139.99C82.5497 139.59 70.5297 122.4 69.9297 120.05Z" fill="#007E57"></path><path fill-rule="evenodd" clip-rule="evenodd" d="M68.4403 117.66L63.1104 109.32L63.5504 109.04L68.8904 117.37L68.4403 117.66Z" fill="#007E57"></path><path fill-rule="evenodd" clip-rule="evenodd" d="M109.98 172.97C111.98 174.85 113.98 176.737 115.98 178.63L115.63 179L109.63 173.36L109.98 172.97Z" fill="#007E57"></path><path fill-rule="evenodd" clip-rule="evenodd" d="M85.6404 142.5L88.6404 146.13L88.4004 146.33C87.4004 145.11 86.4004 143.9 85.4004 142.68L85.6404 142.5Z" fill="#007E57"></path><path fill-rule="evenodd" clip-rule="evenodd" d="M62.2002 107.22L59.4102 102.67L59.8402 102.41L62.6402 106.93L62.2002 107.22Z" fill="#007E57"></path><path fill-rule="evenodd" clip-rule="evenodd" d="M59.8804 105.03L62.1904 108.71L61.7704 108.97L59.4404 105.3L59.8804 105.03Z" fill="#007E57"></path><path fill-rule="evenodd" clip-rule="evenodd" d="M59.4598 107.4L58.8398 105.93L59.1698 105.74L61.0198 108.6L60.6798 108.85L59.4498 107.35L59.4598 107.4Z" fill="#007E57"></path><path fill-rule="evenodd" clip-rule="evenodd" d="M123.87 58.9399L127.41 54.9399L127.79 55.2799C126.61 56.6133 125.433 57.9466 124.26 59.2799L123.87 58.9399Z" fill="#007E57"></path><path fill-rule="evenodd" clip-rule="evenodd" d="M127.82 52.99L124.93 56.4L124.56 56.08L127.41 52.62L127.82 52.99Z" fill="#007E57"></path><path fill-rule="evenodd" clip-rule="evenodd" d="M129.67 55.75L127.67 57.83L127.31 57.46L129.39 55.46L129.67 55.75Z" fill="#007E57"></path></g><defs><clipPath id="clip0_208_3640"><rect width="148.5" height="191.97" fill="white"></rect></clipPath></defs></svg>