<svg xmlns="http://www.w3.org/2000/svg" width="100" height="100" viewBox="0 0 100 100" fill="none"><path fill-rule="evenodd" clip-rule="evenodd" d="M98.8546 58.1978C91.9419 50.3735 82.2219 45.9759 71.6249 43.991C55.6214 40.9937 37.6146 43.4956 24.1096 48.1293C15.6215 51.0407 10.8523 55.8479 3.22949 60.4998C2.92068 60.6881 2.51775 60.5907 2.3295 60.2819C2.14124 59.9747 2.23869 59.5701 2.54749 59.3835C10.2595 54.6771 15.098 49.8369 23.6852 46.8908C37.3785 42.1926 55.6379 39.666 71.866 42.7045C82.7553 44.744 92.7312 49.2902 99.8355 57.3308C100.075 57.6016 100.05 58.0145 99.7794 58.2539C99.5086 58.4934 99.094 58.4686 98.8546 58.1978Z" fill="#007E57"></path><path fill-rule="evenodd" clip-rule="evenodd" d="M0.703888 60.0837C0.730309 60.0656 0.908672 59.9484 1.04739 59.8344C1.62537 59.3654 2.56169 58.4522 3.67473 57.2302C7.40355 53.1265 13.1008 45.5548 13.6722 39.3143C13.7052 38.9543 14.024 38.69 14.384 38.7231C14.744 38.7561 15.0099 39.0732 14.9768 39.4332C14.3823 45.9264 8.52321 53.8415 4.64246 58.1104C4.12227 58.6818 3.63842 59.1903 3.20741 59.6197C5.02889 59.2498 6.83715 58.8337 8.64541 58.3961C13.8506 57.1344 18.6148 57.1212 23.9026 58.1962C24.256 58.2673 24.4855 58.614 24.4128 58.9674C24.3418 59.3208 23.9951 59.5503 23.6417 59.4777C18.5521 58.4439 13.9645 58.4538 8.95424 59.6676C6.59111 60.239 4.22466 60.774 1.8351 61.2216C1.5973 61.2661 0.978037 61.3751 0.888861 61.3768C0.380236 61.3867 0.254732 60.9738 0.231613 60.8814C0.220055 60.8368 0.109388 60.2753 0.703888 60.0837ZM1.14979 61.314C1.13328 61.319 1.11676 61.3256 1.09859 61.3306C1.11345 61.3273 1.12998 61.3207 1.14979 61.314Z" fill="#007E57"></path></svg>