<svg xmlns="http://www.w3.org/2000/svg" width="40" height="48" viewBox="0 0 40 48" fill="none"><path d="M2.06297 27.8139C-0.542719 21.3503 1.59865 13.0495 7.26788 7.62882C11.9689 3.13685 18.7983 0.428029 26.5008 0.00273982C26.8529 -0.0202488 27.1885 0.102352 27.4475 0.335687C27.7054 0.567871 27.8609 0.89354 27.8789 1.24028C28.2107 7.82115 25.9571 14.4783 21.6963 19.5063C17.2707 24.727 10.9455 27.8798 3.40394 28.6251C3.36065 28.6289 3.31738 28.6316 3.27523 28.6316C2.74689 28.632 2.2645 28.3113 2.06297 27.8139Z" fill="#007E57"></path><path d="M20.165 46.8304C14.1469 44.9604 8.75506 40.7991 5.37341 35.4127C5.17422 35.0946 5.12074 34.7057 5.22912 34.3444C5.336 33.9831 5.59276 33.6889 5.93246 33.5362C12.6364 30.5224 19.2427 29.5982 25.0404 30.872C32.0354 32.4046 37.7669 37.3858 39.644 43.5608C39.7584 43.9383 39.6952 44.3409 39.487 44.6579C39.4598 45.1325 39.1757 45.5718 38.7217 45.7716C35.3625 47.25 31.6695 47.9999 27.9829 47.9999C25.33 48.0006 22.6826 47.6132 20.165 46.8304Z" fill="#007E57"></path></svg>