<svg xmlns="http://www.w3.org/2000/svg" width="31" height="10" viewBox="0 0 31 10" fill="none"><path d="M2.9903 7.13018C4.3143 7.11818 4.9973 5.07218 4.1623 4.15618C3.4053 4.70618 2.3493 4.91414 1.6483 4.16314C1.0933 5.47114 1.2113 7.16018 2.9903 7.13018ZM1.3623 8.69317C-0.729701 7.34017 -0.117701 5.01915 1.2293 3.36815C1.1613 -0.0498464 6.5883 -0.226862 7.3803 2.95214C8.7403 6.32114 4.7753 11.0272 1.3623 8.69317Z" fill="#007E57"></path><path d="M14.6448 7.13018C15.9688 7.11818 16.6518 5.07218 15.8168 4.15618C15.0598 4.70618 14.0038 4.91414 13.3028 4.16314C12.7478 5.47114 12.8658 7.16018 14.6448 7.13018ZM13.0168 8.69317C10.9248 7.34017 11.5368 5.01915 12.8838 3.36815C12.8158 -0.0498464 18.2428 -0.226862 19.0348 2.95214C20.3948 6.32114 16.4298 11.0272 13.0168 8.69317Z" fill="#007E57"></path><path d="M26.2994 7.13018C27.6234 7.11818 28.3064 5.07218 27.4714 4.15618C26.7144 4.70618 25.6584 4.91414 24.9574 4.16314C24.4024 5.47114 24.5204 7.16018 26.2994 7.13018ZM24.6714 8.69317C22.5794 7.34017 23.1914 5.01915 24.5384 3.36815C24.4704 -0.0498464 29.8974 -0.226862 30.6894 2.95214C32.0494 6.32114 28.0844 11.0272 24.6714 8.69317Z" fill="#007E57"></path></svg>