<?xml version="1.0" encoding="UTF-8"?>
<svg xmlns="http://www.w3.org/2000/svg" width="52" height="53" viewBox="0 0 52 53" fill="none">
  <path d="M50 21.6999C48.8976 16.147 45.9029 11.1483 41.5264 7.5559C37.1499 3.96355 31.6626 2 26 2C20.3374 2 14.8501 3.96355 10.4736 7.5559C6.09711 11.1483 3.10239 16.147 2 21.6999" stroke="#331603" stroke-width="3" stroke-miterlimit="10" stroke-linecap="round"></path>
  <path d="M2.71118 34.0405C4.2991 38.9671 7.40919 43.2632 11.594 46.3106C15.7789 49.3581 20.8228 51 26.0001 51C31.1774 51 36.2213 49.3581 40.4061 46.3106C44.591 43.2632 47.701 38.9671 49.289 34.0405" stroke="#331603" stroke-width="3" stroke-miterlimit="10" stroke-linecap="round"></path>
  <path d="M40.6863 24.8268C39.5532 22.8564 37.503 21.6003 34.9113 21.2848C32.4173 20.9872 29.6985 21.5974 27.2607 23.0142L27.0299 23.1511C26.9083 22.6406 26.7572 22.1377 26.5773 21.645C25.6128 18.9811 23.9147 16.7517 21.8201 15.3706C19.6337 13.936 17.2581 13.5848 15.1339 14.3497C13.0097 15.1147 11.424 16.9422 10.6666 19.4573C9.93586 21.8742 10.0749 24.675 11.0275 27.336C11.9802 29.9969 13.6902 32.2293 15.7848 33.6103C17.0892 34.5066 18.6254 35 20.2047 35.0301C20.7188 35.0304 21.2311 34.9704 21.7313 34.8515C21.8402 35.1148 21.9667 35.3704 22.11 35.6165C23.2401 37.5869 25.2904 38.8459 27.882 39.1584C28.3012 39.2087 28.7231 39.2335 29.1453 39.2328C31.3943 39.2027 33.5964 38.5809 35.5326 37.4291C37.9733 36.0123 39.8609 33.9526 40.8579 31.628C41.8845 29.2111 41.8283 26.7972 40.6981 24.8268H40.6863ZM16.3676 15.9153C17.7847 15.6028 19.3438 15.9481 20.8231 16.9214C22.5981 18.0852 24.0271 19.9871 24.8555 22.279C25.0957 22.9403 25.2779 23.6215 25.3998 24.3149C24.2476 25.2536 23.2734 26.394 22.5242 27.6812C21.8888 26.059 20.7655 24.6771 19.3113 23.7285C18.3907 23.1259 17.6366 22.2987 17.1193 21.3239C16.602 20.3491 16.3383 19.2585 16.3528 18.1536L16.3676 15.9153ZM16.7966 32.0596C15.0215 30.8958 13.5896 28.9939 12.7612 26.702C11.9328 24.4101 11.8175 22.029 12.4299 19.9901C12.7719 18.7231 13.5042 17.5977 14.5215 16.7755L14.5067 18.1209C14.4896 19.5373 14.8289 20.935 15.4931 22.184C16.1572 23.433 17.1247 24.4927 18.3054 25.2644C19.226 25.867 19.9801 26.6942 20.4973 27.669C21.0146 28.6437 21.2783 29.7344 21.2639 30.8393V31.4078C21.2032 31.9567 21.2032 32.5107 21.2639 33.0597C19.8497 33.3811 18.2847 33.0389 16.7966 32.0596ZM23.6425 29.5415C24.4738 27.583 26.0891 25.8329 28.1867 24.6155C29.8413 23.6269 31.7239 23.0903 33.6481 23.0588C33.9991 23.0586 34.3498 23.0795 34.6983 23.1213C35.9971 23.2406 37.2251 23.7698 38.2071 24.6334L36.8876 24.8536C35.4983 25.0833 34.1893 25.6628 33.0824 26.5381C31.9755 27.4134 31.1066 28.5561 30.5565 29.86C30.1274 30.8775 29.4494 31.7692 28.5855 32.4521C27.7216 33.1349 26.7 33.5866 25.6158 33.7651L23.4324 34.1282C22.8792 32.7799 22.9502 31.1756 23.6425 29.5415ZM39.1627 30.9018C38.3313 32.8603 36.719 34.6104 34.6214 35.8278C32.5238 37.0452 30.2103 37.5779 28.1127 37.316C26.814 37.1967 25.5859 36.6675 24.604 35.804L25.9235 35.5837C27.3123 35.354 28.621 34.7749 29.7278 33.9002C30.8347 33.0254 31.7039 31.8835 32.2546 30.5803C32.6836 29.5628 33.3617 28.6711 34.2256 27.9882C35.0895 27.3054 36.1111 26.8537 37.1953 26.6752L39.3786 26.3091C39.9319 27.6574 39.8609 29.2617 39.1686 30.8958L39.1627 30.9018Z" fill="#331603"></path>
</svg>
