<svg xmlns="http://www.w3.org/2000/svg" width="78" height="140" viewBox="0 0 78 140" fill="none"><g clip-path="url(#clip0_110_1426)"><path d="M31.5893 42.4236C31.5568 42.3811 31.5305 42.3343 31.5111 42.2844C31.4522 42.2473 31.4066 42.1925 31.3807 42.1279C30.0058 42.4847 28.6623 42.9529 27.3635 43.5278C24.4715 45.1802 21.9122 47.3562 19.8162 49.9448C18.3036 51.7246 17.0211 53.6877 15.999 55.7879C15.5193 56.8647 15.1466 57.986 14.8861 59.1356C14.4 60.8567 14.0854 62.6217 13.947 64.4048C13.8339 65.9091 13.7818 67.4133 13.8079 68.9089C13.834 70.4044 14.0861 71.7609 14.1905 73.1956C14.4157 77.2104 14.8978 81.2068 15.6338 85.16C16.2624 89.2328 17.1511 93.261 18.2945 97.2202C18.451 97.6723 18.5554 98.1505 18.7032 98.6114C18.7409 98.8233 18.8444 99.018 18.9988 99.1679C19.0759 99.2221 19.1655 99.2559 19.2593 99.2661C19.353 99.2762 19.4477 99.2624 19.5346 99.2259C19.6215 99.1894 19.6978 99.1314 19.7562 99.0574C19.8145 98.9833 19.8531 98.8957 19.8683 98.8027C19.8856 98.6554 19.8856 98.5065 19.8683 98.3592C19.6482 96.9974 19.358 95.6479 18.9988 94.316C18.4423 91.2727 18.025 88.2294 17.4163 85.1687C16.7294 81.0733 15.9555 76.9779 15.6251 72.8304C15.3037 70.8819 15.1466 68.9099 15.1556 66.9351C15.2013 63.6821 15.7498 60.4558 16.7816 57.3705C18.3827 53.443 20.9487 49.9828 24.242 47.3102C25.8886 45.7627 27.7336 44.4411 29.7286 43.38C30.346 43.0583 30.9894 42.7887 31.6067 42.4583L31.5893 42.4236Z" fill="#1B1B1D" stroke="#1B1B1D"></path><path d="M34.0586 58.092C33.8412 57.7876 33.9717 57.4051 33.9543 57.0659C33.9543 56.1443 33.9543 55.2226 34.0239 54.3009C34.0239 52.4315 34.2064 50.6055 34.2673 48.7621C34.3282 47.3448 34.2673 45.9362 34.389 44.5276C34.389 44.3537 34.3891 44.0581 34.6238 44.0754C34.8586 44.0928 34.8064 44.8667 34.8673 45.1189C34.9368 46.6492 34.9803 48.1882 35.0151 49.7273C35.0151 51.5967 35.0151 53.4662 34.9281 55.3356C34.9281 56.1269 34.9281 56.9268 34.9281 57.7268C34.902 58.1615 34.3803 58.4746 34.0586 58.092Z" fill="#1B1B1D" stroke="#1B1B1D"></path><path d="M27.3026 60.1962C23.955 59.7528 22.9551 64.5438 26.607 64.7524C29.1634 64.8655 30.2677 60.4049 27.3026 60.1962ZM26.894 64.0394C26.0245 64.1003 24.8941 63.5525 24.8941 62.5526C24.9801 62.2376 25.139 61.9473 25.3581 61.7052C25.5772 61.4631 25.8502 61.2761 26.1551 61.1592C26.46 61.0424 26.7881 60.999 27.1129 61.0326C27.4376 61.0662 27.7499 61.1758 28.0243 61.3527C28.8504 62.2483 28.0331 63.8916 26.894 64.0394Z" fill="#1B1B1D" stroke="#1B1B1D"></path><path d="M30.6069 60.4918C29.9287 58.8136 28.3027 58.0659 26.5115 57.8833C25.2681 57.7615 23.3291 59.2484 22.8074 60.144C21.0684 63.0134 23.1291 66.0567 26.2855 66.3523C29.1635 66.7175 32.0068 63.2221 30.6069 60.4918ZM29.2418 64.1437C26.9811 67.187 21.4162 64.1437 23.477 60.6222C25.4508 55.9442 32.1982 60.1527 29.2418 64.1437Z" fill="#1B1B1D" stroke="#1B1B1D"></path><path d="M45.058 67.5871C41.5949 67.448 38.1269 67.4828 34.6673 67.6915C34.2413 67.8045 33.2935 67.5436 33.2065 68.0914C33.2065 68.7957 33.2065 70.4478 33.5283 70.5435C37.3475 70.7606 41.1775 70.7025 44.9884 70.3696C45.7188 70.2739 45.6145 69.5001 45.6492 69.0305C45.684 68.561 45.7623 67.6132 45.058 67.5871ZM33.8326 70.0565C33.763 69.4392 33.7456 68.9957 33.7282 68.3697C37.415 68.4566 41.0843 68.3697 44.771 68.2914C44.771 68.7088 44.771 69.4479 44.771 69.8739C43.119 69.8131 36.2411 69.8565 33.8326 70.0565Z" fill="#1B1B1D" stroke="#1B1B1D"></path><path d="M51.1967 52.9359C54.3356 51.7968 50.1098 48.1709 48.7881 51.7446C49.162 52.6489 50.2924 52.8924 51.1967 52.9359ZM50.2054 53.8749C47.6926 53.6662 46.8665 49.9187 49.5794 49.3709C53.6313 47.8318 54.7008 54.6923 50.2054 53.8749Z" fill="#1B1B1D" stroke="#1B1B1D"></path><path d="M64.0395 64.596C63.8997 62.8138 63.5882 61.0491 63.1091 59.3268C62.8407 58.1794 62.4682 57.0589 61.9962 55.9792C60.968 53.8804 59.6828 51.9177 58.1703 50.136C56.0743 47.5474 53.515 45.3714 50.6229 43.7191C49.4358 43.1891 48.2089 42.753 46.9536 42.4148C46.7884 42.5104 46.6232 42.6148 46.458 42.7017C47.0319 42.9974 47.6405 43.2582 48.197 43.5712C50.192 44.6323 52.0371 45.9539 53.6836 47.5014C56.981 50.1671 59.5528 53.6212 61.1614 57.5443C62.1932 60.6296 62.7417 63.8559 62.7874 67.1089C62.8003 69.0838 62.6433 71.0562 62.3179 73.0042C61.9875 77.1518 61.2136 81.2472 60.5267 85.3426C59.918 88.3772 59.5007 91.4291 58.9442 94.4898C58.585 95.8217 58.2948 97.1713 58.0747 98.5331C58.0574 98.6804 58.0574 98.8292 58.0747 98.9765C58.0937 99.1124 58.1615 99.2369 58.2655 99.3265C58.3695 99.4161 58.5026 99.4647 58.6399 99.4634C58.7605 99.461 58.8769 99.4181 58.9703 99.3417C59.1312 99.1967 59.2358 98.9997 59.2659 98.7852C59.4137 98.3244 59.5181 97.8461 59.6746 97.394C60.8265 93.4477 61.721 89.4308 62.3526 85.3686C63.0873 81.4149 63.5723 77.4189 63.8048 73.4042C63.9004 71.9695 64.1352 70.5435 64.1786 69.1175C64.2221 67.6915 64.1525 66.0916 64.0395 64.596Z" fill="#1B1B1D" stroke="#1B1B1D"></path><path d="M43.0756 57.9357C43.0756 57.1357 43.0756 56.3358 43.0756 55.5445C42.9974 53.675 43.0061 51.8056 42.98 49.9362C42.98 48.3971 43.0582 46.8581 43.1278 45.3277C43.1886 45.0756 43.0582 44.3365 43.3713 44.2843C43.6843 44.2322 43.5973 44.5626 43.6147 44.7365C43.719 46.1451 43.6756 47.5537 43.7277 48.971C43.7277 49.9535 43.8147 50.9361 43.8668 51.9186C43.8668 52.3882 43.8668 52.8577 43.8668 53.3272V53.962C43.8668 54.362 43.8668 54.7619 43.8668 55.1619C43.8668 55.6401 43.8668 56.1184 43.8668 56.5966V56.7096C43.8668 56.8227 43.8668 56.9357 43.8668 57.0487C43.8668 57.3096 43.8495 57.5705 43.8147 57.8313C43.8147 57.9704 43.8147 58.1096 43.8147 58.24V58.4139C43.7529 58.4549 43.6801 58.4761 43.606 58.4748C43.4645 58.4725 43.3296 58.4147 43.2304 58.3138C43.1312 58.213 43.0756 58.0771 43.0756 57.9357Z" fill="#1B1B1D" stroke="#1B1B1D"></path><path d="M41.6059 58.5964C40.3364 58.5355 39.0843 58.4486 37.8235 58.4572C36.8149 58.4572 35.8236 58.3616 34.8237 58.2573C34.7344 58.2606 34.6472 58.2295 34.5802 58.1703C34.3107 57.7442 35.7106 57.9355 35.928 57.9094C36.7975 57.9094 37.7452 57.9529 38.6495 57.9094C39.7886 57.866 40.919 58.0225 42.058 57.9877C42.5297 57.9486 43.0037 57.9486 43.4754 57.9877C43.5244 58.0048 43.5677 58.0353 43.6004 58.0757C43.633 58.1162 43.6537 58.165 43.66 58.2166C43.6664 58.2682 43.6582 58.3205 43.6363 58.3676C43.6144 58.4148 43.5797 58.4549 43.5362 58.4833C42.9014 58.6123 42.2514 58.6504 41.6059 58.5964Z" fill="#1B1B1D" stroke="#1B1B1D"></path><path d="M34.1806 47.9797C34.1254 46.3556 34.166 44.7297 34.3023 43.1104C34.3458 42.9278 34.3806 42.7191 34.5632 42.6409C34.5968 42.6274 34.6329 42.6215 34.6689 42.6237C34.705 42.626 34.7402 42.6362 34.7718 42.6537C34.8034 42.6711 34.8308 42.6955 34.8519 42.7248C34.8729 42.7542 34.8872 42.7879 34.8936 42.8235C34.8328 44.5625 34.8936 46.258 34.8936 47.9797C34.8697 48.0554 34.8222 48.1216 34.7581 48.1686C34.694 48.2155 34.6166 48.2408 34.5371 48.2408C34.4576 48.2408 34.3802 48.2155 34.3161 48.1686C34.252 48.1216 34.2046 48.0554 34.1806 47.9797Z" fill="#1B1B1D" stroke="#1B1B1D"></path><path d="M34.3805 57.5443C34.3805 53.9271 34.3805 50.31 34.25 46.6928C34.25 46.4754 34.0327 42.467 34.4761 43.0843C34.8804 46.9512 35.0025 50.8424 34.8414 54.7271C34.8414 55.6749 34.8413 56.6313 34.7718 57.5704C34.7109 57.7965 34.3805 57.7878 34.3805 57.5443Z" fill="#1B1B1D" stroke="#1B1B1D"></path><path d="M34.25 57.0573C34.0848 54.3966 34.137 51.7359 34.0761 49.0752C33.9631 47.0231 34.0761 44.9798 34.0761 42.9364C34.0636 42.9059 34.0581 42.8729 34.0602 42.8399C34.0624 42.8069 34.072 42.7749 34.0883 42.7462C34.1047 42.7175 34.1274 42.6929 34.1547 42.6743C34.1819 42.6557 34.2131 42.6435 34.2458 42.6388C34.2785 42.634 34.3119 42.6367 34.3433 42.6468C34.3748 42.6568 34.4035 42.6739 34.4274 42.6967C34.4513 42.7196 34.4697 42.7475 34.4811 42.7785C34.4925 42.8095 34.4968 42.8427 34.4935 42.8756C34.6152 44.8841 34.4935 46.8927 34.6761 48.8926C34.8587 50.8925 34.6761 53.101 34.7283 55.2139C34.7283 55.8139 34.7283 56.4226 34.7283 57.0225C34.7272 57.0764 34.7076 57.1284 34.6727 57.1695C34.6379 57.2107 34.5899 57.2386 34.5369 57.2486C34.5054 57.2577 34.4722 57.2597 34.4398 57.2547C34.4074 57.2496 34.3765 57.2376 34.3492 57.2194C34.3219 57.2012 34.2988 57.1773 34.2817 57.1493C34.2646 57.1213 34.2538 57.0899 34.25 57.0573Z" fill="#1B1B1D" stroke="#1B1B1D"></path><path d="M43.1364 58.1529C42.8582 55.5444 42.9712 52.988 42.9277 50.4056C42.9277 47.9709 42.9277 45.5189 43.0494 43.093C43.0601 43.0531 43.0816 43.0169 43.1115 42.9883C43.1413 42.9597 43.1784 42.9399 43.2187 42.9309C43.2591 42.922 43.3011 42.9242 43.3402 42.9375C43.3793 42.9507 43.4141 42.9744 43.4407 43.006C43.5932 43.5516 43.6549 44.1186 43.6233 44.6842C43.7711 47.3884 43.7538 50.1012 43.7451 52.8054C43.7451 54.2401 43.7451 55.6661 43.6755 57.0921C43.6755 57.4399 43.6755 57.7964 43.632 58.1442C43.6217 58.2033 43.5906 58.2568 43.5444 58.295C43.4982 58.3333 43.4398 58.3538 43.3798 58.3529C43.3221 58.3538 43.266 58.3342 43.2214 58.2976C43.1768 58.261 43.1467 58.2097 43.1364 58.1529Z" fill="#1B1B1D" stroke="#1B1B1D"></path><path d="M2.86957 122.114C2.82609 118.871 2.86956 115.619 2.69565 112.384C2.69565 111.95 2.65219 111.515 2.62611 111.08C2.62406 111.07 2.6199 111.06 2.61393 111.051C2.60795 111.042 2.60026 111.035 2.59132 111.029C2.58237 111.023 2.57238 111.02 2.56192 111.018C2.55145 111.016 2.54073 111.017 2.53044 111.019C2.53044 111.019 2.46959 111.019 2.4609 111.089C2.4522 111.158 2.4609 111.219 2.4609 111.263C2.83479 116.68 2.30436 122.166 2.71303 127.549C2.73858 127.575 2.77136 127.592 2.80713 127.6C2.8429 127.607 2.88003 127.603 2.91372 127.589C2.94742 127.575 2.97614 127.551 2.99617 127.521C3.01619 127.49 3.0266 127.455 3.02607 127.418C3.02607 126.975 3.02607 126.549 3.02607 126.07C2.94782 124.749 2.86957 123.436 2.86957 122.114Z" fill="#1B1B1D" stroke="#1B1B1D"></path><path d="M3.60837 125.366C3.51272 121.227 3.67795 117.08 3.52144 112.941C3.52019 112.924 3.51485 112.908 3.50594 112.893C3.49704 112.879 3.48481 112.867 3.47028 112.859C3.45575 112.85 3.43935 112.845 3.42252 112.844C3.40568 112.844 3.38894 112.847 3.37364 112.854C3.34063 112.874 3.31615 112.905 3.30491 112.942C3.29368 112.979 3.29648 113.019 3.31277 113.054C3.46928 117.593 3.16495 122.14 3.31277 126.679C3.35082 127.483 3.43207 128.284 3.5562 129.079C3.57683 129.113 3.60817 129.14 3.64541 129.155C3.68266 129.169 3.72372 129.171 3.76228 129.161C3.80083 129.15 3.83477 129.126 3.85881 129.094C3.88285 129.062 3.89568 129.023 3.89532 128.983C3.89532 128.714 3.82578 128.444 3.79969 128.175C3.71274 127.236 3.64315 126.296 3.60837 125.366Z" fill="#1B1B1D" stroke="#1B1B1D"></path><path d="M4.817 130.687C4.73875 129.774 4.71265 128.888 4.69526 127.957C4.69526 124.244 4.61699 120.532 4.79089 116.827C4.79089 116.723 4.62574 116.732 4.62574 116.827C4.47792 119.714 4.52139 122.61 4.40836 125.523C4.40836 127.096 4.3388 128.679 4.40836 130.261C4.46053 130.531 4.29528 131.201 4.64309 131.27C4.69783 131.277 4.75312 131.263 4.79922 131.233C4.84533 131.203 4.87933 131.158 4.89528 131.105C4.8692 130.948 4.817 130.818 4.817 130.687Z" fill="#1B1B1D" stroke="#1B1B1D"></path><path d="M5.84305 112.489C5.84305 112.451 5.82792 112.414 5.80102 112.387C5.77411 112.36 5.73765 112.345 5.6996 112.345C5.66155 112.345 5.62503 112.36 5.59813 112.387C5.57122 112.414 5.55609 112.451 5.55609 112.489C5.60827 115.775 5.40827 119.062 5.44305 122.349C5.4528 122.396 5.47849 122.438 5.51571 122.468C5.55293 122.499 5.59944 122.515 5.64743 122.515C5.69542 122.515 5.74193 122.499 5.77915 122.468C5.81637 122.438 5.84201 122.396 5.85175 122.349C5.85175 122.062 5.85175 121.766 5.85175 121.479C5.83436 118.462 5.87783 115.471 5.84305 112.489Z" fill="#1B1B1D" stroke="#1B1B1D"></path><path d="M6.86893 116.288C6.72111 119.358 6.49506 122.427 6.39941 125.497C6.39941 125.566 6.42692 125.632 6.47584 125.681C6.52476 125.73 6.59107 125.757 6.66026 125.757C6.72944 125.757 6.79581 125.73 6.84473 125.681C6.89365 125.632 6.9211 125.566 6.9211 125.497C6.9211 124.627 6.92109 123.758 6.96456 122.888C7.04282 120.697 7.13848 118.54 7.30369 116.315C7.3054 116.286 7.30146 116.257 7.29212 116.23C7.28278 116.203 7.26821 116.178 7.24924 116.157C7.21092 116.114 7.15702 116.088 7.09936 116.084C7.07082 116.082 7.04222 116.086 7.01519 116.096C6.98817 116.105 6.96325 116.12 6.94185 116.139C6.89864 116.177 6.87239 116.231 6.86893 116.288Z" fill="#1B1B1D" stroke="#1B1B1D"></path><path d="M8.10408 119.28C8.03452 120.149 8.03449 120.949 7.96493 121.775C7.87798 122.853 7.8171 123.914 7.79102 125.027C7.79102 125.096 7.81852 125.163 7.86744 125.211C7.91636 125.26 7.98268 125.288 8.05186 125.288C8.12104 125.288 8.18741 125.26 8.23633 125.211C8.28525 125.163 8.31275 125.096 8.31275 125.027C8.31275 123.653 8.39099 122.279 8.45185 120.914C8.44567 120.351 8.47475 119.787 8.53884 119.227C8.49536 118.88 8.08669 118.993 8.10408 119.28Z" fill="#1B1B1D" stroke="#1B1B1D"></path><path d="M75.43 124.879C75.43 121.401 75.5083 118.001 75.43 114.558C75.43 113.854 75.3865 113.132 75.3517 112.428C75.2996 112.228 75.4387 111.75 75.1605 111.732C74.8822 111.715 75.0039 111.976 74.9952 112.115C74.9952 113.167 75.0648 114.228 75.0561 115.28C75.1257 119.323 74.7952 123.384 75.1256 127.453C75.1256 127.501 75.1449 127.548 75.1791 127.582C75.2134 127.616 75.2598 127.636 75.3083 127.636C75.3567 127.636 75.4031 127.616 75.4374 127.582C75.4716 127.548 75.4909 127.501 75.4909 127.453C75.4735 126.557 75.43 125.714 75.43 124.879Z" fill="#1B1B1D" stroke="#1B1B1D"></path><path d="M74.3171 114.262C74.3171 114.262 74.3171 114.367 74.3171 114.419C74.2127 119.071 74.3171 123.714 74.1084 128.331C74.1084 128.47 74.3258 128.462 74.3258 128.331C74.3779 127.418 74.4127 126.514 74.4388 125.601C74.5605 121.853 74.4388 118.097 74.5432 114.349C74.5953 114.262 74.3779 114.132 74.3171 114.262Z" fill="#1B1B1D" stroke="#1B1B1D"></path><path d="M72.4478 112.419C72.4478 112.371 72.4285 112.324 72.3943 112.29C72.36 112.256 72.3136 112.237 72.2651 112.237C72.2167 112.237 72.1703 112.256 72.136 112.29C72.1018 112.324 72.0825 112.371 72.0825 112.419C72.1608 117.636 72.1869 122.853 72.2825 128.027C72.2825 128.091 72.3082 128.153 72.3538 128.199C72.3995 128.245 72.4614 128.27 72.526 128.27C72.5905 128.27 72.6525 128.245 72.6981 128.199C72.7438 128.153 72.7695 128.091 72.7695 128.027C72.7695 126.592 72.7173 125.149 72.6912 123.679C72.639 119.949 72.5086 116.184 72.4478 112.419Z" fill="#1B1B1D" stroke="#1B1B1D"></path><path d="M70.7085 115.801C70.752 119.279 70.8389 122.818 70.8389 126.331C70.8486 126.378 70.8743 126.42 70.9115 126.451C70.9487 126.481 70.9952 126.498 71.0432 126.498C71.0912 126.498 71.1378 126.481 71.175 126.451C71.2122 126.42 71.2378 126.378 71.2476 126.331C71.2476 122.853 71.0911 119.314 71.065 115.801C71.056 115.761 71.0334 115.725 71.001 115.699C70.9686 115.673 70.9283 115.658 70.8867 115.658C70.8452 115.658 70.8049 115.673 70.7724 115.699C70.74 115.725 70.7175 115.761 70.7085 115.801Z" fill="#1B1B1D" stroke="#1B1B1D"></path><path d="M69.7611 122.932C69.648 121.927 69.587 120.917 69.5784 119.906C69.595 119.888 69.6073 119.866 69.6144 119.843C69.6216 119.819 69.6234 119.794 69.6198 119.77C69.6162 119.746 69.6072 119.723 69.5935 119.702C69.5798 119.682 69.5618 119.665 69.5407 119.652C69.5196 119.64 69.496 119.632 69.4716 119.63C69.4472 119.628 69.4226 119.631 69.3995 119.639C69.3765 119.648 69.3556 119.661 69.3385 119.679C69.3213 119.696 69.3082 119.717 69.3002 119.74C69.2437 120.24 69.2437 120.745 69.3002 121.245C69.3611 122.114 69.4567 123.062 69.5089 123.958C69.7176 126.757 69.7524 129.583 69.7698 132.392C69.7698 132.433 69.7863 132.473 69.8156 132.503C69.845 132.532 69.8848 132.548 69.9263 132.548C69.9678 132.548 70.0076 132.532 70.0369 132.503C70.0663 132.473 70.0828 132.433 70.0828 132.392C70.0828 129.896 70.0828 127.383 69.8915 124.897C69.8567 124.253 69.8219 123.575 69.7611 122.932Z" fill="#1B1B1D" stroke="#1B1B1D"></path><path d="M68.5174 121.888C68.5174 121.833 68.4954 121.78 68.4563 121.741C68.4172 121.701 68.3641 121.679 68.3088 121.679C68.2541 121.682 68.2023 121.704 68.1636 121.743C68.1249 121.782 68.1022 121.833 68.1001 121.888C68.1001 122.592 68.1001 123.305 68.1001 124.018C68.1001 124.731 68.1783 125.575 68.2305 126.366C68.3001 127.357 68.3696 128.349 68.4218 129.366C68.4218 129.426 68.4456 129.483 68.488 129.526C68.5304 129.568 68.5879 129.592 68.6478 129.592C68.7078 129.592 68.7653 129.568 68.8077 129.526C68.8501 129.483 68.8739 129.426 68.8739 129.366C68.8044 128.357 68.7348 127.366 68.6565 126.357C68.5176 124.872 68.4711 123.379 68.5174 121.888Z" fill="#1B1B1D" stroke="#1B1B1D"></path><path d="M70.9523 6.84307C70.8045 5.20839 71.1262 3.56501 70.9001 1.94772C70.6741 0.330425 68.2916 0.69562 67.0135 0.643449C65.0426 0.573888 63.0687 0.492735 61.092 0.399987C54.3533 0.28695 47.6059 0.10436 40.8585 0.12175C29.781 0.269567 18.5556 -0.556473 7.57362 0.782574C6.86063 0.869525 7.22585 4.40843 7.22585 4.85188C7.22585 6.04311 7.22586 7.23434 7.28672 8.42557C7.24152 8.98252 7.26191 9.54285 7.34754 10.095C7.53878 10.3755 7.78416 10.615 8.06925 10.7993C11.2256 15.06 15.0775 18.8075 18.6599 22.729C22.3292 27.2766 26.8159 31.0503 30.8331 35.25C30.2505 36.6064 30.5983 38.215 30.4505 39.6584C30.32 40.4844 30.6592 43.2321 31.5809 43.0234C32.1721 43.1452 39.8673 43.1799 43.1105 43.2234C44.2844 43.2234 45.493 43.0843 46.6756 43.0843C47.9364 42.7887 47.3886 40.841 47.4755 39.8671C47.3277 38.415 47.6755 36.8151 47.0929 35.4587C51.1188 31.2589 55.6054 27.4853 59.2661 22.929C61.179 20.8422 63.1615 18.8075 65.0744 16.712C66.0309 15.6686 66.97 14.6078 67.8743 13.5209C68.7786 12.434 69.7524 11.5558 70.4828 10.5124C71.2132 9.46899 70.9523 6.85176 70.9523 6.84307ZM45.5278 42.3539C42.8758 42.2061 40.2064 42.1539 37.5457 42.2148C35.9545 42.2669 34.3546 42.267 32.7634 42.3191C32.4765 42.3191 31.8938 42.4061 31.6417 42.4148C31.4243 39.6845 31.5287 37.8237 31.4243 35.5717C36.4849 35.3804 41.5019 36.1717 46.5364 35.7282C46.6408 36.7456 46.5364 39.5106 46.4321 42.2669C46.2582 42.2669 45.6843 42.3452 45.5278 42.3539ZM64.4484 15.7295C58.3328 22.0595 52.281 28.4359 46.293 34.8587C41.4375 34.5009 36.5643 34.4515 31.7026 34.7109C24.1117 26.5375 16.3818 18.4771 8.60835 10.4428C28.8245 10.808 49.1363 11.4254 69.335 10.6341C67.709 12.3297 66.0396 13.9991 64.4484 15.7295ZM69.4394 9.95592C69.234 9.93854 69.0274 9.93854 68.822 9.95592C49.4319 9.82549 29.8505 10.6167 10.4256 9.6255C9.87393 7.05402 9.60569 4.42982 9.62571 1.7999C9.63111 1.77812 9.63146 1.7554 9.62677 1.73346C9.62209 1.71151 9.61247 1.69091 9.59865 1.67323C9.58482 1.65556 9.56713 1.64127 9.54695 1.63144C9.52678 1.62161 9.50465 1.6165 9.48221 1.6165C9.45977 1.6165 9.43763 1.62161 9.41746 1.63144C9.39729 1.64127 9.3796 1.65556 9.36577 1.67323C9.35194 1.69091 9.34233 1.71151 9.33764 1.73346C9.33296 1.7554 9.33336 1.77812 9.33876 1.7999C9.30171 4.42341 9.52012 7.04431 9.99089 9.6255C9.49527 9.6255 8.99963 9.67768 8.50401 9.73854C8.08664 6.93872 8.20837 4.03455 8.06925 1.20864C8.51818 1.13791 8.97134 1.09725 9.42569 1.08691C22.7379 1.03474 36.0675 1.8086 49.3623 1.19125C56.1184 0.904306 62.8398 1.55644 69.5872 1.58252C69.4481 1.76512 69.7698 7.39956 69.4394 9.95592Z" fill="#1B1B1D" stroke="#1B1B1D"></path><path d="M32.0675 36.0239C32.0342 36.0279 32.0027 36.041 31.9763 36.0618C31.95 36.0826 31.9298 36.1102 31.9182 36.1416C31.9065 36.173 31.9037 36.2071 31.9101 36.24C31.9165 36.2729 31.9319 36.3035 31.9545 36.3282C32.224 38.1194 32.0588 39.9541 32.1892 41.754C32.8761 42.6235 32.424 39.2237 32.5196 38.8672C32.4674 38.4672 32.5544 35.9109 32.0675 36.0239Z" fill="#1B1B1D" stroke="#1B1B1D"></path><path d="M32.8849 36.0586C32.8849 35.9195 32.6675 35.9282 32.6936 36.0586C32.8964 38.0052 32.9777 39.9625 32.9371 41.9191C33.6153 42.6495 32.9197 36.6151 32.8849 36.0586Z" fill="#1B1B1D" stroke="#1B1B1D"></path><path d="M33.5806 36.9544C33.7892 37.3543 33.4936 41.2323 33.9719 40.5541C33.9197 40.1542 34.0675 36.337 33.5806 36.9544Z" fill="#1B1B1D" stroke="#1B1B1D"></path><path d="M34.4586 37.6326C34.0499 37.9543 34.4064 38.8412 34.302 39.3716C34.3105 39.4079 34.331 39.4402 34.3602 39.4634C34.3894 39.4865 34.4256 39.4991 34.4629 39.4991C34.5002 39.4991 34.5364 39.4865 34.5656 39.4634C34.5948 39.4402 34.6153 39.4079 34.6238 39.3716C34.5194 38.8412 34.8759 37.9543 34.4586 37.6326Z" fill="#1B1B1D" stroke="#1B1B1D"></path><path d="M26.5548 26.5637C22.8978 22.7088 19.5432 18.578 16.5206 14.2079C14.8338 13.6427 30.5024 31.9459 26.5548 26.5637Z" fill="#1B1B1D" stroke="#1B1B1D"></path><path d="M26.8591 25.8331C24.8766 23.2246 22.6942 20.7378 20.5378 18.2597C20.0074 18.1292 20.8682 18.9292 20.9551 19.077C22.3724 20.3639 32.7631 33.7022 26.8591 25.8331Z" fill="#1B1B1D" stroke="#1B1B1D"></path><path d="M29.8764 27.2418C28.1374 24.9115 26.1201 22.8334 24.3724 20.5292C24.3662 20.5129 24.3562 20.4982 24.3433 20.4864C24.3304 20.4745 24.315 20.4658 24.2982 20.461C24.2814 20.4561 24.2637 20.4552 24.2465 20.4584C24.2293 20.4615 24.213 20.4687 24.199 20.4792C24.185 20.4897 24.1736 20.5033 24.1658 20.5189C24.158 20.5345 24.1539 20.5518 24.1538 20.5693C24.1538 20.5868 24.1578 20.604 24.1655 20.6197C24.1733 20.6354 24.1846 20.6491 24.1985 20.6596C25.0593 21.7204 35.1631 34.3457 29.8764 27.2418Z" fill="#1B1B1D" stroke="#1B1B1D"></path><path d="M10.9038 8.40822C10.6516 6.73876 10.5386 5.0519 10.4343 3.36505C10.4343 3.25201 10.269 3.25201 10.269 3.36505C10.4082 3.88676 10.4603 9.06905 10.9038 8.40822Z" fill="#1B1B1D" stroke="#1B1B1D"></path><path d="M11.7733 6.35607C11.6168 6.04305 11.6255 2.93889 11.0864 3.90405C11.2342 4.22576 11.1821 7.46035 11.7733 6.35607Z" fill="#1B1B1D" stroke="#1B1B1D"></path><path d="M69.0305 9.18199C68.9088 7.58209 69.1784 5.70394 68.9175 4.24316C68.5871 4.24316 68.7262 5.11268 68.6828 5.33876C68.7697 5.71265 68.4393 10.0515 69.0305 9.18199Z" fill="#1B1B1D" stroke="#1B1B1D"></path><path d="M68.2914 8.38205C68.6305 7.43428 68.2306 6.06914 68.4045 4.99095C68.0045 4.10405 68.048 8.39074 68.2914 8.38205Z" fill="#1B1B1D" stroke="#1B1B1D"></path><path d="M64.1788 14.0687L59.9442 18.5293C59.9237 18.5481 59.9072 18.5709 59.896 18.5963C59.8848 18.6218 59.8789 18.6493 59.8789 18.6771C59.8789 18.7049 59.8848 18.7325 59.896 18.7579C59.9072 18.7834 59.9237 18.8062 59.9442 18.8249C60.5529 18.938 61.0746 17.7467 61.5876 17.3989C63.3266 15.6599 64.8396 13.6861 66.6829 12.0688C66.7138 12.066 66.743 12.0536 66.7664 12.0333C66.7898 12.013 66.8062 11.9859 66.8133 11.9558C66.7873 11.0341 64.4396 13.8774 64.1788 14.0687Z" fill="#1B1B1D" stroke="#1B1B1D"></path><path d="M62.605 14.5296C62.605 13.6601 60.753 16.7208 60.4225 16.9208C60.1965 17.3642 59.3878 17.7903 59.4922 18.3033C60.7095 17.4947 61.5703 15.7035 62.605 14.5296Z" fill="#1B1B1D" stroke="#1B1B1D"></path><path d="M60.2573 16.199C61.0051 15.1816 61.7181 14.1295 62.5529 13.1905C62.5736 13.1905 62.5935 13.1822 62.6082 13.1675C62.6228 13.1529 62.6311 13.1329 62.6311 13.1122C62.6311 13.0914 62.6228 13.0715 62.6082 13.0569C62.5935 13.0422 62.5736 13.0339 62.5529 13.0339C62.2746 13.2513 59.5965 16.4163 60.2573 16.199Z" fill="#1B1B1D" stroke="#1B1B1D"></path><path d="M77.8561 110.437C77.6387 109.037 78.1865 107.124 77.2648 105.993C72.8651 99.2894 57.0139 99.1938 49.4926 98.5504C38.8324 98.3243 6.77352 96.4983 0.678245 105.793C-0.243437 106.915 0.30437 108.828 0.0956875 110.228C-0.147776 114.836 0.182639 119.445 0.0956875 124.053C0.217419 126.105 -0.208642 130.801 0.965199 132.305C3.73024 134.844 7.92129 135.922 11.3993 136.8C15.9457 137.887 20.5625 138.654 25.2159 139.096C30.838 139.741 36.4952 140.032 42.1539 139.965C46.8069 139.859 51.4509 139.505 56.0661 138.904C60.5486 138.382 64.9787 137.48 69.3088 136.209C70.829 135.752 72.3141 135.186 73.752 134.513C74.7519 134.044 76.2735 133.4 76.9604 132.487C78.1256 130.966 77.7082 126.314 77.83 124.244C77.7604 119.653 78.0908 115.045 77.8561 110.437ZM35.9804 109.28C37.4499 109.419 39.4585 109.324 40.9801 109.463C41.4497 109.524 40.9801 108.95 40.5105 108.95C39.4063 109.011 36.8847 108.567 35.8674 109.028C35.8674 108.906 35.8674 108.785 35.8674 108.663C36.8412 107.524 38.0846 106.663 39.1628 105.628C39.2324 105.733 40.9888 108.237 41.8235 109.28C41.8235 110.437 41.7018 112.645 41.7801 113.689C39.8845 113.689 37.989 113.628 36.0848 113.567C36.476 112.697 35.963 109.967 35.9804 109.28ZM32.3545 114.567C41.7974 115.436 51.3273 114.567 60.6398 112.88C64.7265 112.097 74.9258 111.228 76.9691 107.454C76.3518 115.575 76.8388 123.749 76.2997 131.87C70.9184 134.545 65.1733 136.414 59.2485 137.417C56.0867 137.991 52.8924 138.369 49.6839 138.548C46.458 138.722 43.2495 138.548 40.0236 138.617C39.2324 138.617 38.4411 138.617 37.6499 138.617C34.6935 138.617 31.7459 138.496 28.7983 138.313C22.9418 138.014 17.1347 137.084 11.4776 135.539C8.07708 134.57 4.78026 133.268 1.63471 131.653C1.09562 123.531 1.58255 115.358 0.965199 107.237C3.21723 112.089 26.5549 113.958 32.3545 114.567ZM3.73894 104.228C4.74757 103.733 5.86053 103.359 6.4344 103.15C9.01739 102.126 11.6816 101.321 14.3992 100.742C20 99.602 25.6999 99.0194 31.4155 99.0025C35.1457 98.9503 38.8585 99.1764 42.58 99.2112C48.2417 99.1554 53.9007 99.4836 59.5181 100.194C62.2823 100.568 65.0145 101.149 67.6915 101.933C69.0141 102.329 70.3145 102.796 71.5869 103.333C72.8822 103.792 74.1127 104.418 75.2475 105.193L75.3084 105.246C76.1779 105.932 76.8475 106.741 75.9171 107.672C74.9514 108.47 73.8196 109.044 72.6042 109.35C69.5847 110.319 66.4772 110.989 63.3265 111.35C60.1702 111.758 57.04 112.289 53.8923 112.749C51.962 113.036 50.0317 113.289 48.084 113.462C47.5971 113.506 42.2409 113.741 42.2409 113.697C42.3789 112.183 42.4225 110.661 42.3713 109.141C42.7017 108.854 39.6236 104.611 38.9367 105.054C38.5455 105.646 34.6674 108.671 35.5196 109.063C35.4587 110.541 35.3891 112.063 35.3544 113.541C35.3544 113.602 31.2937 113.289 31.0068 113.271C28.207 113.019 25.3985 112.723 22.6073 112.402C19.3815 112.002 16.1643 111.532 12.9731 110.95C10.2653 110.507 7.59644 109.853 4.99104 108.993C3.9911 108.645 1.65212 107.941 1.51299 106.593C1.46952 105.585 2.53902 104.811 3.73894 104.228Z" fill="#1B1B1D" stroke="#1B1B1D"></path><path d="M51.5618 85.3687C51.5922 84.9693 51.5922 84.5682 51.5618 84.1688C51.5618 83.734 51.5618 83.2993 51.5183 82.8732C51.5183 82.0037 51.4661 81.1342 51.5183 80.1951C50.734 79.1031 49.8169 78.113 48.788 77.2475C48.7559 77.0879 48.6907 76.9368 48.5967 76.804C48.7532 76.804 48.8663 76.5693 48.8489 76.404C49.0663 76.091 48.9619 74.7781 48.5707 74.665C43.3536 74.152 38.0235 74.6042 32.7629 74.5955C32.4064 74.6476 29.2849 74.3694 29.3544 74.9607C29.2762 75.3172 28.9719 76.8127 29.4327 77.0127C28.2348 77.8968 27.2092 78.9931 26.4068 80.2473C26.3834 80.2594 26.3642 80.2784 26.3518 80.3017C26.3394 80.325 26.3343 80.3515 26.3372 80.3777C26.8416 81.9515 25.9373 85.8469 26.7807 86.6469C27.5198 87.299 29.5631 86.7599 30.6326 86.9512C31.6065 86.8034 35.2062 87.3164 35.554 86.6034C35.3019 85.9165 30.7804 86.4469 29.737 86.2469C30.0326 75.465 29.2414 75.5693 29.3892 86.2469C28.7371 86.2469 28.0937 86.2469 27.4502 86.3078C27.4502 84.3079 27.2676 82.2993 27.3372 80.3081C27.5384 80.0356 27.7131 79.7444 27.8589 79.4386C28.0502 79.1604 28.2589 78.8995 28.4763 78.6387C28.6936 78.3778 28.9806 78.0822 29.2327 77.8126C29.4849 77.5431 29.9457 77.2388 29.7805 76.9431C35.7367 76.8475 41.7537 77.1431 47.7011 76.7779C47.8837 77.2736 48.4924 77.4996 48.7967 77.9344C48.562 87.2729 49.1271 88.1077 49.0054 78.1605C49.2315 78.4039 49.4489 78.6561 49.6575 78.9082C49.2837 86.0556 49.9445 88.1685 49.7271 79.0039C49.901 79.2126 50.0662 79.4299 50.2227 79.656C49.6923 85.7426 50.7009 88.6989 50.3966 79.8821C50.53 80.0496 50.6411 80.2337 50.727 80.4299C50.8053 82.4298 50.6401 84.4383 50.6227 86.4382C48.0142 86.2991 45.4056 86.4382 42.7971 86.4382C42.7194 86.4404 42.6455 86.4722 42.5905 86.5272C42.5355 86.5822 42.5037 86.6561 42.5015 86.7338C42.7189 87.2729 44.0144 87.1164 44.4492 87.1077C45.7882 87.1077 47.1273 87.0295 48.4663 87.1077C49.414 87.233 50.378 87.1256 51.2748 86.7947C51.7704 86.5513 51.5009 85.8122 51.5618 85.3687ZM43.1275 76.1519C38.693 76.2649 34.2237 76.3953 29.8066 76.7432C29.8066 76.2301 29.711 75.6389 29.6588 75.0998C35.841 75.2215 42.0754 75.465 48.2489 75.0998C48.3057 75.5094 48.3057 75.9249 48.2489 76.3345C46.5483 76.1511 44.8374 76.0814 43.1275 76.1258V76.1519Z" fill="#1B1B1D" stroke="#1B1B1D"></path><path d="M28.6941 79.056C28.6877 79.0344 28.6744 79.0156 28.6564 79.0021C28.6384 78.9887 28.6165 78.9814 28.5941 78.9814C28.5716 78.9814 28.5497 78.9887 28.5317 79.0021C28.5137 79.0156 28.5005 79.0344 28.4941 79.056C28.4126 81.2539 28.462 83.4548 28.6419 85.6469C28.6662 85.6707 28.697 85.6869 28.7304 85.6934C28.7638 85.6999 28.7984 85.6965 28.8299 85.6835C28.8613 85.6705 28.8883 85.6486 28.9074 85.6205C28.9266 85.5923 28.9371 85.5592 28.9375 85.5251C28.8071 83.3687 28.755 81.2124 28.6941 79.056Z" fill="#1B1B1D" stroke="#1B1B1D"></path><path d="M30.537 77.2039C30.5115 77.2039 30.4864 77.2105 30.4641 77.223C30.4419 77.2356 30.4234 77.2537 30.4102 77.2756C30.3971 77.2975 30.3899 77.3224 30.3892 77.3479C30.3886 77.3735 30.3945 77.3987 30.4066 77.4212C30.2848 84.6903 31.2065 82.1514 30.537 77.2039Z" fill="#1B1B1D" stroke="#1B1B1D"></path><path d="M42.1103 86.5686C40.1365 86.7165 37.9714 86.3426 36.0933 86.7947C36.3628 86.8121 43.1798 87.1077 42.1103 86.5686Z" fill="#1B1B1D" stroke="#1B1B1D"></path><path d="M35.3715 110.724C35.0201 110.613 34.6463 110.592 34.2846 110.663C36.5019 109.272 34.076 107.046 32.5456 108.924C31.9717 108.106 30.0762 107.959 30.0936 109.124C29.0328 107.924 26.2329 108.637 27.572 110.419C27.2622 110.475 26.9678 110.596 26.7084 110.775C26.4491 110.953 26.2307 111.185 26.0677 111.454C25.8678 110.802 25.7895 109.576 26.7721 109.619C26.8166 109.617 26.8587 109.598 26.8894 109.565C26.9202 109.533 26.9373 109.49 26.9373 109.445C26.8851 109.106 26.1634 109.306 25.9808 109.445C25.3809 109.193 24.5896 109.75 24.0418 110.011C23.3027 109.228 21.355 108.654 20.8681 109.898C20.5706 109.7 20.2365 109.564 19.8855 109.498C19.416 108.385 17.7204 109.454 17.3639 110.367C16.4249 109.854 14.112 109.845 14.2163 111.289C14.3293 111.437 14.5554 111.289 14.4337 111.115C14.9641 110.054 16.5118 110.393 17.3813 110.845C17.6161 110.915 17.9639 111.254 18.1291 110.941C18.2943 110.628 17.9639 110.628 17.7987 110.55C17.9636 110.249 18.2239 110.011 18.5388 109.874C18.8536 109.737 19.205 109.709 19.5377 109.793C19.8247 110.089 20.4073 109.932 20.7638 110.245C20.7594 110.286 20.7594 110.327 20.7638 110.367C19.8508 109.898 17.6335 110.967 18.3812 112.037C19.1551 112.141 18.8421 110.376 20.8333 110.802C20.9011 111.041 21.0231 111.261 21.1898 111.445C20.8855 111.645 20.6855 111.854 20.8333 112.01C20.9811 112.167 21.2332 111.741 21.4767 111.68C21.5428 111.7 21.6138 111.696 21.6773 111.669C21.7408 111.642 21.7929 111.594 21.8245 111.532C22.9897 110.976 23.7288 112.402 24.207 111.871C24.407 111.445 23.807 111.289 23.5375 111.115C24.0874 110.662 24.7371 110.346 25.433 110.193C25.3722 110.619 25.2417 111.863 25.8938 111.767C25.4591 112.689 26.7634 113.506 26.6155 112.402C26.233 111.645 27.1807 110.845 27.9024 110.741C28.21 110.948 28.561 111.082 28.9284 111.132C28.7893 112.671 26.1112 112.671 26.1286 113.306C26.8242 113.915 28.8328 112.558 29.2154 111.784C29.6065 111.981 30.041 112.077 30.4786 112.061C30.9163 112.046 31.343 111.921 31.7196 111.697C32.1047 111.772 32.4588 111.96 32.7361 112.237C33.0135 112.515 33.2015 112.869 33.276 113.254C33.285 113.29 33.3013 113.324 33.3239 113.354C33.3465 113.384 33.3748 113.409 33.4073 113.428C33.4398 113.447 33.4757 113.459 33.5129 113.463C33.5501 113.467 33.5878 113.464 33.6238 113.454C34.3716 112.793 32.6413 111.567 31.9457 111.558C32.0938 111.481 32.2182 111.365 32.3055 111.223C32.3928 111.08 32.4397 110.917 32.4413 110.75C32.6139 110.867 32.8107 110.943 33.0169 110.973C33.2232 111.003 33.4337 110.986 33.6325 110.924C33.4238 111.106 32.6673 111.445 32.8586 111.793C32.9543 111.897 33.3108 111.654 33.389 111.558C34.2064 110.532 35.8585 111.132 35.3715 110.724ZM22.4506 110.915C22.208 110.952 21.973 111.028 21.755 111.141C20.5463 109.532 22.7462 109.567 23.7027 110.219C23.4538 110.422 23.242 110.666 23.0766 110.941C22.8727 110.884 22.6585 110.875 22.4506 110.915ZM32.3543 109.454C32.2895 109.564 32.2371 109.681 32.1978 109.802C31.6761 109.75 30.9109 109.663 30.8588 109.063C31.1218 108.975 31.4047 108.965 31.6732 109.034C31.9417 109.104 32.1843 109.25 32.3717 109.454H32.3543ZM28.0763 109.272C28.7632 108.95 29.9806 109.228 30.0414 110.089C29.7913 110.127 29.5583 110.239 29.3719 110.411C28.8589 110.428 27.5981 109.932 28.0937 109.272H28.0763ZM29.5197 111.115C29.5647 111.102 29.6068 111.08 29.6432 111.051C29.6796 111.021 29.7097 110.985 29.7316 110.943C29.7535 110.902 29.7668 110.856 29.7708 110.81C29.7747 110.763 29.7692 110.716 29.7545 110.671C30.0549 110.415 30.43 110.263 30.8239 110.237C31.0549 110.361 31.3046 110.446 31.5631 110.489C32.8847 111.193 29.3806 111.924 29.5371 111.115H29.5197ZM32.5978 110.167C32.5929 109.967 32.6409 109.769 32.7369 109.593C33.1542 109.706 33.4064 109.202 33.7543 109.063C35.9802 108.767 33.4586 111.306 32.6413 110.167H32.5978Z" fill="#1B1B1D" stroke="#1B1B1D"></path><path d="M65.8655 111.045C64.9265 110.115 63.5005 110.402 62.3875 110.88C62.0229 110.635 61.6022 110.485 61.1644 110.445C60.7266 110.406 60.2859 110.478 59.8833 110.654C59.6746 109.332 56.2748 109.863 56.7096 110.654C56.5201 110.663 56.3328 110.698 56.1531 110.758C56.2313 109.811 55.2835 109.376 54.414 109.611C53.9097 108.611 52.1533 108.906 51.6577 109.828C51.449 109.767 51.1621 109.645 50.9969 109.828C50.8143 109.672 50.1274 109.48 50.0404 109.828C50.0404 109.872 50.0578 109.914 50.0888 109.945C50.1198 109.976 50.1618 109.993 50.2056 109.993C51.1795 109.993 51.0751 111.176 50.9012 111.837C50.7415 111.566 50.5252 111.332 50.2671 111.152C50.0091 110.972 49.7153 110.85 49.4057 110.793C49.4057 110.793 49.6405 110.402 49.6665 110.35C49.7219 110.224 49.7514 110.088 49.7535 109.95C49.7564 109.835 49.7364 109.72 49.6946 109.612C49.6528 109.505 49.5901 109.407 49.51 109.324C49.3082 109.152 49.0711 109.028 48.8156 108.959C48.5601 108.89 48.2925 108.878 48.0319 108.924C47.6058 108.985 47.0841 109.611 46.1711 109.932C45.944 110.005 45.723 110.095 45.5103 110.202C45.2059 108.828 42.0322 108.628 42.0757 110.098C42.2665 109.867 42.5113 109.687 42.7884 109.574C43.0654 109.461 43.3661 109.418 43.6638 109.449C43.9614 109.48 44.2468 109.584 44.4946 109.752C44.7424 109.919 44.9449 110.146 45.0842 110.411C45.0842 110.411 44.5538 110.828 44.5451 110.95C44.5364 111.071 44.6147 111.176 44.5451 111.219C44.4755 111.263 44.2756 111.15 44.2234 111.132C43.9823 111.069 43.7335 111.04 43.4843 111.045C42.9957 111.048 42.5253 111.231 42.1627 111.558C41.9714 111.732 41.5975 112.019 41.8844 112.263C42.5626 112.463 42.7539 110.863 44.6407 112.045C44.4929 111.958 44.2843 112.167 44.1886 112.254C43.9539 112.471 43.6756 112.637 43.4582 112.863C43.2899 113.025 43.1825 113.24 43.1539 113.471C43.1539 113.61 43.1539 113.984 43.3973 113.871C44.0147 113.576 43.693 112.402 45.232 112.132C45.6093 112.354 46.0365 112.478 46.4741 112.492C46.9118 112.505 47.3458 112.409 47.7362 112.211C48.0318 112.871 50.0578 114.376 50.823 113.741C50.823 113.106 48.1536 113.097 48.0144 111.558C48.3859 111.514 48.741 111.379 49.0492 111.167C49.7709 111.271 50.7187 112.08 50.3274 112.837C50.1969 113.95 51.4925 113.115 51.0577 112.193C51.7099 112.289 51.5708 111.054 51.5186 110.628C52.2159 110.777 52.8665 111.093 53.4141 111.55C53.1359 111.724 52.5446 111.88 52.7446 112.297C53.2141 112.854 53.9706 111.428 55.1183 111.958C55.1514 112.021 55.2046 112.07 55.2693 112.099C55.3341 112.127 55.4065 112.133 55.4749 112.115C55.6922 112.193 55.8314 112.411 56.0314 112.48C56.3357 112.393 56.0922 112.08 55.7618 111.88C55.9268 111.695 56.0485 111.475 56.1183 111.237C56.4284 111.148 56.7577 111.15 57.0664 111.244C57.375 111.339 57.6497 111.52 57.8573 111.767C58.0399 111.984 58.1008 112.489 58.4225 112.489C59.4399 112.019 57.7356 110.628 57.0574 110.75C57.7878 110.437 59.0051 110.054 59.5094 110.889C59.3042 111.007 59.0889 111.105 58.8659 111.185C58.492 112.263 60.9788 110.132 62.1875 111.185C62.1353 111.324 62.3092 111.437 62.431 111.393C62.481 111.457 62.5166 111.531 62.5353 111.611C62.431 112.106 63.0831 111.724 62.6744 111.245C63.5439 110.932 64.796 110.741 65.5003 111.55C65.5334 111.574 65.571 111.591 65.6107 111.6C65.6505 111.61 65.6917 111.611 65.7321 111.605C65.7725 111.599 65.8112 111.584 65.846 111.563C65.8808 111.541 65.9111 111.513 65.9351 111.48C65.959 111.447 65.9763 111.41 65.9857 111.37C65.9952 111.33 65.9968 111.289 65.9904 111.248C65.9839 111.208 65.9695 111.169 65.9481 111.134C65.9267 111.1 65.8987 111.069 65.8655 111.045ZM48.8492 109.715C49.3361 110.367 48.084 110.871 47.5449 110.854C47.3631 110.681 47.1323 110.569 46.8841 110.532C46.945 109.637 48.1623 109.359 48.8492 109.715ZM45.032 111.271C45.032 111.063 45.2233 111.028 45.3624 110.932C45.6186 110.886 45.8654 110.798 46.0928 110.672C46.4895 110.693 46.867 110.849 47.1623 111.115C47.149 111.16 47.1448 111.207 47.1498 111.254C47.1549 111.301 47.1692 111.346 47.1918 111.387C47.2144 111.429 47.245 111.465 47.2817 111.494C47.3184 111.524 47.3606 111.545 47.4058 111.558C47.4232 112.211 45.2059 111.802 45.032 111.245V111.271ZM52.2142 109.811C52.4714 109.563 52.8094 109.418 53.1658 109.4C53.5222 109.382 53.8729 109.494 54.1532 109.715C53.6866 109.846 53.2614 110.094 52.9185 110.437C52.6468 110.258 52.3549 110.112 52.049 110.002L52.2142 109.811ZM54.4923 111.35C54.2835 111.302 54.0665 111.302 53.8576 111.35C53.6996 111.072 53.4866 110.829 53.2315 110.637C54.1967 109.985 56.3965 109.941 55.1879 111.558C54.9693 111.445 54.7348 111.366 54.4923 111.324V111.35Z" fill="#1B1B1D" stroke="#1B1B1D"></path><path d="M35.0151 100.95C34.8673 101.255 34.5021 101.663 34.7456 102.002C34.4587 103.028 35.7369 103.428 36.3542 102.707C37.5889 101.811 36.1194 99.4807 35.0151 100.95ZM35.4847 102.689C35.1804 102.689 34.7456 101.907 35.4238 101.22C36.4499 100.411 36.6499 102.55 35.4847 102.672V102.689Z" fill="#1B1B1D" stroke="#1B1B1D"></path><path d="M40.7625 100.489C40.5746 100.516 40.4005 100.604 40.2671 100.739C40.1336 100.874 40.048 101.049 40.0234 101.237C39.7799 103.089 40.7798 103.341 41.3189 103.454C42.9884 103.341 42.3798 100.211 40.7625 100.489ZM41.632 102.707C41.3538 103.481 40.4494 102.376 40.6146 101.898C40.7016 101.663 40.6146 101.194 40.9885 101.176C41.7276 101.272 41.8928 102.124 41.6668 102.707H41.632Z" fill="#1B1B1D" stroke="#1B1B1D"></path><path d="M45.2318 105.976C44.8753 105.976 43.9189 106.306 44.5275 106.706C44.1536 107.185 43.8581 108.08 44.6232 108.35C46.084 108.785 47.0056 105.985 45.2318 105.976ZM44.858 107.785C44.2841 107.672 44.9884 106.35 45.5101 106.611C45.9014 107.037 45.3362 107.741 44.858 107.785Z" fill="#1B1B1D" stroke="#1B1B1D"></path><path d="M44.9013 102.124C45.5709 102.62 46.6404 101.82 45.7709 101.185C45.5013 100.976 44.6057 101.046 44.7014 101.507C44.6731 101.618 44.6769 101.735 44.7123 101.844C44.7476 101.954 44.8132 102.051 44.9013 102.124ZM45.6839 101.672C45.7622 102.037 44.9274 102.072 44.9535 101.672C45.197 101.655 45.51 101.402 45.6839 101.672Z" fill="#1B1B1D" stroke="#1B1B1D"></path><path d="M30.2679 100.95C29.7288 101.289 28.8593 102.794 29.294 103.394C30.1636 104.263 31.5982 102.611 31.72 101.733C31.7512 101.553 31.7251 101.368 31.6454 101.204C31.5657 101.04 31.4364 100.905 31.2758 100.818C31.1152 100.732 30.9315 100.698 30.7506 100.722C30.5697 100.745 30.4008 100.825 30.2679 100.95ZM29.8331 103.315C29.7208 103.319 29.6113 103.279 29.5288 103.202C29.7983 103.141 29.781 102.785 29.894 102.585C31.1287 99.4112 32.1982 102.498 29.8331 103.315Z" fill="#1B1B1D" stroke="#1B1B1D"></path><path d="M49.771 100.968C49.145 100.681 48.6754 101.333 48.5537 101.837C48.4754 102.063 48.2842 102.394 48.5537 102.533C49.5884 104.42 51.2405 101.802 49.771 100.968ZM49.4059 102.915C49.2893 102.908 49.1766 102.871 49.079 102.807C48.9814 102.743 48.9022 102.654 48.8494 102.55C49.1102 102.298 49.1102 101.863 49.345 101.568C50.0319 101.22 50.1623 102.924 49.4059 102.915Z" fill="#1B1B1D" stroke="#1B1B1D"></path><path d="M32.5721 104.315C30.607 104.011 31.5461 107.706 32.5199 107.445C33.8329 107.385 33.6851 104.628 32.5721 104.315ZM32.6851 106.976C32.6255 106.993 32.5622 106.993 32.5026 106.976C32.0504 106.785 31.9809 106.193 31.9026 105.767C32.5373 103.628 33.3894 106.237 32.6851 106.976Z" fill="#1B1B1D" stroke="#1B1B1D"></path><path d="M44.0235 77.3951C44.0844 77.1082 44.2409 76.5256 43.7974 76.5256C43.2061 76.5691 43.7278 78.1516 42.5801 78.0908C41.9975 78.0212 42.0149 77.2212 42.3366 76.8734C42.7453 76.8213 42.3801 76.4213 42.1106 76.6387C40.5628 78.4733 43.5627 79.6211 44.0235 77.3951Z" fill="#1B1B1D" stroke="#1B1B1D"></path><path d="M38.0848 81.021C38.1394 81.0456 38.2008 81.0513 38.259 81.0371C38.3173 81.0229 38.3692 80.9897 38.4065 80.9427C38.8064 80.9427 38.6673 80.3602 38.3021 80.4732C37.9977 80.3241 37.7453 80.0867 37.5778 79.792C37.4103 79.4973 37.3355 79.159 37.363 78.8211C37.5732 78.6689 37.7482 78.4731 37.8761 78.2473C38.7456 78.2473 39.0325 79.2907 38.7456 79.9863C38.6413 80.1776 38.4673 80.5515 38.8238 80.5428C38.6934 82.334 40.9889 82.6383 41.1019 80.7601C41.5019 80.6906 42.3367 78.3081 41.6584 78.8994C41.617 79.4123 41.4094 79.8977 41.0672 80.2819C40.9541 79.7515 40.3889 79.1776 39.9107 79.2298C41.0324 78.082 41.415 78.9603 41.7802 78.5342C41.9541 77.1256 39.1194 78.6646 39.5281 79.4037C39.4213 79.4887 39.33 79.5917 39.2586 79.708C39.2586 78.969 38.963 78.0299 37.9717 78.056C38.6065 76.5082 36.9457 76.2126 37.4065 77.3082C37.6674 78.9602 35.0067 78.9516 36.1109 77.1343C36.224 76.3082 35.0675 78.0038 35.5197 78.569C35.2546 78.6614 35.0134 78.8115 34.8134 79.0084C34.6134 79.2054 34.4596 79.4444 34.3632 79.708C33.8067 79.708 32.572 80.5775 32.9546 81.1427C31.9286 83.5078 35.1458 82.6122 35.2501 80.934C35.4856 80.8955 35.7181 80.8403 35.9457 80.7688C35.1893 82.9426 38.3021 83.4469 38.0848 81.021ZM39.1891 80.1515C39.4325 80.6297 39.876 80.2819 40.0586 79.9515C40.2371 80.0129 40.3908 80.1307 40.4965 80.2873C40.6022 80.4438 40.654 80.6304 40.6441 80.819C40.6343 81.0076 40.5634 81.1878 40.4421 81.3325C40.3207 81.4772 40.1556 81.5784 39.9716 81.621C39.276 81.5688 39.076 80.6819 39.1891 80.1515ZM33.5111 81.9862C33.1372 82.0383 33.3025 81.4036 33.372 81.2123C35.0328 79.282 34.8763 81.5688 33.5111 81.9862ZM36.9892 82.1079C36.3022 82.1079 36.224 81.2905 36.4066 80.7862C36.7022 80.7862 36.85 80.4297 37.1283 80.3515C37.5978 80.4645 37.6065 82.1253 36.937 82.1079H36.9892ZM35.3023 80.4558C35.2886 80.3121 35.2393 80.174 35.1588 80.054C35.0783 79.9341 34.9693 79.8361 34.8415 79.7689C35.1229 79.3675 35.5507 79.0927 36.0327 79.0037C36.3333 79.1127 36.6625 79.1127 36.9631 79.0037C36.9827 79.2216 37.0235 79.4371 37.0848 79.6472C36.7462 79.7174 36.4405 79.8978 36.2153 80.1602C35.8414 80.2819 35.5545 80.395 35.2501 80.4558H35.3023Z" fill="#1B1B1D" stroke="#1B1B1D"></path><path d="M42.9364 84.3078C44.6145 84.6295 44.9275 81.7862 43.4928 81.2819C43.0407 81.0123 41.7538 81.4123 42.1625 82.047C41.8929 82.8644 41.9625 84.0382 42.9364 84.3078ZM42.4407 82.1253C43.7363 80.9428 44.5362 83.4817 43.2146 83.8643C42.319 83.8817 42.206 82.76 42.4407 82.1253Z" fill="#1B1B1D" stroke="#1B1B1D"></path><path d="M41.1714 84.7685C41.2584 83.899 40.415 83.586 39.7194 83.899C39.0238 83.899 38.7107 84.812 38.5194 85.3511C38.0586 87.8727 41.154 86.4554 41.1714 84.7685ZM39.3715 86.0989C38.6585 86.151 39.2672 84.9511 39.4498 84.6555C39.5274 84.6466 39.6018 84.6198 39.6672 84.5772C39.729 84.5942 39.7946 84.5907 39.8542 84.5672C39.9138 84.5436 39.9641 84.5014 39.9976 84.4468C41.4062 83.9425 40.0845 86.1597 39.3715 86.0989Z" fill="#1B1B1D" stroke="#1B1B1D"></path><path d="M33.1195 79.0126C34.1368 79.1691 34.5281 77.8735 34.2238 77.0823C34.2116 77.0341 34.19 76.9888 34.1602 76.949C34.1303 76.9092 34.0929 76.8758 34.05 76.8507C34.007 76.8256 33.9596 76.8093 33.9103 76.8028C33.861 76.7963 33.8109 76.7997 33.7629 76.8127C33.2586 76.9779 33.6412 77.517 33.5977 77.8822C33.5368 78.4387 33.076 78.5257 32.7282 78.0735C32.6173 77.8851 32.5589 77.6704 32.5589 77.4518C32.5589 77.2332 32.6173 77.0185 32.7282 76.8301C32.9021 76.6997 32.6326 76.4823 32.4847 76.6127C32.3117 76.7924 32.1879 77.0137 32.1252 77.2551C32.0625 77.4966 32.0631 77.7501 32.1269 77.9912C32.1907 78.2324 32.3155 78.4531 32.4894 78.632C32.6632 78.8109 32.8802 78.9419 33.1195 79.0126Z" fill="#1B1B1D" stroke="#1B1B1D"></path><path d="M32.5718 83.2993C32.4534 83.3081 32.3427 83.3614 32.2621 83.4485C32.1814 83.5357 32.1367 83.6501 32.137 83.7688C31.7718 83.9166 32.1371 85.0905 32.6066 85.1426C34.3282 85.7774 34.0934 82.9776 32.5718 83.2993ZM32.3979 84.2645C32.39 84.2038 32.39 84.1425 32.3979 84.0818C32.3979 83.9253 32.4936 83.9166 32.6066 83.8645C32.7196 83.8123 32.937 83.8645 33.0327 83.8645C33.963 84.4992 32.4674 85.1166 32.3979 84.2645Z" fill="#1B1B1D" stroke="#1B1B1D"></path><path d="M44.4755 80.3602C44.5209 80.5059 44.6039 80.6371 44.7162 80.7406C44.8284 80.844 44.9659 80.9161 45.1148 80.9496C45.2638 80.9831 45.4189 80.9768 45.5646 80.9313C45.7103 80.8859 45.8415 80.8028 45.945 80.6906C46.7449 79.8211 45.2494 78.3777 44.4929 79.3515C44.319 79.6211 43.8842 80.308 44.4755 80.3602ZM45.032 79.6385C46.2232 79.5863 45.2842 81.3253 44.7798 80.0558C44.837 79.8956 44.9291 79.75 45.0494 79.6298L45.032 79.6385Z" fill="#1B1B1D" stroke="#1B1B1D"></path><path d="M44.5623 85.7078C45.2753 86.0556 46.4752 85.1774 46.3013 84.3774C45.6839 82.9427 43.2754 84.873 44.5623 85.7078ZM44.9013 85.3774C44.8352 85.379 44.77 85.3612 44.7139 85.3262C44.6577 85.2912 44.613 85.2405 44.5853 85.1804C44.5576 85.1204 44.548 85.0535 44.5578 84.9881C44.5676 84.9226 44.5963 84.8615 44.6405 84.8122C44.8318 84.8122 44.9796 84.6209 45.1187 84.5165C45.2043 84.4582 45.3009 84.4181 45.4026 84.3987C45.5043 84.3792 45.609 84.3809 45.71 84.4035C46.1361 84.7513 45.2665 85.3687 44.9013 85.3687V85.3774Z" fill="#1B1B1D" stroke="#1B1B1D"></path><path d="M36.0414 89.5857C35.7892 89.777 35.2762 90.2726 35.598 90.5943C35.3458 91.3595 34.9893 92.5681 35.6936 93.2029C37.6587 94.0637 38.0412 89.1162 36.0414 89.5857ZM36.1109 92.8898C36.0578 92.9107 35.9988 92.9107 35.9457 92.8898C35.4327 92.4638 35.7197 91.29 35.9457 90.7335C36.2066 90.69 36.2762 90.377 36.4501 90.2118C37.137 90.5856 36.9892 92.6898 36.1196 92.8898H36.1109Z" fill="#1B1B1D" stroke="#1B1B1D"></path><path d="M37.8583 93.5593C36.5279 93.5593 36.8583 95.8983 37.9017 96.1679C39.6408 96.5939 39.1886 93.7158 37.8583 93.5593ZM38.2583 95.8027C38.0372 95.7753 37.8315 95.6749 37.674 95.5173C37.5165 95.3598 37.4161 95.1542 37.3888 94.9331C37.78 94.881 37.6409 94.3853 37.8148 94.1419C38.4495 94.2201 38.9278 95.4722 38.293 95.8027H38.2583Z" fill="#1B1B1D" stroke="#1B1B1D"></path><path d="M40.3887 91.2203C42.2581 91.6029 43.3276 87.8379 41.1017 87.8206C39.9192 87.8988 38.7975 90.7856 40.3887 91.2203ZM40.2843 88.8379C40.5713 89.2118 40.9191 88.8379 41.1539 88.6553C42.3364 88.5944 41.4408 90.6812 40.5974 90.6899C39.754 90.6986 40.0235 89.3683 40.2843 88.8466V88.8379Z" fill="#1B1B1D" stroke="#1B1B1D"></path><path d="M36.2497 88.7597C37.6235 89.7423 38.2496 87.4555 37.4148 86.612C37.0409 86.0121 35.5454 86.3425 36.0323 87.099C35.9383 87.3738 35.9089 87.6667 35.9466 87.9548C35.9843 88.2429 36.0881 88.5183 36.2497 88.7597ZM36.3627 87.1772C37.2323 86.3077 37.5801 88.4119 36.7975 88.525C36.1975 88.5163 36.2584 87.5946 36.3627 87.1772Z" fill="#1B1B1D" stroke="#1B1B1D"></path><path d="M32.2329 90.8118C33.5633 91.0205 34.9806 88.2467 33.3111 87.8989C31.9634 87.7685 30.7461 90.2814 32.2329 90.8118ZM32.4416 88.6119C32.7198 88.7685 32.9459 88.3685 33.2415 88.3946C34.111 88.638 33.0589 90.2988 32.372 90.3162C31.6851 90.3336 32.1025 88.8467 32.4416 88.6119Z" fill="#1B1B1D" stroke="#1B1B1D"></path><path d="M32.7198 92.029C32.2503 91.9855 31.9112 92.3681 32.0155 93.0637C32.1199 93.7593 32.459 94.4636 33.1285 94.594C34.7893 94.7331 34.0937 91.9072 32.7198 92.029ZM33.172 94.2288C32.6329 94.1767 32.2242 93.4202 32.2155 92.8811C33.0676 91.316 34.3806 94.0636 33.172 94.2288Z" fill="#1B1B1D" stroke="#1B1B1D"></path><path d="M34.5806 95.2203C34.1545 95.1072 33.2676 95.6376 33.5546 96.0898C33.5222 96.1614 33.5049 96.2389 33.5037 96.3174C33.5025 96.396 33.5174 96.4739 33.5476 96.5465C33.5777 96.619 33.6225 96.6846 33.679 96.7392C33.7356 96.7937 33.8027 96.8361 33.8763 96.8636C35.0067 97.3854 35.8327 95.6202 34.5806 95.2203ZM34.2502 96.5332C34.1198 96.5332 33.9285 96.4811 33.885 96.3506C33.8763 96.3223 33.8763 96.292 33.885 96.2637C34.0763 96.3332 34.1111 96.0898 34.0415 95.9593C34.6936 95.1507 35.1371 96.4376 34.2502 96.5332Z" fill="#1B1B1D" stroke="#1B1B1D"></path><path d="M42.7106 92.9334C41.5628 92.7247 40.302 95.0898 41.615 95.542C42.7975 95.8028 44.2409 93.3073 42.7106 92.9334ZM41.7802 95.1507C41.7133 95.1591 41.6456 95.1437 41.5889 95.1072C41.533 95.067 41.4884 95.0131 41.4595 94.9506C41.4306 94.8882 41.4182 94.8193 41.4237 94.7507C41.4816 94.75 41.538 94.7323 41.5859 94.6998C41.6338 94.6674 41.6711 94.6216 41.6932 94.5681C42.6758 91.9682 43.6757 94.5681 41.7802 95.1507Z" fill="#1B1B1D" stroke="#1B1B1D"></path><path d="M40.276 96.2635C39.763 95.82 38.7804 96.6634 39.2064 97.1851C39.1608 97.51 39.2125 97.8411 39.3549 98.1367C39.4972 98.4323 39.7239 98.6791 40.0064 98.8459C41.5106 99.2807 41.1977 96.7504 40.276 96.2635ZM40.4411 98.5155H40.3977H40.3281C39.7543 98.4285 39.4586 97.759 39.4586 97.2373C39.7717 97.2373 39.7369 96.7504 39.9803 96.7243C40.1262 96.8069 40.2539 96.9181 40.3557 97.0513C40.4576 97.1844 40.5314 97.3368 40.5729 97.4993C40.6143 97.6617 40.6224 97.8308 40.5968 97.9965C40.5712 98.1622 40.5123 98.321 40.4238 98.4633L40.4411 98.5155Z" fill="#1B1B1D" stroke="#1B1B1D"></path><path d="M45.6842 87.6642C44.9973 87.1859 43.6147 88.1163 44.1104 88.8641C44.1126 89.1599 44.2168 89.4459 44.4052 89.674C44.5937 89.9021 44.855 90.0582 45.1451 90.1162C46.458 90.2379 46.8232 88.1772 45.6842 87.6642ZM45.2668 89.5075C45.1309 89.4969 45.0008 89.4479 44.8915 89.3664C44.7823 89.2848 44.6983 89.174 44.6495 89.0467C44.9364 89.0467 44.9451 88.7249 44.7712 88.5684C45.3625 87.4902 46.2842 89.2728 45.2668 89.5075Z" fill="#1B1B1D" stroke="#1B1B1D"></path><path d="M45.0927 91.0553C44.3363 90.1858 43.0581 91.5422 43.8928 91.9248C44.1023 92.4828 44.4788 92.9625 44.971 93.2986C46.1709 93.6116 45.771 91.4553 45.0927 91.0553ZM45.2058 92.9421C44.7465 92.6898 44.3737 92.305 44.1363 91.8378C44.3102 91.7335 44.2928 91.49 44.4319 91.3509C45.1188 91.264 45.5449 92.4204 45.2058 92.9421Z" fill="#1B1B1D" stroke="#1B1B1D"></path><path d="M43.7015 95.0027C43.3972 95.194 42.5973 95.6636 43.232 95.9505C43.161 96.0437 43.1156 96.154 43.1005 96.2702C43.0854 96.3864 43.1011 96.5046 43.146 96.6129C43.1909 96.7211 43.2635 96.8157 43.3564 96.8872C43.4493 96.9586 43.5593 97.0044 43.6755 97.02C45.6841 97.0983 45.8579 93.9593 43.7015 95.0027ZM44.345 96.194C44.2634 96.2804 44.1627 96.3466 44.051 96.3874C43.9393 96.4281 43.8197 96.4423 43.7015 96.4287C43.4494 96.3853 43.3277 96.1418 43.7015 95.7766C44.2406 95.1853 45.0232 95.5245 44.345 96.194Z" fill="#1B1B1D" stroke="#1B1B1D"></path><path d="M30.0937 88.7771C29.1372 88.9336 28.4242 91.2813 29.7893 91.3161C30.9023 91.2117 31.5805 88.7945 30.0937 88.7771ZM29.7372 90.8378C29.4676 90.7944 29.5632 90.4118 29.5719 90.2118C29.7719 89.5075 29.9024 89.264 30.2241 89.264C30.7632 89.5336 30.3806 90.9248 29.7372 90.8378Z" fill="#1B1B1D" stroke="#1B1B1D"></path><path d="M47.8317 90.2551C47.31 90.2551 46.5188 92.1072 47.31 92.0811C47.3284 92.2396 47.3806 92.3922 47.4631 92.5288C47.5456 92.6653 47.6565 92.7825 47.7882 92.8724C49.0403 93.0985 49.162 90.0117 47.8317 90.2551ZM47.91 92.5159C47.7186 92.3628 47.5939 92.1415 47.5622 91.8985C47.91 89.377 49.0056 91.9072 47.91 92.5159Z" fill="#1B1B1D" stroke="#1B1B1D"></path><path d="M29.746 94.0637C28.8765 93.9072 27.9027 96.3244 29.1113 96.42C30.1634 96.5418 31.1372 94.2028 29.746 94.0637ZM29.1721 95.9157C29.1113 95.9157 29.0243 95.9157 29.0069 95.8462C29.0017 95.4302 29.1263 95.0229 29.3634 94.681C29.5025 94.8028 29.6677 94.681 29.8069 94.6289C30.1286 95.0027 29.5808 95.8462 29.1634 95.9418L29.1721 95.9157Z" fill="#1B1B1D" stroke="#1B1B1D"></path></g><defs><clipPath id="clip0_110_1426"><rect width="77.943" height="140" fill="white"></rect></clipPath></defs></svg>